<svg width="176" height="140" viewBox="0 0 176 140" fill="none" xmlns="http://www.w3.org/2000/svg">
<g clip-path="url(#clip0_484_275)">
<path d="M88.1843 119.122C76.3338 119.122 64.85 115.013 55.6895 107.495C46.529 99.9776 40.2586 89.516 37.9467 77.8932C35.6348 66.2705 37.4245 54.2057 43.0107 43.7545C48.597 33.3033 57.6343 25.1125 68.5827 20.5775C79.5311 16.0425 91.7132 15.4441 103.053 18.8841C114.394 22.3241 124.19 29.5898 130.774 39.4431C137.358 49.2964 140.321 61.1277 139.16 72.9211C137.998 84.7145 132.783 95.7403 124.404 104.12C119.658 108.891 114.014 112.674 107.797 115.249C101.58 117.824 94.9136 119.141 88.1843 119.122ZM88.1843 17.0721C60.1576 17.0721 37.3561 39.8736 37.3561 67.9004C37.3561 95.9272 60.1576 118.728 88.1843 118.728C116.211 118.728 139.012 95.9272 139.012 67.9004C139.012 39.8736 116.211 17.0721 88.1843 17.0721Z" fill="#CCCCCC"/>
<path d="M107.204 126.804V75.2004H68.7966V126.804H107.204Z" fill="#2F2E41"/>
<path d="M113.802 73.6248H62.1987V94.1085H113.802V73.6248Z" fill="#3F3D56"/>
<path d="M113.802 96.472H62.1987V116.956H113.802V96.472Z" fill="#3F3D56"/>
<path d="M113.802 119.319H62.1987V139.803H113.802V119.319Z" fill="#3F3D56"/>
<path d="M113.802 82.3099H62.1987V85.4613H113.802V82.3099Z" fill="#1D4ED8"/>
<path d="M113.802 105.157H62.1987V108.309H113.802V105.157Z" fill="#1D4ED8"/>
<path d="M113.802 128.005H62.1987V131.156H113.802V128.005Z" fill="#1D4ED8"/>
<path d="M103.757 77.761C104.41 77.761 104.939 77.2319 104.939 76.5792C104.939 75.9266 104.41 75.3975 103.757 75.3975C103.104 75.3975 102.575 75.9266 102.575 76.5792C102.575 77.2319 103.104 77.761 103.757 77.761Z" fill="#1D4ED8"/>
<path d="M107.893 77.761C108.546 77.761 109.075 77.2319 109.075 76.5792C109.075 75.9266 108.546 75.3975 107.893 75.3975C107.241 75.3975 106.711 75.9266 106.711 76.5792C106.711 77.2319 107.241 77.761 107.893 77.761Z" fill="#1D4ED8"/>
<path d="M112.029 77.761C112.682 77.761 113.211 77.2319 113.211 76.5792C113.211 75.9266 112.682 75.3975 112.029 75.3975C111.377 75.3975 110.848 75.9266 110.848 76.5792C110.848 77.2319 111.377 77.761 112.029 77.761Z" fill="#1D4ED8"/>
<path d="M103.757 100.214C104.41 100.214 104.939 99.6853 104.939 99.0326C104.939 98.3799 104.41 97.8508 103.757 97.8508C103.104 97.8508 102.575 98.3799 102.575 99.0326C102.575 99.6853 103.104 100.214 103.757 100.214Z" fill="#1D4ED8"/>
<path d="M107.893 100.214C108.546 100.214 109.075 99.6853 109.075 99.0326C109.075 98.3799 108.546 97.8508 107.893 97.8508C107.241 97.8508 106.711 98.3799 106.711 99.0326C106.711 99.6853 107.241 100.214 107.893 100.214Z" fill="#1D4ED8"/>
<path d="M112.029 100.214C112.682 100.214 113.211 99.6853 113.211 99.0326C113.211 98.3799 112.682 97.8508 112.029 97.8508C111.377 97.8508 110.848 98.3799 110.848 99.0326C110.848 99.6853 111.377 100.214 112.029 100.214Z" fill="#1D4ED8"/>
<path d="M103.757 122.668C104.41 122.668 104.939 122.139 104.939 121.486C104.939 120.833 104.41 120.304 103.757 120.304C103.104 120.304 102.575 120.833 102.575 121.486C102.575 122.139 103.104 122.668 103.757 122.668Z" fill="#1D4ED8"/>
<path d="M107.893 122.668C108.546 122.668 109.075 122.139 109.075 121.486C109.075 120.833 108.546 120.304 107.893 120.304C107.241 120.304 106.711 120.833 106.711 121.486C106.711 122.139 107.241 122.668 107.893 122.668Z" fill="#1D4ED8"/>
<path d="M112.029 122.668C112.682 122.668 113.211 122.139 113.211 121.486C113.211 120.833 112.682 120.304 112.029 120.304C111.377 120.304 110.848 120.833 110.848 121.486C110.848 122.139 111.377 122.668 112.029 122.668Z" fill="#1D4ED8"/>
<path d="M175.45 139.606H0.550293V140H175.45V139.606Z" fill="#3F3D56"/>
<path d="M48.1906 53.3887V90.0215C48.1905 90.7879 47.886 91.5229 47.344 92.0648C46.8021 92.6067 46.0672 92.9112 45.3008 92.9114H31.0649C30.2983 92.9115 29.5631 92.6071 29.0209 92.0651C28.4787 91.5232 28.1741 90.7881 28.1738 90.0215V53.3887C28.1741 52.6222 28.4788 51.8871 29.0209 51.3451C29.5631 50.8032 30.2983 50.4988 31.0649 50.4989H32.7918C32.707 50.7074 32.6747 50.9336 32.6978 51.1575C32.7209 51.3814 32.7986 51.5963 32.9242 51.7831C33.0497 51.97 33.2193 52.1231 33.4179 52.2291C33.6165 52.3351 33.8381 52.3906 34.0632 52.3909H42.1796C42.4047 52.3906 42.6263 52.3351 42.8249 52.2291C43.0235 52.1231 43.193 51.97 43.3185 51.7831C43.4441 51.5963 43.5218 51.3814 43.5449 51.1575C43.568 50.9336 43.5357 50.7074 43.4509 50.4989H45.3008C46.0672 50.4991 46.8021 50.8036 47.344 51.3455C47.886 51.8874 48.1905 52.6224 48.1906 53.3887Z" fill="#E6E6E6"/>
<path d="M47.2423 57.4944H29.1221V82.7052H47.2423V57.4944Z" fill="white"/>
<path d="M41.4994 74.8302H34.2671V75.2435H41.4994V74.8302Z" fill="#E6E6E6"/>
<path d="M45.4504 76.3477H34.2598V76.7609H45.4504V76.3477Z" fill="#1D4ED8"/>
<path d="M43.0418 77.7772H34.2598V78.1905H43.0418V77.7772Z" fill="#E6E6E6"/>
<path d="M39.4257 79.2069H34.2598V79.6202H39.4257V79.2069Z" fill="#E6E6E6"/>
<path d="M42.0087 80.6365H34.2598V81.0497H42.0087V80.6365Z" fill="#E6E6E6"/>
<path d="M31.8134 74.7113H30.9868V75.5379H31.8134V74.7113Z" fill="#E6E6E6"/>
<path d="M31.8134 76.141H30.9868V76.9675H31.8134V76.141Z" fill="#1D4ED8"/>
<path d="M31.8134 77.5706H30.9868V78.3971H31.8134V77.5706Z" fill="#E6E6E6"/>
<path d="M31.8134 79.0002H30.9868V79.8268H31.8134V79.0002Z" fill="#E6E6E6"/>
<path d="M31.8134 80.4299H30.9868V81.2565H31.8134V80.4299Z" fill="#E6E6E6"/>
<path d="M41.8622 60.6458H34.5752V67.9328H41.8622V60.6458Z" fill="#E6E6E6"/>
<path d="M112.225 0.0274658H63.7959V31.0436H112.225V0.0274658Z" fill="#E6E6E6"/>
<path d="M107.599 8.70465H67.4468V23.8774H107.599V8.70465Z" fill="white"/>
<path d="M84.3988 11.3334H74.7622V11.884H84.3988V11.3334Z" fill="#E6E6E6"/>
<path d="M89.6638 13.3553H74.7529V13.9059H89.6638V13.3553Z" fill="#1D4ED8"/>
<path d="M86.4545 15.2602H74.7529V15.8109H86.4545V15.2602Z" fill="#E6E6E6"/>
<path d="M81.6362 17.1652H74.7529V17.7158H81.6362V17.1652Z" fill="#E6E6E6"/>
<path d="M85.0778 19.0701H74.7529V19.6207H85.0778V19.0701Z" fill="#E6E6E6"/>
<path d="M71.4934 11.175H70.3921V12.2764H71.4934V11.175Z" fill="#E6E6E6"/>
<path d="M71.4934 13.08H70.3921V14.1813H71.4934V13.08Z" fill="#1D4ED8"/>
<path d="M71.4934 14.9849H70.3921V16.0862H71.4934V14.9849Z" fill="#E6E6E6"/>
<path d="M71.4934 16.8898H70.3921V17.9911H71.4934V16.8898Z" fill="#E6E6E6"/>
<path d="M71.4934 18.7947H70.3921V19.896H71.4934V18.7947Z" fill="#E6E6E6"/>
<path d="M105.629 10.6058H95.769V20.4653H105.629V10.6058Z" fill="#E6E6E6"/>
<path d="M112.204 0H63.7754V2.05744H112.204V0Z" fill="#1D4ED8"/>
<path d="M65.3041 1.46485C65.5322 1.46485 65.7171 1.27994 65.7171 1.05185C65.7171 0.82376 65.5322 0.638855 65.3041 0.638855C65.076 0.638855 64.8911 0.82376 64.8911 1.05185C64.8911 1.27994 65.076 1.46485 65.3041 1.46485Z" fill="white"/>
<path d="M66.7519 1.46485C66.98 1.46485 67.1649 1.27994 67.1649 1.05185C67.1649 0.82376 66.98 0.638855 66.7519 0.638855C66.5238 0.638855 66.3389 0.82376 66.3389 1.05185C66.3389 1.27994 66.5238 1.46485 66.7519 1.46485Z" fill="white"/>
<path d="M68.1991 1.46485C68.4272 1.46485 68.6121 1.27994 68.6121 1.05185C68.6121 0.82376 68.4272 0.638855 68.1991 0.638855C67.971 0.638855 67.7861 0.82376 67.7861 1.05185C67.7861 1.27994 67.971 1.46485 68.1991 1.46485Z" fill="white"/>
<path d="M144.655 58.0651H132.837V64.1708H144.655V58.0651Z" fill="#E6E6E6"/>
<path d="M144.655 79.9275H132.837V86.0332H144.655V79.9275Z" fill="#E6E6E6"/>
<path d="M138.746 81.8971C144.185 81.8971 148.594 77.488 148.594 72.0491C148.594 66.6103 144.185 62.2012 138.746 62.2012C133.308 62.2012 128.898 66.6103 128.898 72.0491C128.898 77.488 133.308 81.8971 138.746 81.8971Z" fill="#E6E6E6"/>
<path d="M138.746 79.7305C142.989 79.7305 146.428 76.2914 146.428 72.0491C146.428 67.8068 142.989 64.3677 138.746 64.3677C134.504 64.3677 131.065 67.8068 131.065 72.0491C131.065 76.2914 134.504 79.7305 138.746 79.7305Z" fill="white"/>
<path d="M142.188 69.9445H136.231V70.2849H142.188V69.9445Z" fill="#E2E2E2"/>
<path d="M145.443 71.1945H136.225V71.5349H145.443V71.1945Z" fill="#1D4ED8"/>
<path d="M143.459 72.3721H136.225V72.7125H143.459V72.3721Z" fill="#E2E2E2"/>
<path d="M140.48 73.5497H136.225V73.8901H140.48V73.5497Z" fill="#E2E2E2"/>
<path d="M142.608 74.7273H136.225V75.0677H142.608V74.7273Z" fill="#E2E2E2"/>
<path d="M134.21 69.8466H133.529V70.5274H134.21V69.8466Z" fill="#E2E2E2"/>
<path d="M134.21 71.0242H133.529V71.705H134.21V71.0242Z" fill="#1D4ED8"/>
<path d="M134.21 72.2019H133.529V72.8827H134.21V72.2019Z" fill="#E2E2E2"/>
<path d="M134.21 73.3795H133.529V74.0604H134.21V73.3795Z" fill="#E2E2E2"/>
<path d="M134.21 74.5571H133.529V75.238H134.21V74.5571Z" fill="#E2E2E2"/>
</g>
<defs>
<clipPath id="clip0_484_275">
<rect width="174.9" height="140" fill="white" transform="translate(0.550293)"/>
</clipPath>
</defs>
</svg>
