<svg width="192" height="140" viewBox="0 0 192 140" fill="none" xmlns="http://www.w3.org/2000/svg">
<g clip-path="url(#clip0_484_1666)">
<path d="M89.8626 110.826L92.8725 109.479L89.1027 96.9451L84.6602 98.9328L89.8626 110.826Z" fill="#FFB6B6"/>
<path d="M87.707 107.423L92.2096 104.244L93.4523 106.247L99.8022 106.559C100.116 106.575 100.416 106.69 100.66 106.888C100.903 107.086 101.077 107.357 101.156 107.661C101.234 107.965 101.214 108.287 101.097 108.578C100.98 108.869 100.773 109.116 100.506 109.281L94.9396 112.735L92.7508 111.348L93.6054 113.562L91.5066 114.864L87.707 107.423Z" fill="#2F2E41"/>
<path d="M167.18 87.102C167.18 85.8415 166.756 84.8184 166.237 84.8161H24.5422C24.0201 84.8184 23.5991 85.8415 23.5968 87.102V138.993C23.5968 139.11 23.5532 139.223 23.4746 139.31C23.396 139.396 23.2879 139.451 23.1714 139.462C22.7911 139.499 22.4108 139.533 22.0305 139.564C22.0211 139.564 22.0116 139.566 22.0022 139.566C21.7953 139.585 21.5883 139.599 21.3814 139.616H21.379C21.2725 139.419 21.1673 139.22 21.0633 139.02C21.0282 138.953 21.0098 138.878 21.0098 138.802V84.1364C21.0098 83.7883 21.0239 83.4379 21.0474 83.0922C21.081 82.6175 21.1398 82.1449 21.2238 81.6764C21.6212 79.4916 22.5196 78.0123 23.5403 78.0076H167.236C167.385 78.0086 167.532 78.0398 167.669 78.0993C167.869 78.1881 168.051 78.3151 168.203 78.4732C168.409 78.6877 168.585 78.9289 168.727 79.1905C169.231 80.0772 169.59 81.3989 169.717 82.937C169.717 82.9511 169.72 82.9652 169.72 82.9793C169.753 83.3603 169.769 83.7483 169.767 84.1364L169.8 89.1763L169.821 92.182L169.884 101.613L169.908 104.962L170.011 139.345C170.011 139.47 169.962 139.59 169.874 139.678C169.785 139.766 169.666 139.816 169.541 139.816H167.65C167.525 139.816 167.406 139.766 167.318 139.678C167.229 139.59 167.18 139.47 167.18 139.345V87.102Z" fill="#E6E6E6"/>
<path d="M128.677 54.4246H113.409C113.193 54.4249 112.986 54.511 112.834 54.6639C112.681 54.8168 112.595 55.0241 112.596 55.2401V79.3587H129.492V55.2401C129.492 55.1329 129.471 55.0269 129.43 54.9279C129.389 54.8289 129.329 54.739 129.254 54.6633C129.178 54.5876 129.088 54.5275 128.989 54.4865C128.89 54.4456 128.784 54.4245 128.677 54.4246ZM121.094 68.1285C120.617 68.1263 120.16 67.9356 119.822 67.598C119.484 67.2604 119.294 66.8031 119.291 66.3256V63.5437C119.292 63.066 119.482 62.6079 119.82 62.2703C120.158 61.9326 120.617 61.7429 121.094 61.7429C121.572 61.7429 122.03 61.9326 122.368 62.2703C122.706 62.6079 122.897 63.066 122.897 63.5437V66.3256C122.895 66.8031 122.704 67.2604 122.367 67.598C122.029 67.9356 121.572 68.1263 121.094 68.1285Z" fill="#2F2E41"/>
<path d="M112.543 78.5872V80.9141C112.544 81.0347 112.592 81.1503 112.677 81.2355C112.762 81.3208 112.878 81.3688 112.998 81.369H129.09C129.211 81.3684 129.326 81.3203 129.411 81.2351C129.496 81.15 129.544 81.0346 129.545 80.9141V78.5872H112.543Z" fill="#3F3D56"/>
<path d="M92.9269 20.8368C92.7511 21.2792 92.4805 21.6776 92.1341 22.0041C91.7878 22.3306 91.374 22.5772 90.922 22.7264C90.47 22.8757 89.9908 22.9241 89.5181 22.8681C89.0454 22.8121 88.5907 22.6532 88.1861 22.4025L66.6346 37.4162L66.0396 31.4331L87.2298 17.7041C87.696 17.0523 88.3852 16.5941 89.1666 16.4165C89.9481 16.2388 90.7675 16.3539 91.4698 16.74C92.172 17.1262 92.7082 17.7565 92.9768 18.5116C93.2453 19.2666 93.2276 20.094 92.9269 20.8368Z" fill="#FFB6B6"/>
<path d="M44.6741 30.3032C44.6741 30.3032 42.3405 33.7514 46.0025 36.8028C49.6644 39.8542 64.5067 39.2472 66.9019 39.2209C69.2971 39.1947 80.2868 27.8263 80.2868 27.8263L80.2149 21.2606L66.9464 29.1335L44.6741 30.3032Z" fill="#1D4ED8"/>
<path d="M43.3531 53.1963L43.5883 57.6648C43.5883 57.6648 42.8941 61.623 43.465 62.4772C44.0316 63.3271 59.5911 64.5915 59.5911 64.5915C59.5911 64.5915 59.1033 57.9273 59.9832 53.1069L43.3531 53.1963Z" fill="#FFB6B6"/>
<path d="M91.1055 98.6928L85.1162 103.936L73.3775 79.9281C61.7371 81.93 50.7554 82.5714 41.2567 80.1496C38.0407 79.3409 36.0749 76.0202 36.8659 72.7325C36.9028 72.5788 36.9456 72.4268 36.9941 72.2764C38.1309 68.8079 41.1067 66.3538 43.4512 62.5389L60.5764 62.7991L58.6636 69.3988L75.2995 67.2461C78.6451 66.8131 81.7005 69.2347 82.124 72.6548C82.1463 72.8354 82.1609 73.0167 82.1678 73.1988L91.1055 98.6928Z" fill="#2F2E41"/>
<path d="M50.0397 23.1254C53.8802 23.1254 56.9935 20.0121 56.9935 16.1716C56.9935 12.3312 53.8802 9.21783 50.0397 9.21783C46.1993 9.21783 43.0859 12.3312 43.0859 16.1716C43.0859 20.0121 46.1993 23.1254 50.0397 23.1254Z" fill="#FFB6B6"/>
<path d="M45.9629 25.6357L52.3389 26.3859C52.6077 26.4175 52.8601 26.5322 53.0606 26.714C53.2612 26.8959 53.4001 27.1357 53.4579 27.4002L54.4719 32.0401L60.7928 39.4838C60.7928 39.4838 63.0625 43.7396 62.2114 48.5629C61.6992 51.4673 60.813 54.2932 59.5751 56.97C59.5751 56.97 44.0305 63.3274 43.4631 62.4763C42.8956 61.6251 42.7115 57.7589 42.7115 57.7589L40.7116 35.5102C40.5972 34.338 40.7435 33.1549 41.1402 32.0459C41.5368 30.9368 42.174 29.9293 43.006 29.0956C43.5105 28.5993 44.0085 28.2519 44.4138 28.2519C45.3294 28.221 45.2119 26.1604 45.9629 25.6357Z" fill="#1D4ED8"/>
<path d="M59.6445 120.148L62.6033 121.597L69.7263 110.62L65.3592 108.481L59.6445 120.148Z" fill="#FFB6B6"/>
<path d="M66.7322 117.667L60.6535 115.359L68.9963 90.3017C57.6621 86.9786 49.1127 81.626 41.6479 75.2724C39.1156 73.1314 37.2165 70.3818 39.3732 67.7774C39.474 67.6556 39.5793 67.5379 39.689 67.4242C42.2358 64.8095 48.6992 65.3125 52.4829 62.9181L60.9451 71.9528L60.4149 74.373L76.3015 79.7583C79.4964 80.8413 81.1749 84.3601 80.0506 87.6178C79.9913 87.7898 79.9246 87.9591 79.8507 88.1256L66.7322 117.667Z" fill="#2F2E41"/>
<path d="M59.5433 118.399L64.629 120.525L63.5919 122.642L66.7003 128.188C66.8539 128.461 66.9159 128.777 66.8772 129.089C66.8386 129.401 66.7014 129.692 66.4856 129.92C66.2698 130.148 65.9867 130.301 65.6777 130.357C65.3687 130.413 65.05 130.368 64.768 130.23L58.8852 127.348L58.8971 124.757L57.4754 126.658L55.2573 125.571L59.5433 118.399Z" fill="#2F2E41"/>
<path d="M49.5985 80.0325C49.1997 79.7726 48.8627 79.4285 48.6113 79.0243C48.3598 78.6201 48.2001 78.1657 48.1433 77.6931C48.0865 77.2206 48.134 76.7412 48.2824 76.289C48.4309 75.8367 48.6767 75.4225 49.0026 75.0756L38.5537 50.9778L44.5362 51.5793L53.7972 75.0686C54.3439 75.6546 54.6565 76.4208 54.6759 77.222C54.6954 78.0232 54.4202 78.8036 53.9027 79.4155C53.3851 80.0274 52.6611 80.4281 51.8678 80.5418C51.0745 80.6556 50.2671 80.4743 49.5985 80.0325V80.0325Z" fill="#FFB6B6"/>
<path d="M49.8742 30.8609C49.8742 30.8609 46.9564 27.8908 43.2403 30.8759C39.5242 33.8611 37.1802 48.5298 36.7316 50.8827C36.283 53.2357 45.2502 66.2589 45.2502 66.2589L51.7001 67.4885L46.6105 52.9238L49.8742 30.8609Z" fill="#1D4ED8"/>
<path d="M153.959 16.7847H88.6948C88.1341 16.7856 87.5966 17.0087 87.2001 17.4052C86.8036 17.8017 86.5805 18.3392 86.5796 18.8999V62.9403C86.5801 63.5011 86.8032 64.0388 87.1997 64.4354C87.5963 64.832 88.134 65.055 88.6948 65.0555H153.959C154.52 65.055 155.057 64.832 155.454 64.4354C155.851 64.0388 156.074 63.5011 156.074 62.9403V18.8999C156.073 18.3392 155.85 17.8017 155.454 17.4052C155.057 17.0087 154.52 16.7856 153.959 16.7847Z" fill="#3F3D56"/>
<path d="M153.414 18.3124H89.2401C88.9399 18.313 88.6522 18.4327 88.4401 18.6453C88.228 18.8578 88.1089 19.1457 88.1089 19.446V62.3948C88.1094 62.6946 88.2287 62.9821 88.4408 63.1941C88.6528 63.4061 88.9402 63.5255 89.2401 63.526H153.414C153.714 63.5255 154.001 63.4061 154.213 63.1941C154.425 62.9821 154.545 62.6946 154.545 62.3948V19.446C154.545 19.1457 154.426 18.8578 154.214 18.6453C154.002 18.4327 153.714 18.313 153.414 18.3124Z" fill="white"/>
<path d="M140.914 82.1788H102.734C102.63 82.1788 102.526 82.1555 102.432 82.1105C102.338 82.0656 102.255 82.0001 102.189 81.919C102.123 81.8378 102.076 81.743 102.051 81.6414C102.027 81.5398 102.025 81.434 102.047 81.3318L102.639 78.5181C102.673 78.3607 102.759 78.2195 102.884 78.1181C103.009 78.0167 103.165 77.961 103.326 77.9604H140.322C140.483 77.961 140.639 78.0167 140.764 78.1181C140.889 78.2195 140.975 78.3607 141.009 78.5181L141.601 81.3318C141.623 81.434 141.621 81.5398 141.597 81.6414C141.572 81.743 141.525 81.8378 141.459 81.919C141.394 82.0001 141.31 82.0656 141.216 82.1105C141.122 82.1555 141.019 82.1788 140.914 82.1788H140.914Z" fill="#2F2E41"/>
<path d="M104.659 78.4672H103.712C103.649 78.4672 103.598 78.5186 103.598 78.582V79.0579C103.598 79.1213 103.649 79.1727 103.712 79.1727H104.659C104.722 79.1727 104.774 79.1213 104.774 79.0579V78.582C104.774 78.5186 104.722 78.4672 104.659 78.4672Z" fill="#3F3D56"/>
<path d="M107.011 78.4672H106.065C106.001 78.4672 105.95 78.5186 105.95 78.582V79.0579C105.95 79.1213 106.001 79.1727 106.065 79.1727H107.011C107.074 79.1727 107.126 79.1213 107.126 79.0579V78.582C107.126 78.5186 107.074 78.4672 107.011 78.4672Z" fill="#3F3D56"/>
<path d="M109.362 78.4672H108.416C108.353 78.4672 108.301 78.5186 108.301 78.582V79.0579C108.301 79.1213 108.353 79.1727 108.416 79.1727H109.362C109.426 79.1727 109.477 79.1213 109.477 79.0579V78.582C109.477 78.5186 109.426 78.4672 109.362 78.4672Z" fill="#3F3D56"/>
<path d="M111.714 78.4672H110.768C110.705 78.4672 110.653 78.5186 110.653 78.582V79.0579C110.653 79.1213 110.705 79.1727 110.768 79.1727H111.714C111.778 79.1727 111.829 79.1213 111.829 79.0579V78.582C111.829 78.5186 111.778 78.4672 111.714 78.4672Z" fill="#3F3D56"/>
<path d="M114.066 78.4672H113.12C113.056 78.4672 113.005 78.5186 113.005 78.582V79.0579C113.005 79.1213 113.056 79.1727 113.12 79.1727H114.066C114.129 79.1727 114.181 79.1213 114.181 79.0579V78.582C114.181 78.5186 114.129 78.4672 114.066 78.4672Z" fill="#3F3D56"/>
<path d="M116.418 78.4672H115.472C115.408 78.4672 115.357 78.5186 115.357 78.582V79.0579C115.357 79.1213 115.408 79.1727 115.472 79.1727H116.418C116.481 79.1727 116.533 79.1213 116.533 79.0579V78.582C116.533 78.5186 116.481 78.4672 116.418 78.4672Z" fill="#3F3D56"/>
<path d="M118.77 78.4672H117.823C117.76 78.4672 117.708 78.5186 117.708 78.582V79.0579C117.708 79.1213 117.76 79.1727 117.823 79.1727H118.77C118.833 79.1727 118.884 79.1213 118.884 79.0579V78.582C118.884 78.5186 118.833 78.4672 118.77 78.4672Z" fill="#3F3D56"/>
<path d="M121.122 78.4672H120.175C120.112 78.4672 120.061 78.5186 120.061 78.582V79.0579C120.061 79.1213 120.112 79.1727 120.175 79.1727H121.122C121.185 79.1727 121.236 79.1213 121.236 79.0579V78.582C121.236 78.5186 121.185 78.4672 121.122 78.4672Z" fill="#3F3D56"/>
<path d="M123.473 78.4672H122.527C122.464 78.4672 122.412 78.5186 122.412 78.582V79.0579C122.412 79.1213 122.464 79.1727 122.527 79.1727H123.473C123.537 79.1727 123.588 79.1213 123.588 79.0579V78.582C123.588 78.5186 123.537 78.4672 123.473 78.4672Z" fill="#3F3D56"/>
<path d="M125.825 78.4672H124.879C124.816 78.4672 124.764 78.5186 124.764 78.582V79.0579C124.764 79.1213 124.816 79.1727 124.879 79.1727H125.825C125.889 79.1727 125.94 79.1213 125.94 79.0579V78.582C125.94 78.5186 125.889 78.4672 125.825 78.4672Z" fill="#3F3D56"/>
<path d="M128.177 78.4672H127.231C127.167 78.4672 127.116 78.5186 127.116 78.582V79.0579C127.116 79.1213 127.167 79.1727 127.231 79.1727H128.177C128.24 79.1727 128.292 79.1213 128.292 79.0579V78.582C128.292 78.5186 128.24 78.4672 128.177 78.4672Z" fill="#3F3D56"/>
<path d="M130.529 78.4672H129.583C129.519 78.4672 129.468 78.5186 129.468 78.582V79.0579C129.468 79.1213 129.519 79.1727 129.583 79.1727H130.529C130.592 79.1727 130.644 79.1213 130.644 79.0579V78.582C130.644 78.5186 130.592 78.4672 130.529 78.4672Z" fill="#3F3D56"/>
<path d="M132.88 78.4672H131.934C131.871 78.4672 131.819 78.5186 131.819 78.582V79.0579C131.819 79.1213 131.871 79.1727 131.934 79.1727H132.88C132.944 79.1727 132.995 79.1213 132.995 79.0579V78.582C132.995 78.5186 132.944 78.4672 132.88 78.4672Z" fill="#3F3D56"/>
<path d="M135.232 78.4672H134.286C134.223 78.4672 134.171 78.5186 134.171 78.582V79.0579C134.171 79.1213 134.223 79.1727 134.286 79.1727H135.232C135.296 79.1727 135.347 79.1213 135.347 79.0579V78.582C135.347 78.5186 135.296 78.4672 135.232 78.4672Z" fill="#3F3D56"/>
<path d="M137.584 78.4672H136.638C136.574 78.4672 136.523 78.5186 136.523 78.582V79.0579C136.523 79.1213 136.574 79.1727 136.638 79.1727H137.584C137.647 79.1727 137.699 79.1213 137.699 79.0579V78.582C137.699 78.5186 137.647 78.4672 137.584 78.4672Z" fill="#3F3D56"/>
<path d="M139.936 78.4672H138.99C138.926 78.4672 138.875 78.5186 138.875 78.582V79.0579C138.875 79.1213 138.926 79.1727 138.99 79.1727H139.936C139.999 79.1727 140.051 79.1213 140.051 79.0579V78.582C140.051 78.5186 139.999 78.4672 139.936 78.4672Z" fill="#3F3D56"/>
<path d="M104.631 79.6431H103.685C103.621 79.6431 103.57 79.6945 103.57 79.7579V80.2338C103.57 80.2972 103.621 80.3486 103.685 80.3486H104.631C104.694 80.3486 104.746 80.2972 104.746 80.2338V79.7579C104.746 79.6945 104.694 79.6431 104.631 79.6431Z" fill="#3F3D56"/>
<path d="M106.983 79.6431H106.037C105.973 79.6431 105.922 79.6945 105.922 79.7579V80.2338C105.922 80.2972 105.973 80.3486 106.037 80.3486H106.983C107.046 80.3486 107.098 80.2972 107.098 80.2338V79.7579C107.098 79.6945 107.046 79.6431 106.983 79.6431Z" fill="#3F3D56"/>
<path d="M109.335 79.6431H108.388C108.325 79.6431 108.273 79.6945 108.273 79.7579V80.2338C108.273 80.2972 108.325 80.3486 108.388 80.3486H109.335C109.398 80.3486 109.449 80.2972 109.449 80.2338V79.7579C109.449 79.6945 109.398 79.6431 109.335 79.6431Z" fill="#3F3D56"/>
<path d="M111.687 79.6431H110.74C110.677 79.6431 110.625 79.6945 110.625 79.7579V80.2338C110.625 80.2972 110.677 80.3486 110.74 80.3486H111.687C111.75 80.3486 111.801 80.2972 111.801 80.2338V79.7579C111.801 79.6945 111.75 79.6431 111.687 79.6431Z" fill="#3F3D56"/>
<path d="M114.038 79.6431H113.092C113.028 79.6431 112.977 79.6945 112.977 79.7579V80.2338C112.977 80.2972 113.028 80.3486 113.092 80.3486H114.038C114.102 80.3486 114.153 80.2972 114.153 80.2338V79.7579C114.153 79.6945 114.102 79.6431 114.038 79.6431Z" fill="#3F3D56"/>
<path d="M116.39 79.6431H115.444C115.381 79.6431 115.329 79.6945 115.329 79.7579V80.2338C115.329 80.2972 115.381 80.3486 115.444 80.3486H116.39C116.454 80.3486 116.505 80.2972 116.505 80.2338V79.7579C116.505 79.6945 116.454 79.6431 116.39 79.6431Z" fill="#3F3D56"/>
<path d="M118.742 79.6431H117.795C117.732 79.6431 117.681 79.6945 117.681 79.7579V80.2338C117.681 80.2972 117.732 80.3486 117.795 80.3486H118.742C118.805 80.3486 118.857 80.2972 118.857 80.2338V79.7579C118.857 79.6945 118.805 79.6431 118.742 79.6431Z" fill="#3F3D56"/>
<path d="M121.094 79.6431H120.148C120.084 79.6431 120.033 79.6945 120.033 79.7579V80.2338C120.033 80.2972 120.084 80.3486 120.148 80.3486H121.094C121.157 80.3486 121.209 80.2972 121.209 80.2338V79.7579C121.209 79.6945 121.157 79.6431 121.094 79.6431Z" fill="#3F3D56"/>
<path d="M123.445 79.6431H122.499C122.436 79.6431 122.384 79.6945 122.384 79.7579V80.2338C122.384 80.2972 122.436 80.3486 122.499 80.3486H123.445C123.509 80.3486 123.56 80.2972 123.56 80.2338V79.7579C123.56 79.6945 123.509 79.6431 123.445 79.6431Z" fill="#3F3D56"/>
<path d="M125.797 79.6431H124.851C124.788 79.6431 124.736 79.6945 124.736 79.7579V80.2338C124.736 80.2972 124.788 80.3486 124.851 80.3486H125.797C125.861 80.3486 125.912 80.2972 125.912 80.2338V79.7579C125.912 79.6945 125.861 79.6431 125.797 79.6431Z" fill="#3F3D56"/>
<path d="M128.149 79.6431H127.203C127.139 79.6431 127.088 79.6945 127.088 79.7579V80.2338C127.088 80.2972 127.139 80.3486 127.203 80.3486H128.149C128.212 80.3486 128.264 80.2972 128.264 80.2338V79.7579C128.264 79.6945 128.212 79.6431 128.149 79.6431Z" fill="#3F3D56"/>
<path d="M130.501 79.6431H129.555C129.491 79.6431 129.44 79.6945 129.44 79.7579V80.2338C129.44 80.2972 129.491 80.3486 129.555 80.3486H130.501C130.564 80.3486 130.616 80.2972 130.616 80.2338V79.7579C130.616 79.6945 130.564 79.6431 130.501 79.6431Z" fill="#3F3D56"/>
<path d="M132.853 79.6431H131.906C131.843 79.6431 131.792 79.6945 131.792 79.7579V80.2338C131.792 80.2972 131.843 80.3486 131.906 80.3486H132.853C132.916 80.3486 132.967 80.2972 132.967 80.2338V79.7579C132.967 79.6945 132.916 79.6431 132.853 79.6431Z" fill="#3F3D56"/>
<path d="M135.205 79.6431H134.258C134.195 79.6431 134.144 79.6945 134.144 79.7579V80.2338C134.144 80.2972 134.195 80.3486 134.258 80.3486H135.205C135.268 80.3486 135.319 80.2972 135.319 80.2338V79.7579C135.319 79.6945 135.268 79.6431 135.205 79.6431Z" fill="#3F3D56"/>
<path d="M137.556 79.6431H136.61C136.547 79.6431 136.495 79.6945 136.495 79.7579V80.2338C136.495 80.2972 136.547 80.3486 136.61 80.3486H137.556C137.62 80.3486 137.671 80.2972 137.671 80.2338V79.7579C137.671 79.6945 137.62 79.6431 137.556 79.6431Z" fill="#3F3D56"/>
<path d="M139.908 79.6431H138.962C138.899 79.6431 138.847 79.6945 138.847 79.7579V80.2338C138.847 80.2972 138.899 80.3486 138.962 80.3486H139.908C139.972 80.3486 140.023 80.2972 140.023 80.2338V79.7579C140.023 79.6945 139.972 79.6431 139.908 79.6431Z" fill="#3F3D56"/>
<path d="M124.151 81.0541H114.973C114.91 81.0541 114.858 81.1055 114.858 81.1689V81.6448C114.858 81.7082 114.91 81.7596 114.973 81.7596H124.151C124.214 81.7596 124.266 81.7082 124.266 81.6448V81.1689C124.266 81.1055 124.214 81.0541 124.151 81.0541Z" fill="#3F3D56"/>
<path d="M148.995 135.856L147.181 132.942L146.819 134.607C146.756 134.898 146.692 135.195 146.633 135.489C146.118 135.049 145.57 134.642 145.034 134.252C143.388 133.057 141.742 131.861 140.098 130.663L140.613 133.65C140.93 135.489 141.262 137.365 142.047 139.047C142.134 139.237 142.228 139.426 142.33 139.609H149.982C150.044 139.439 150.087 139.262 150.109 139.082C150.111 139.071 150.112 139.059 150.112 139.047C150.232 137.906 149.601 136.832 148.995 135.856Z" fill="#F0F0F0"/>
<path d="M45.5146 135.856L43.7014 132.942L43.3392 134.607C43.2757 134.898 43.2122 135.195 43.1534 135.489C42.6383 135.049 42.0904 134.642 41.5542 134.252C39.9079 133.057 38.2624 131.861 36.6177 130.663L37.1327 133.65C37.4502 135.489 37.7819 137.365 38.5673 139.047C38.6544 139.237 38.7484 139.426 38.8496 139.609H46.5024C46.564 139.439 46.6066 139.262 46.6294 139.082C46.6313 139.071 46.6321 139.059 46.6317 139.047C46.7517 137.906 46.1214 136.832 45.5146 135.856Z" fill="#F0F0F0"/>
<path d="M190.984 139.928L126.133 140C126.059 140 125.988 139.97 125.935 139.918C125.883 139.865 125.854 139.794 125.854 139.72C125.854 139.646 125.883 139.575 125.935 139.522C125.988 139.47 126.059 139.44 126.133 139.44L190.984 139.368C191.058 139.368 191.129 139.397 191.182 139.45C191.234 139.502 191.263 139.574 191.263 139.648C191.263 139.722 191.234 139.793 191.182 139.845C191.129 139.898 191.058 139.928 190.984 139.928Z" fill="#CACACA"/>
<path d="M65.8678 139.928L1.01652 140C0.942394 140 0.871378 139.97 0.819038 139.918C0.766698 139.865 0.737305 139.794 0.737305 139.72C0.737305 139.646 0.766698 139.575 0.819038 139.522C0.871378 139.47 0.942394 139.44 1.01652 139.44L65.8678 139.368C65.9419 139.368 66.013 139.397 66.0653 139.45C66.1176 139.502 66.147 139.574 66.147 139.648C66.147 139.722 66.1176 139.793 66.0653 139.845C66.013 139.898 65.9419 139.928 65.8678 139.928Z" fill="#CACACA"/>
<path d="M42.6859 9.97288C41.5641 10.3068 40.5175 9.36847 39.7367 8.47948L40.0142 8.80873C38.1775 10.1022 37.0792 12.2095 36.3666 14.3426C35.654 16.4733 35.2565 18.7052 34.4522 20.8053C33.6479 22.9032 32.3497 24.9328 30.3624 25.9793C27.7001 27.381 24.4382 26.7437 21.6066 25.7324C21.569 25.7183 21.5337 25.7065 21.4961 25.6924C22.6429 23.5502 23.3452 21.1984 23.5609 18.7781C22.3961 21.0522 20.7162 23.0229 18.6551 24.533C16.8049 23.6919 15.0258 22.7025 13.3353 21.5744C12.2417 20.843 11.0893 19.8975 10.9623 18.5876C10.8329 17.287 11.8042 16.0994 12.9496 15.4738C14.0949 14.8482 15.4119 14.6365 16.6631 14.2602C17.9119 13.8863 19.1866 13.2725 19.8427 12.1436C21.3549 9.5472 18.8103 5.88543 20.433 3.35488C21.2327 2.11077 22.7849 1.61218 24.2242 1.26646C26.4211 0.740985 28.651 0.364622 30.8986 0.139947C32.8718 -0.0576054 34.9108 -0.130511 36.7876 0.504479C38.6643 1.13947 40.367 2.61406 40.7692 4.55665C41.8651 5.13285 43.0246 5.77019 43.6125 6.86378C44.2005 7.95502 43.8736 9.62011 42.6859 9.97288Z" fill="#2F2E41"/>
<path d="M41.0116 9.53537C39.9374 10.881 39.3526 12.3363 39.3526 13.2078C37.1211 17.2864 40.3122 20.7897 44.3909 23.0212C46.0176 23.9159 47.896 24.2434 49.7296 23.9519L49.9002 23.2235L50.1314 23.8796C50.1314 23.8796 52.7869 32.6503 53.6628 33.1648C53.3304 31.6039 52.9497 24.3768 52.7646 22.8535C52.5085 20.7802 53.4015 17.6936 54.0456 15.8165C54.445 14.6596 54.65 13.4446 54.6522 12.2208V12.1672L55.2795 14.1819L57.5629 13.2078C57.1381 10.7711 57.563 8.00488 52.4698 8.24479C49.7152 6.35032 47.2894 6.06174 45.2968 6.59905C45.0397 6.20148 43.5568 6.94612 43.1283 6.73678" fill="#2F2E41"/>
<path d="M154.546 19.446V62.3948C154.545 62.6946 154.426 62.9821 154.214 63.1941C154.002 63.4061 153.714 63.5255 153.414 63.526H130.785C128.282 61.2044 126.228 58.4411 124.727 55.3746C124.628 55.1771 124.534 54.9772 124.445 54.7749C123.077 51.8069 122.249 48.619 121.999 45.3606C121.982 45.1607 121.968 44.9608 121.959 44.7585C121.928 44.2411 121.914 43.7167 121.914 43.1899C121.91 39.6862 122.571 36.2137 123.864 32.9571C123.941 32.7549 124.024 32.555 124.108 32.3551C126.71 26.2434 131.41 21.2628 137.361 18.3124H153.414C153.715 18.313 154.002 18.4327 154.214 18.6453C154.426 18.8578 154.545 19.1457 154.546 19.446Z" fill="#1D4ED8"/>
<path d="M150.188 24.2298H90.1408C90.0784 24.2284 90.019 24.2026 89.9753 24.158C89.9317 24.1134 89.9072 24.0534 89.9072 23.991C89.9072 23.9285 89.9317 23.8686 89.9753 23.824C90.019 23.7793 90.0784 23.7536 90.1408 23.7522H150.188C150.251 23.7536 150.31 23.7793 150.354 23.824C150.397 23.8686 150.422 23.9285 150.422 23.991C150.422 24.0534 150.397 24.1134 150.354 24.158C150.31 24.2026 150.251 24.2284 150.188 24.2298Z" fill="#CACACA"/>
<path d="M94.2285 22.533C95.0014 22.533 95.628 21.8925 95.628 21.1024C95.628 20.3123 95.0014 19.6718 94.2285 19.6718C93.4557 19.6718 92.8291 20.3123 92.8291 21.1024C92.8291 21.8925 93.4557 22.533 94.2285 22.533Z" fill="#3F3D56"/>
<path d="M99.063 22.533C99.8359 22.533 100.462 21.8925 100.462 21.1024C100.462 20.3123 99.8359 19.6718 99.063 19.6718C98.2901 19.6718 97.6636 20.3123 97.6636 21.1024C97.6636 21.8925 98.2901 22.533 99.063 22.533Z" fill="#3F3D56"/>
<path d="M103.897 22.533C104.67 22.533 105.297 21.8925 105.297 21.1024C105.297 20.3123 104.67 19.6718 103.897 19.6718C103.125 19.6718 102.498 20.3123 102.498 21.1024C102.498 21.8925 103.125 22.533 103.897 22.533Z" fill="#3F3D56"/>
<path d="M147.277 20.0264H143.843C143.775 20.0277 143.71 20.0557 143.663 20.1043C143.615 20.1529 143.588 20.2183 143.588 20.2864C143.588 20.3545 143.615 20.4199 143.663 20.4685C143.71 20.5171 143.775 20.5451 143.843 20.5464H147.277C147.346 20.5451 147.41 20.5171 147.458 20.4685C147.506 20.4199 147.532 20.3545 147.532 20.2864C147.532 20.2183 147.506 20.1529 147.458 20.1043C147.41 20.0557 147.346 20.0277 147.277 20.0264Z" fill="#3F3D56"/>
<path d="M147.277 21.0024H143.843C143.775 21.0038 143.71 21.0318 143.663 21.0804C143.615 21.129 143.588 21.1944 143.588 21.2625C143.588 21.3306 143.615 21.3959 143.663 21.4445C143.71 21.4932 143.775 21.5211 143.843 21.5225H147.277C147.346 21.5211 147.41 21.4932 147.458 21.4445C147.506 21.3959 147.532 21.3306 147.532 21.2625C147.532 21.1944 147.506 21.129 147.458 21.0804C147.41 21.0318 147.346 21.0038 147.277 21.0024Z" fill="#3F3D56"/>
<path d="M147.277 21.9772H143.843C143.775 21.9785 143.71 22.0065 143.663 22.0551C143.615 22.1037 143.588 22.1691 143.588 22.2372C143.588 22.3053 143.615 22.3707 143.663 22.4193C143.71 22.4679 143.775 22.4959 143.843 22.4972H147.277C147.346 22.4959 147.41 22.4679 147.458 22.4193C147.506 22.3707 147.532 22.3053 147.532 22.2372C147.532 22.1691 147.506 22.1037 147.458 22.0551C147.41 22.0065 147.346 21.9785 147.277 21.9772Z" fill="#3F3D56"/>
<path d="M108.08 38.1803H100.577C100.013 38.1803 99.5562 38.6372 99.5562 39.2007V39.2007C99.5562 39.7643 100.013 40.2212 100.577 40.2212H108.08C108.643 40.2212 109.1 39.7643 109.1 39.2007C109.1 38.6372 108.643 38.1803 108.08 38.1803Z" fill="#1D4ED8"/>
<path d="M112.927 42.2621H95.7294C95.1659 42.2621 94.709 42.719 94.709 43.2825C94.709 43.8461 95.1659 44.303 95.7294 44.303H112.927C113.49 44.303 113.947 43.8461 113.947 43.2825C113.947 42.719 113.49 42.2621 112.927 42.2621Z" fill="#E6E6E6"/>
<path d="M112.927 46.3439H95.7294C95.1659 46.3439 94.709 46.8007 94.709 47.3643V47.3643C94.709 47.9279 95.1659 48.3848 95.7294 48.3848H112.927C113.49 48.3848 113.947 47.9279 113.947 47.3643C113.947 46.8007 113.49 46.3439 112.927 46.3439Z" fill="#E6E6E6"/>
<path d="M96.2791 61.0637C96.2805 61.9044 96.1307 62.7385 95.8369 63.5261H89.2401C88.9402 63.5256 88.6528 63.4062 88.4408 63.1942C88.2287 62.9822 88.1094 62.6947 88.1089 62.3949V54.0977C88.4775 54.0381 88.8503 54.0082 89.2236 54.0083C90.1502 54.0082 91.0677 54.1907 91.9237 54.5452C92.7797 54.8998 93.5576 55.4195 94.2127 56.0747C94.8679 56.7298 95.3876 57.5076 95.7421 58.3637C96.0967 59.2197 96.2791 60.1372 96.2791 61.0637Z" fill="#1D4ED8"/>
<path opacity="0.2" d="M154.604 32.9572V32.3551H144.512V25.3773H143.913V32.3551H132.346V25.3773H131.747V32.3551H124.108C124.023 32.5551 123.941 32.755 123.863 32.9572H131.747V44.7586H121.958C121.968 44.9609 121.982 45.1608 121.998 45.3607H131.747V54.775H124.444C124.534 54.9773 124.628 55.1772 124.727 55.3747H131.747V63.2886H132.346V55.3747H143.913V63.2886H144.512V55.3747H154.604V54.775H144.512V45.3607H154.604V44.7586H144.512V32.9572H154.604ZM143.913 54.775H132.346V45.3607H143.913V54.775ZM143.913 44.7586H132.346V32.9572H143.913V44.7586Z" fill="black"/>
<path d="M146.479 59.0703C146.35 59.0762 146.223 59.0424 146.114 58.9735C146.005 58.9045 145.92 58.8038 145.87 58.6849C145.821 58.566 145.809 58.4347 145.836 58.3088C145.863 58.1829 145.929 58.0685 146.024 57.981L146.067 57.8098C146.061 57.7961 146.055 57.7824 146.05 57.7687C145.92 57.4624 145.703 57.2012 145.425 57.018C145.147 56.8348 144.822 56.7377 144.489 56.739C144.156 56.7402 143.832 56.8397 143.555 57.025C143.279 57.2102 143.064 57.473 142.936 57.7802C142.427 59.0066 141.779 60.235 141.619 61.5316C141.549 62.1048 141.579 62.6858 141.707 63.2488C140.511 60.6401 139.89 57.8047 139.886 54.9349C139.886 54.2147 139.926 53.4951 140.006 52.7795C140.072 52.1928 140.164 51.6102 140.281 51.0319C140.922 47.8938 142.299 44.9525 144.297 42.4496C145.264 41.9219 146.046 41.1103 146.538 40.1243C146.716 39.7699 146.842 39.3915 146.912 39.001C146.803 39.0153 146.692 39.0243 146.583 39.0314C146.549 39.0332 146.513 39.035 146.479 39.0368L146.466 39.0373C146.346 39.0427 146.228 39.0133 146.124 38.9527C146.02 38.8921 145.936 38.8028 145.882 38.6956C145.828 38.5884 145.807 38.4679 145.819 38.3485C145.832 38.2292 145.879 38.1161 145.955 38.0229C146.002 37.9649 146.049 37.907 146.096 37.8491C146.168 37.7596 146.241 37.672 146.313 37.5825C146.321 37.574 146.329 37.5651 146.336 37.5557C146.418 37.4537 146.501 37.3536 146.583 37.2516C146.433 37.0185 146.231 36.8232 145.993 36.681C145.168 36.1981 144.03 36.5326 143.435 37.2785C142.837 38.0243 142.725 39.0707 142.932 40.0027C143.136 40.7956 143.474 41.5481 143.93 42.2278C143.886 42.2851 143.839 42.3405 143.794 42.3978C142.977 43.4489 142.264 44.5776 141.667 45.7677C141.812 44.4344 141.639 43.0857 141.161 41.8325C140.677 40.6646 139.77 39.6809 138.971 38.6713C138.011 37.4585 136.042 37.9878 135.873 39.5252C135.872 39.54 135.87 39.5549 135.869 39.5698C135.987 39.6368 136.103 39.7078 136.217 39.783C136.36 39.8784 136.471 40.0148 136.535 40.1742C136.599 40.3335 136.613 40.5085 136.576 40.6762C136.539 40.8439 136.452 40.9965 136.326 41.1139C136.201 41.2314 136.043 41.3082 135.873 41.3344L135.856 41.337C135.898 41.7648 135.973 42.1888 136.08 42.6052C136.388 43.7679 136.934 44.8542 137.682 45.796C138.431 46.7379 139.365 47.515 140.428 48.0787C140.498 48.1145 140.566 48.1503 140.635 48.1842C140.035 49.8848 139.659 51.6562 139.516 53.4538C139.435 54.5143 139.439 55.5797 139.53 56.6395L139.525 56.6019C139.296 55.4235 138.667 54.3602 137.745 53.5915C136.375 52.4664 134.44 52.0521 132.963 51.1477C132.806 51.0469 132.623 50.9931 132.436 50.9927C132.25 50.9922 132.067 51.0451 131.909 51.1452C131.752 51.2452 131.626 51.3882 131.547 51.5574C131.468 51.7265 131.44 51.9146 131.464 52.0996C131.466 52.1128 131.468 52.1259 131.47 52.1391C131.69 52.2288 131.905 52.3322 132.112 52.4485C132.231 52.5155 132.347 52.5866 132.461 52.6618C132.604 52.7572 132.714 52.8935 132.778 53.0529C132.842 53.2123 132.857 53.3873 132.82 53.555C132.782 53.7227 132.695 53.8752 132.57 53.9927C132.445 54.1101 132.287 54.1869 132.117 54.2131L132.1 54.2158C132.087 54.2176 132.076 54.2194 132.064 54.2212C132.44 55.1198 132.969 55.9469 133.625 56.6663C134.437 57.5372 135.418 58.2331 136.508 58.7113C137.598 59.1896 138.774 59.4402 139.965 59.4478H139.966C140.29 60.8519 140.758 62.2187 141.363 63.5261H146.354C146.372 63.4706 146.388 63.4133 146.404 63.3579C145.942 63.3869 145.478 63.3593 145.023 63.2756C145.393 62.8213 145.764 62.3634 146.134 61.909C146.142 61.9006 146.15 61.8916 146.157 61.8822C146.345 61.6497 146.535 61.4189 146.722 61.1864L146.723 61.1861C146.733 60.4734 146.651 59.7622 146.479 59.0704L146.479 59.0703ZM140.764 47.8283L140.767 47.8248L140.764 47.8319V47.8283ZM139.659 57.7932L139.616 57.6966C139.618 57.6269 139.618 57.5571 139.616 57.4856C139.616 57.4659 139.612 57.4462 139.612 57.4265C139.628 57.55 139.643 57.6734 139.661 57.7968L139.659 57.7932Z" fill="#2F2E41"/>
</g>
<defs>
<clipPath id="clip0_484_1666">
<rect width="190.528" height="140" fill="white" transform="translate(0.736328)"/>
</clipPath>
</defs>
</svg>
