<svg width="232" height="140" viewBox="0 0 232 140" fill="none" xmlns="http://www.w3.org/2000/svg">
<g clip-path="url(#clip0_484_1097)">
<path d="M227.987 3.87635e-09H67.2447C66.6324 0.00055677 66.0454 0.244026 65.6125 0.676964C65.1795 1.1099 64.9361 1.69693 64.9355 2.30918V111.233C64.9361 111.845 65.1795 112.432 65.6125 112.865C66.0454 113.298 66.6324 113.541 67.2447 113.542H227.987C228.321 113.542 228.651 113.47 228.954 113.33C229.257 113.19 229.526 112.986 229.743 112.732C229.761 112.712 229.778 112.691 229.793 112.668C229.931 112.5 230.043 112.311 230.124 112.109C230.241 111.832 230.3 111.534 230.299 111.233V2.30919C230.298 1.6965 230.055 1.10914 229.621 0.676147C229.188 0.243158 228.6 -3.54519e-05 227.987 3.87635e-09ZM229.64 111.233C229.64 111.555 229.545 111.87 229.367 112.138C229.209 112.375 228.994 112.568 228.742 112.7C228.509 112.82 228.25 112.883 227.987 112.883H67.2447C66.8073 112.882 66.3879 112.708 66.0787 112.399C65.7694 112.09 65.5954 111.67 65.5949 111.233V2.30919C65.5954 1.8718 65.7694 1.45248 66.0787 1.14319C66.3879 0.833912 66.8073 0.659926 67.2447 0.659394H227.987C228.425 0.659338 228.845 0.833051 229.155 1.14238C229.465 1.45171 229.639 1.87137 229.64 2.30919V111.233Z" fill="#3F3D56"/>
<path d="M229.968 9.25507H65.2642V9.9152H229.968V9.25507Z" fill="#3F3D56"/>
<path d="M70.8754 6.93138C71.9692 6.93138 72.8558 6.04473 72.8558 4.95098C72.8558 3.85724 71.9692 2.97058 70.8754 2.97058C69.7817 2.97058 68.895 3.85724 68.895 4.95098C68.895 6.04473 69.7817 6.93138 70.8754 6.93138Z" fill="#3F3D56"/>
<path d="M76.5693 6.93138C77.663 6.93138 78.5497 6.04473 78.5497 4.95098C78.5497 3.85724 77.663 2.97058 76.5693 2.97058C75.4755 2.97058 74.5889 3.85724 74.5889 4.95098C74.5889 6.04473 75.4755 6.93138 76.5693 6.93138Z" fill="#3F3D56"/>
<path d="M82.2626 6.93138C83.3564 6.93138 84.243 6.04473 84.243 4.95098C84.243 3.85724 83.3564 2.97058 82.2626 2.97058C81.1689 2.97058 80.2822 3.85724 80.2822 4.95098C80.2822 6.04473 81.1689 6.93138 82.2626 6.93138Z" fill="#3F3D56"/>
<path d="M210.437 57.1129H82.0014C80.8078 57.1116 79.6635 56.6369 78.8196 55.7929C77.9756 54.9489 77.5009 53.8046 77.4995 52.6111V25.3352C77.5009 24.1416 77.9756 22.9973 78.8196 22.1534C79.6635 21.3094 80.8078 20.8347 82.0014 20.8333H210.437C211.63 20.8347 212.774 21.3094 213.618 22.1534C214.462 22.9973 214.937 24.1416 214.938 25.3352V52.6111C214.937 53.8046 214.462 54.9489 213.618 55.7929C212.774 56.6369 211.63 57.1116 210.437 57.1129ZM82.0014 21.3629C80.9482 21.3641 79.9386 21.783 79.1939 22.5277C78.4492 23.2724 78.0303 24.282 78.0291 25.3352V52.6111C78.0303 53.6642 78.4492 54.6739 79.1939 55.4186C79.9386 56.1632 80.9482 56.5821 82.0014 56.5833H210.437C211.49 56.5821 212.499 56.1632 213.244 55.4186C213.989 54.6739 214.408 53.6642 214.409 52.6111V25.3352C214.408 24.282 213.989 23.2724 213.244 22.5277C212.499 21.783 211.49 21.3641 210.437 21.3629H82.0014Z" fill="#F2F2F2"/>
<path d="M110.337 106.369H82.0014C80.8078 106.367 79.6635 105.892 78.8196 105.048C77.9756 104.205 77.5009 103.06 77.4995 101.867V81.7407C77.5009 80.5472 77.9756 79.4029 78.8196 78.5589C79.6635 77.715 80.8078 77.2402 82.0014 77.2389H110.337C111.53 77.2402 112.674 77.715 113.518 78.5589C114.362 79.4029 114.837 80.5472 114.838 81.7407V101.867C114.837 103.06 114.362 104.205 113.518 105.048C112.674 105.892 111.53 106.367 110.337 106.369ZM82.0014 77.7685C80.9482 77.7697 79.9386 78.1886 79.1939 78.9333C78.4492 79.678 78.0303 80.6876 78.0291 81.7407V101.867C78.0303 102.92 78.4492 103.929 79.1939 104.674C79.9386 105.419 80.9482 105.838 82.0014 105.839H110.337C111.39 105.838 112.399 105.419 113.144 104.674C113.889 103.929 114.308 102.92 114.309 101.867V81.7407C114.308 80.6876 113.889 79.678 113.144 78.9333C112.399 78.1886 111.39 77.7697 110.337 77.7685H82.0014Z" fill="#F2F2F2"/>
<path d="M210.437 106.369H182.101C180.908 106.367 179.764 105.892 178.92 105.048C178.076 104.205 177.601 103.06 177.6 101.867V81.7407C177.601 80.5472 178.076 79.4029 178.92 78.5589C179.764 77.715 180.908 77.2402 182.101 77.2389H210.437C211.63 77.2402 212.774 77.715 213.618 78.5589C214.462 79.4029 214.937 80.5472 214.938 81.7407V101.867C214.937 103.06 214.462 104.205 213.618 105.048C212.774 105.892 211.63 106.367 210.437 106.369ZM182.101 77.7685C181.048 77.7697 180.039 78.1886 179.294 78.9333C178.549 79.678 178.13 80.6876 178.129 81.7407V101.867C178.13 102.92 178.549 103.929 179.294 104.674C180.039 105.419 181.048 105.838 182.101 105.839H210.437C211.49 105.838 212.499 105.419 213.244 104.674C213.989 103.929 214.408 102.92 214.409 101.867V81.7407C214.408 80.6876 213.989 79.678 213.244 78.9333C212.499 78.1886 211.49 77.7697 210.437 77.7685H182.101Z" fill="#F2F2F2"/>
<path d="M162.505 106.369H134.17C132.976 106.367 131.832 105.892 130.988 105.048C130.144 104.205 129.669 103.06 129.668 101.867V81.7407C129.669 80.5472 130.144 79.4029 130.988 78.5589C131.832 77.715 132.976 77.2402 134.17 77.2389H162.505C163.699 77.2402 164.843 77.715 165.687 78.5589C166.531 79.4029 167.006 80.5472 167.007 81.7407V101.867C167.006 103.06 166.531 104.205 165.687 105.048C164.843 105.892 163.699 106.367 162.505 106.369ZM134.17 77.7685C133.117 77.7697 132.107 78.1886 131.362 78.9333C130.618 79.678 130.199 80.6876 130.198 81.7407V101.867C130.199 102.92 130.618 103.929 131.362 104.674C132.107 105.419 133.117 105.838 134.17 105.839H162.505C163.558 105.838 164.568 105.419 165.312 104.674C166.057 103.929 166.476 102.92 166.477 101.867V81.7407C166.476 80.6876 166.057 79.678 165.312 78.9333C164.568 78.1886 163.558 77.7697 162.505 77.7685H134.17Z" fill="#F2F2F2"/>
<path d="M79.0756 22.0753L78.9497 22.5897L214.611 55.7812L214.737 55.2669L79.0756 22.0753Z" fill="#F2F2F2"/>
<path d="M213.36 22.0671L78.9507 55.3651L79.078 55.8792L213.487 22.5812L213.36 22.0671Z" fill="#F2F2F2"/>
<path d="M215.733 66.249H87.2977C86.1392 66.2477 85.0286 65.7869 84.2094 64.9678C83.3903 64.1486 82.9295 63.038 82.9282 61.8796V34.6036C82.9295 33.4452 83.3903 32.3346 84.2094 31.5154C85.0286 30.6963 86.1392 30.2355 87.2977 30.2342H215.733C216.891 30.2355 218.002 30.6963 218.821 31.5154C219.64 32.3346 220.101 33.4452 220.102 34.6036V61.8796C220.101 63.038 219.64 64.1486 218.821 64.9678C218.002 65.7869 216.891 66.2477 215.733 66.249Z" fill="white"/>
<path d="M131.444 78.4346L131.118 78.8522L165.058 105.328L165.384 104.91L131.444 78.4346Z" fill="#F2F2F2"/>
<path d="M165.228 78.4348L131.733 105.237L132.064 105.65L165.559 78.8483L165.228 78.4348Z" fill="#F2F2F2"/>
<path d="M79.2755 78.4348L78.9497 78.8524L112.89 105.328L113.216 104.911L79.2755 78.4348Z" fill="#F2F2F2"/>
<path d="M113.059 78.4348L79.5645 105.237L79.8953 105.65L113.39 78.8483L113.059 78.4348Z" fill="#F2F2F2"/>
<path d="M179.376 78.4344L179.05 78.8521L212.99 105.328L213.316 104.91L179.376 78.4344Z" fill="#F2F2F2"/>
<path d="M213.159 78.4349L179.665 105.237L179.995 105.651L213.49 78.8484L213.159 78.4349Z" fill="#F2F2F2"/>
<path d="M166.477 125.568H138.142C136.983 125.566 135.873 125.105 135.054 124.286C134.235 123.467 133.774 122.357 133.772 121.198V101.072C133.774 99.9138 134.235 98.8031 135.054 97.984C135.873 97.1648 136.983 96.7041 138.142 96.7028H166.477C167.636 96.7041 168.746 97.1648 169.565 97.984C170.384 98.8031 170.845 99.9138 170.847 101.072V121.198C170.845 122.357 170.384 123.467 169.565 124.286C168.746 125.105 167.636 125.566 166.477 125.568Z" fill="#1D4ED8"/>
<path d="M181.277 125.965H123.282C123.212 125.965 123.145 125.937 123.095 125.887C123.045 125.838 123.018 125.77 123.018 125.7C123.018 125.63 123.045 125.562 123.095 125.513C123.145 125.463 123.212 125.435 123.282 125.435H181.277C181.347 125.435 181.414 125.463 181.464 125.513C181.514 125.562 181.542 125.63 181.542 125.7C181.542 125.77 181.514 125.838 181.464 125.887C181.414 125.937 181.347 125.965 181.277 125.965Z" fill="#CCCCCC"/>
<path d="M58.6675 140H0.673018C0.602785 140 0.535428 139.972 0.485765 139.922C0.436103 139.873 0.408203 139.805 0.408203 139.735C0.408203 139.665 0.436103 139.598 0.485765 139.548C0.535428 139.498 0.602785 139.47 0.673018 139.47H58.6675C58.7377 139.47 58.805 139.498 58.8547 139.548C58.9044 139.598 58.9323 139.665 58.9323 139.735C58.9323 139.805 58.9044 139.873 58.8547 139.922C58.805 139.972 58.7377 140 58.6675 140Z" fill="#CCCCCC"/>
<path d="M156.005 109.679H148.59C148.028 109.679 147.489 109.455 147.092 109.058C146.694 108.661 146.471 108.122 146.471 107.56C146.471 106.998 146.694 106.459 147.092 106.062C147.489 105.665 148.028 105.442 148.59 105.442H156.005C156.566 105.442 157.105 105.665 157.503 106.062C157.9 106.459 158.123 106.998 158.123 107.56C158.123 108.122 157.9 108.661 157.503 109.058C157.105 109.455 156.566 109.679 156.005 109.679Z" fill="white"/>
<path d="M160.386 116.829H144.233C143.671 116.829 143.132 116.606 142.735 116.208C142.337 115.811 142.114 115.272 142.114 114.71C142.114 114.148 142.337 113.609 142.735 113.212C143.132 112.815 143.671 112.592 144.233 112.592H160.386C160.948 112.592 161.487 112.815 161.884 113.212C162.282 113.609 162.505 114.148 162.505 114.71C162.505 115.272 162.282 115.811 161.884 116.208C161.487 116.606 160.948 116.829 160.386 116.829Z" fill="white"/>
<path d="M114.838 110.208H86.5032C85.3448 110.207 84.2342 109.746 83.415 108.927C82.5959 108.108 82.1351 106.997 82.1338 105.839V85.713C82.1351 84.5545 82.5959 83.4439 83.415 82.6247C84.2342 81.8056 85.3448 81.3448 86.5032 81.3435H114.838C115.997 81.3448 117.108 81.8056 117.927 82.6247C118.746 83.4439 119.207 84.5545 119.208 85.713V105.839C119.207 106.997 118.746 108.108 117.927 108.927C117.107 109.746 115.997 110.207 114.838 110.208Z" fill="#1D4ED8"/>
<path d="M104.366 94.3194H96.951C96.3892 94.3194 95.8503 94.0962 95.453 93.6989C95.0557 93.3016 94.8325 92.7628 94.8325 92.2009C94.8325 91.6391 95.0557 91.1002 95.453 90.7029C95.8503 90.3056 96.3892 90.0824 96.951 90.0824H104.366C104.928 90.0824 105.467 90.3056 105.864 90.7029C106.261 91.1002 106.484 91.6391 106.484 92.2009C106.484 92.7628 106.261 93.3016 105.864 93.6989C105.467 94.0962 104.928 94.3194 104.366 94.3194Z" fill="white"/>
<path d="M108.748 101.469H92.5941C92.0322 101.469 91.4934 101.246 91.0961 100.849C90.6988 100.452 90.4756 99.9128 90.4756 99.3509C90.4756 98.7891 90.6988 98.2502 91.0961 97.8529C91.4934 97.4556 92.0322 97.2324 92.5941 97.2324H108.748C109.31 97.2324 109.849 97.4556 110.246 97.8529C110.643 98.2502 110.866 98.7891 110.866 99.3509C110.866 99.9128 110.643 100.452 110.246 100.849C109.849 101.246 109.31 101.469 108.748 101.469Z" fill="white"/>
<path d="M216.527 117.888H188.192C187.034 117.887 185.923 117.426 185.104 116.607C184.285 115.788 183.824 114.677 183.823 113.519V93.3926C183.824 92.2341 184.285 91.1235 185.104 90.3044C185.923 89.4852 187.034 89.0244 188.192 89.0231H216.527C217.686 89.0244 218.796 89.4852 219.616 90.3044C220.435 91.1235 220.896 92.2341 220.897 93.3926V113.519C220.896 114.677 220.435 115.788 219.616 116.607C218.796 117.426 217.686 117.887 216.527 117.888Z" fill="#E6E6E6"/>
<path d="M206.055 101.999H198.64C198.078 101.999 197.539 101.776 197.142 101.379C196.745 100.981 196.521 100.442 196.521 99.8805C196.521 99.3187 196.745 98.7798 197.142 98.3825C197.539 97.9852 198.078 97.762 198.64 97.762H206.055C206.617 97.762 207.156 97.9852 207.553 98.3825C207.95 98.7798 208.173 99.3187 208.173 99.8805C208.173 100.442 207.95 100.981 207.553 101.379C207.156 101.776 206.617 101.999 206.055 101.999Z" fill="white"/>
<path d="M210.437 109.149H194.283C193.721 109.149 193.182 108.926 192.785 108.529C192.388 108.131 192.165 107.592 192.165 107.031C192.165 106.469 192.388 105.93 192.785 105.533C193.182 105.135 193.721 104.912 194.283 104.912H210.437C210.999 104.912 211.537 105.135 211.935 105.533C212.332 105.93 212.555 106.469 212.555 107.031C212.555 107.592 212.332 108.131 211.935 108.529C211.537 108.926 210.999 109.149 210.437 109.149Z" fill="white"/>
<path d="M80.2086 91.787V88.5403L67.686 86.9957L67.6863 91.7875L80.2086 91.787Z" fill="#A0616A"/>
<path d="M83.2231 82.2789L83.2236 92.4824L79.2814 92.4826L79.2811 86.2213C79.281 85.1758 79.6963 84.173 80.4356 83.4337C81.1749 82.6943 82.1776 82.2789 83.2231 82.2789Z" fill="#2F2E41"/>
<path d="M24.4414 136.359L27.6881 136.359L29.2325 123.836L24.4409 123.837L24.4414 136.359Z" fill="#A0616A"/>
<path d="M33.9497 139.373L23.7462 139.374L23.746 135.432L30.0073 135.431C31.0528 135.431 32.0556 135.847 32.7949 136.586C33.5343 137.325 33.9497 138.328 33.9497 139.373Z" fill="#2F2E41"/>
<path d="M28.4564 131.847C28.4178 131.847 28.3788 131.845 28.3396 131.841L23.9178 131.473C23.7345 131.458 23.5562 131.406 23.3936 131.32C23.2311 131.234 23.0876 131.116 22.972 130.973C22.8563 130.83 22.7709 130.665 22.7208 130.488C22.6706 130.311 22.6569 130.125 22.6804 129.943L24.9752 112.095C24.9841 112.025 24.9841 111.955 24.9753 111.886L21.3301 83.1191C21.3061 82.929 21.3224 82.736 21.3781 82.5527C21.4337 82.3693 21.5275 82.1998 21.6531 82.0552C21.7788 81.9106 21.9336 81.7941 22.1074 81.7134C22.2811 81.6327 22.47 81.5896 22.6615 81.5868L35.5562 81.404C35.6219 81.4037 35.6875 81.4075 35.7527 81.4154L35.788 81.4252L38.2682 82.4987L74.326 86.4699C74.6538 86.5132 74.9548 86.674 75.1731 86.9223C75.3914 87.1706 75.5123 87.4897 75.5133 87.8203V92.4629C75.5133 92.6549 75.4726 92.8448 75.394 93.02C75.3154 93.1952 75.2006 93.3519 75.0572 93.4796C74.9138 93.6073 74.745 93.7033 74.5619 93.7611C74.3788 93.819 74.1855 93.8375 73.9947 93.8154L53.1638 91.3873C53.0585 91.3746 52.9517 91.3827 52.8495 91.4114L36.3768 95.9512C36.2267 95.9929 36.0914 96.0762 35.9866 96.1915C35.8818 96.3067 35.8117 96.4493 35.7844 96.6027L29.7942 130.721C29.7397 131.036 29.5755 131.322 29.3307 131.528C29.086 131.734 28.7763 131.847 28.4564 131.847Z" fill="#2F2E41"/>
<path d="M27.3996 55.3408C32.3088 55.3408 36.2885 51.3612 36.2885 46.452C36.2885 41.5427 32.3088 37.563 27.3996 37.563C22.4904 37.563 18.5107 41.5427 18.5107 46.452C18.5107 51.3612 22.4904 55.3408 27.3996 55.3408Z" fill="#2F2E41"/>
<path d="M24.2905 40.7746C26.3219 40.7746 27.9686 39.1278 27.9686 37.0964C27.9686 35.065 26.3219 33.4183 24.2905 33.4183C22.2591 33.4183 20.6123 35.065 20.6123 37.0964C20.6123 39.1278 22.2591 40.7746 24.2905 40.7746Z" fill="#2F2E41"/>
<path d="M19.3862 35.1041C19.3862 34.1949 19.723 33.318 20.3315 32.6424C20.9399 31.9669 21.777 31.5406 22.6812 31.4458C22.5539 31.4326 22.4261 31.4259 22.2981 31.4259C21.3231 31.4267 20.3884 31.8146 19.6993 32.5043C19.0101 33.194 18.623 34.1291 18.623 35.1041C18.623 36.079 19.0101 37.0141 19.6993 37.7038C20.3884 38.3935 21.3231 38.7814 22.2981 38.7822C22.4261 38.7822 22.5539 38.7756 22.6812 38.7623C21.777 38.6676 20.9399 38.2413 20.3315 37.5657C19.723 36.8902 19.3862 36.0132 19.3862 35.1041Z" fill="#2F2E41"/>
<path d="M28.4471 86.42C26.2391 86.42 23.7829 85.8086 21.226 84.1039L21.1827 84.0749L21.1707 84.0245C21.1469 83.9247 18.7944 73.9675 18.748 66.2555C18.7338 64.9013 19.0436 63.5634 19.6516 62.3533C20.2597 61.1431 21.1483 60.096 22.2434 59.2992C23.296 58.5108 24.5219 57.9856 25.8188 57.7676C27.1157 57.5495 28.4459 57.6449 29.6985 58.0458C29.864 58.0983 30.0299 58.1545 30.1963 58.2146C31.9327 58.863 33.4085 60.0631 34.3972 61.6308C35.3859 63.1986 35.833 65.0475 35.6699 66.8938C35.3344 70.9687 35.2 78.3902 38.0679 82.3112L38.135 82.403L38.0544 82.4832C37.9991 82.5383 34.0107 86.42 28.4471 86.42Z" fill="#CCCCCC"/>
<path d="M27.3742 55.7852C30.9664 55.7852 33.8784 52.8732 33.8784 49.2811C33.8784 45.689 30.9664 42.777 27.3742 42.777C23.7821 42.777 20.8701 45.689 20.8701 49.2811C20.8701 52.8732 23.7821 55.7852 27.3742 55.7852Z" fill="#A0616A"/>
<path d="M19.4077 48.8519C19.501 49.2298 19.5104 49.6236 19.4351 50.0056C19.3597 50.3875 19.2016 50.7483 18.9718 51.0625C18.7419 51.3767 18.446 51.6367 18.1048 51.8242C17.7636 52.0117 17.3854 52.122 16.997 52.1475L14.4874 61.2718L11.2471 57.5729L14.127 49.4754C14.1274 48.82 14.3682 48.1874 14.8038 47.6977C15.2394 47.208 15.8395 46.895 16.4904 46.8182C17.1413 46.7413 17.7978 46.9059 18.3355 47.2807C18.8732 47.6555 19.2547 48.2146 19.4077 48.8519Z" fill="#A0616A"/>
<path d="M9.54201 68.9569C9.13914 68.9554 8.7425 68.8573 8.38534 68.671C8.02817 68.4846 7.72088 68.2153 7.48922 67.8857C7.25755 67.5561 7.10826 67.1758 7.05385 66.7766C6.99945 66.3774 7.04151 65.971 7.17652 65.5914L11.9474 52.1862C12.0606 51.8736 12.2863 51.6145 12.5804 51.4594C12.8745 51.3044 13.2159 51.2647 13.5377 51.3481L17.0145 52.2684C17.1934 52.3158 17.3605 52.4001 17.5049 52.5159C17.6494 52.6317 17.768 52.7764 17.8532 52.9407C17.9384 53.105 17.9883 53.2854 17.9997 53.4701C18.0111 53.6549 17.9837 53.84 17.9194 54.0135L14.8532 62.2784L20.054 60.6241C20.499 60.4826 20.9685 60.4347 21.4328 60.4835C21.8972 60.5323 22.3464 60.6768 22.7522 60.9078C23.158 61.1387 23.5116 61.4512 23.7907 61.8256C24.0698 62.2 24.2683 62.628 24.3738 63.0829C24.4793 63.5378 24.4895 64.0095 24.4037 64.4685C24.3179 64.9275 24.138 65.3637 23.8753 65.7498C23.6126 66.1358 23.2728 66.4633 22.8773 66.7115C22.4819 66.9598 22.0393 67.1234 21.5774 67.1922L9.92145 68.9285C9.79586 68.9474 9.66902 68.9569 9.54201 68.9569Z" fill="#CCCCCC"/>
<path d="M28.434 48.2454C31.8196 48.2454 34.5643 46.5987 34.5643 44.5673C34.5643 42.5359 31.8196 40.8891 28.434 40.8891C25.0483 40.8891 22.3037 42.5359 22.3037 44.5673C22.3037 46.5987 25.0483 48.2454 28.434 48.2454Z" fill="#2F2E41"/>
<path d="M47.0948 88.5823C46.7191 88.4801 46.3705 88.2968 46.0733 88.0452C45.7762 87.7937 45.5378 87.4801 45.375 87.1265C45.2121 86.7729 45.1288 86.3879 45.1309 85.9986C45.1329 85.6093 45.2203 85.2252 45.3869 84.8733L38.6338 78.2441L43.4416 77.211L49.1174 83.6646C49.6899 83.9836 50.1256 84.5015 50.3418 85.1203C50.558 85.739 50.5397 86.4156 50.2904 87.0218C50.041 87.6279 49.578 88.1216 48.9891 88.4092C48.4001 88.6968 47.7261 88.7584 47.0948 88.5823Z" fill="#A0616A"/>
<path d="M43.9771 84.9754C43.7963 84.976 43.6176 84.9364 43.4538 84.8596C43.2901 84.7829 43.1454 84.6708 43.0302 84.5314L35.6582 75.5874L29.8882 64.5063C29.7076 63.9494 29.6631 63.3573 29.7583 62.7796C29.8536 62.202 30.0858 61.6555 30.4356 61.186C30.7712 60.7299 31.2118 60.3616 31.7202 60.1121C32.2285 59.8627 32.7895 59.7396 33.3556 59.7534C33.6417 59.7594 33.9266 59.792 34.2067 59.8508C34.7795 59.9795 35.3111 60.2492 35.7533 60.6355C36.1954 61.0218 36.5341 61.5124 36.7385 62.0627L41.6263 73.546L47.4843 80.9354C47.6841 81.189 47.7761 81.511 47.7404 81.8319C47.7047 82.1527 47.5441 82.4466 47.2933 82.65L44.7442 84.7057C44.527 84.8808 44.2562 84.976 43.9771 84.9754Z" fill="#CCCCCC"/>
<path d="M231.327 118.285H173.332C173.262 118.285 173.195 118.257 173.145 118.208C173.095 118.158 173.067 118.091 173.067 118.02C173.067 117.95 173.095 117.883 173.145 117.833C173.195 117.783 173.262 117.756 173.332 117.756H231.327C231.397 117.756 231.464 117.783 231.514 117.833C231.564 117.883 231.591 117.95 231.591 118.02C231.591 118.091 231.564 118.158 231.514 118.208C231.464 118.257 231.397 118.285 231.327 118.285Z" fill="#CCCCCC"/>
<path d="M180.319 65.7818V66.1167H123.728V65.7662L124.033 65.3352L141.974 40.0064C142.057 39.8913 142.166 39.7976 142.292 39.7329C142.419 39.6682 142.559 39.6345 142.701 39.6345C142.843 39.6345 142.983 39.6682 143.109 39.7329C143.235 39.7976 143.345 39.8913 143.428 40.0064L155.458 56.9909L164.022 45.0068C164.105 44.8922 164.215 44.7989 164.341 44.7346C164.467 44.6703 164.606 44.6368 164.748 44.6368C164.889 44.6368 165.029 44.6703 165.155 44.7346C165.281 44.7989 165.39 44.8922 165.473 45.0068L180.014 65.3534L180.319 65.7818Z" fill="#1D4ED8"/>
<path d="M123.611 48.9295C127.249 48.9295 130.198 45.9804 130.198 42.3426C130.198 38.7048 127.249 35.7558 123.611 35.7558C119.973 35.7558 117.024 38.7048 117.024 42.3426C117.024 45.9804 119.973 48.9295 123.611 48.9295Z" fill="#1D4ED8"/>
<path d="M215.733 66.3815H87.2978C86.1042 66.3801 84.9599 65.9054 84.1159 65.0615C83.272 64.2175 82.7972 63.0732 82.7959 61.8796V34.6037C82.7972 33.4102 83.272 32.2659 84.1159 31.4219C84.9599 30.5779 86.1042 30.1032 87.2978 30.1019H215.733C216.926 30.1032 218.071 30.5779 218.915 31.4219C219.759 32.2659 220.233 33.4102 220.235 34.6037V61.8796C220.233 63.0732 219.759 64.2175 218.915 65.0615C218.071 65.9054 216.926 66.3801 215.733 66.3815ZM87.2978 30.6315C86.2446 30.6327 85.235 31.0516 84.4903 31.7963C83.7456 32.5409 83.3267 33.5506 83.3255 34.6037V61.8796C83.3267 62.9328 83.7456 63.9424 84.4903 64.6871C85.235 65.4318 86.2446 65.8507 87.2978 65.8519H215.733C216.786 65.8507 217.796 65.4318 218.54 64.6871C219.285 63.9424 219.704 62.9328 219.705 61.8796V34.6037C219.704 33.5506 219.285 32.5409 218.54 31.7963C217.796 31.0516 216.786 30.6327 215.733 30.6315H87.2978Z" fill="#3F3D56"/>
</g>
<defs>
<clipPath id="clip0_484_1097">
<rect width="231.183" height="140" fill="white" transform="translate(0.408203)"/>
</clipPath>
</defs>
</svg>
