<svg width="158" height="140" viewBox="0 0 158 140" fill="none" xmlns="http://www.w3.org/2000/svg">
<g clip-path="url(#clip0_484_751)">
<path d="M31.084 139.441C32.6647 138.105 33.6248 135.995 33.373 133.941C33.1212 131.887 31.5617 129.999 29.5387 129.563C27.5158 129.127 25.2097 130.334 24.5953 132.31C24.2571 128.5 23.8675 124.531 21.8419 121.286C20.0078 118.348 16.831 116.246 13.3882 115.87C9.94534 115.494 6.32046 116.915 4.17328 119.632C2.0261 122.349 1.50037 126.3 3.0042 129.42C4.11202 131.718 6.15301 133.428 8.29146 134.82C15.1139 139.259 23.577 140.759 31.6299 139.574L31.084 139.441Z" fill="#F2F2F2"/>
<path d="M7.57786 116.993C10.4186 119.307 13.0248 121.895 15.3585 124.719C17.6926 127.541 19.7476 130.582 21.4945 133.801C22.4709 135.606 23.3481 137.463 24.122 139.364C24.2798 139.751 23.6519 139.919 23.4959 139.537C22.125 136.185 20.429 132.977 18.4321 129.956C16.4449 126.946 14.1705 124.137 11.6408 121.566C10.21 120.113 8.70031 118.74 7.11869 117.452C6.79451 117.189 7.25635 116.732 7.57787 116.993H7.57786Z" fill="white"/>
<path d="M144.244 57.9255H122.621C122.295 57.9251 121.982 57.7954 121.751 57.5647C121.521 57.334 121.391 57.0213 121.391 56.695V54.1007C121.391 53.7745 121.521 53.4617 121.751 53.231C121.982 53.0004 122.295 52.8706 122.621 52.8702H144.244C144.57 52.8706 144.883 53.0004 145.114 53.231C145.345 53.4617 145.474 53.7745 145.475 54.1007V56.695C145.474 57.0213 145.345 57.334 145.114 57.5647C144.883 57.7954 144.57 57.9251 144.244 57.9255Z" fill="#1D4ED8"/>
<path d="M141.327 53.9585L132.111 45.6497C131.913 45.4706 131.658 45.3668 131.39 45.3566C131.123 45.3463 130.861 45.4302 130.649 45.5935L110.482 52.2522C110.195 52.3475 109.957 52.553 109.82 52.8236C109.684 53.0941 109.661 53.4076 109.756 53.6954L110.569 56.159C110.616 56.3017 110.69 56.4336 110.788 56.5474C110.886 56.6612 111.006 56.7545 111.14 56.822C111.274 56.8895 111.42 56.9299 111.57 56.9408C111.719 56.9517 111.87 56.933 112.012 56.8856L130.512 50.7775L138.059 57.5825C138.268 57.7721 138.54 57.8769 138.823 57.8765C138.843 57.8765 138.863 57.876 138.883 57.8749C139.033 57.8676 139.18 57.8306 139.316 57.7661C139.451 57.7015 139.572 57.6107 139.673 57.499L141.41 55.5722C141.613 55.347 141.718 55.0506 141.702 54.7481C141.686 54.4456 141.551 54.1616 141.327 53.9585Z" fill="#1D4ED8"/>
<path d="M39.2846 116.09C39.005 116.091 38.7369 116.202 38.5392 116.4C38.3415 116.597 38.2303 116.865 38.23 117.145V138.768C38.2303 139.048 38.3415 139.316 38.5392 139.514C38.7369 139.711 39.005 139.823 39.2846 139.823H41.8791C42.1587 139.823 42.4268 139.711 42.6245 139.514C42.8222 139.316 42.9334 139.048 42.9338 138.768V117.145C42.9334 116.865 42.8222 116.597 42.6245 116.4C42.4268 116.202 42.1587 116.091 41.8791 116.09H39.2846Z" fill="#1D4ED8"/>
<path d="M47.362 139.999H44.7676C44.4413 139.998 44.1286 139.868 43.8979 139.638C43.6672 139.407 43.5375 139.094 43.5371 138.768V117.145C43.5375 116.819 43.6672 116.506 43.8979 116.275C44.1286 116.045 44.4413 115.915 44.7676 115.915H47.362C47.6882 115.915 48.0009 116.045 48.2316 116.275C48.4623 116.506 48.592 116.819 48.5924 117.145V138.768C48.592 139.094 48.4623 139.407 48.2316 139.638C48.0009 139.868 47.6882 139.998 47.362 139.999Z" fill="#1D4ED8"/>
<path d="M51.6097 118.821C51.6097 118.821 52.5899 127.636 42.6944 127.336C32.7989 127.037 36.6489 118.376 36.6489 118.376C36.6489 118.376 38.7168 116.751 43.9442 118.323C49.1715 119.894 51.6097 118.821 51.6097 118.821Z" fill="#CCCCCC"/>
<path d="M47.3573 103.821C46.8138 103.822 46.2844 103.648 45.8478 103.324C45.4111 103 45.0905 102.545 44.9335 102.024C44.7764 101.504 44.7913 100.947 44.976 100.435C45.1606 99.9243 45.5052 99.4862 45.9585 99.1863L62.9084 87.9682C63.0431 87.879 63.1941 87.8172 63.3527 87.7864C63.5114 87.7556 63.6745 87.7563 63.8328 87.7885C63.9912 87.8207 64.1416 87.8838 64.2756 87.9742C64.4096 88.0646 64.5244 88.1805 64.6136 88.3152L66.0454 90.4786C66.2252 90.7509 66.2896 91.0833 66.2245 91.403C66.1595 91.7226 65.9703 92.0034 65.6985 92.1838L48.7486 103.402C48.3362 103.676 47.8522 103.821 47.3573 103.821Z" fill="#1D4ED8"/>
<path d="M44.2796 93.4363C49.2307 93.4363 53.2443 89.4227 53.2443 84.4716C53.2443 79.5206 49.2307 75.507 44.2796 75.507C39.3286 75.507 35.3149 79.5206 35.3149 84.4716C35.3149 89.4227 39.3286 93.4363 44.2796 93.4363Z" fill="#1D4ED8"/>
<path d="M44.2861 88.2349C44.8673 88.2187 45.5905 88.1985 46.1476 87.7915C46.3135 87.6654 46.4499 87.5045 46.547 87.3201C46.6442 87.1357 46.6999 86.9323 46.7101 86.7241C46.7202 86.5761 46.6959 86.4279 46.6392 86.2909C46.5825 86.1538 46.4948 86.0318 46.3831 85.9343C46.0921 85.6884 45.6672 85.6307 45.2092 85.7653L45.6837 82.298L45.3354 82.2502L44.7776 86.3265L45.0685 86.1931C45.4057 86.0384 45.8686 85.9597 46.1562 86.2028C46.2268 86.2663 46.2819 86.3453 46.317 86.4336C46.3521 86.5218 46.3664 86.617 46.3588 86.7117C46.3503 86.8667 46.3085 87.018 46.2363 87.1553C46.164 87.2926 46.0631 87.4128 45.9402 87.5076C45.5067 87.8243 44.9302 87.8652 44.2764 87.8835L44.2861 88.2349Z" fill="#2F2E41"/>
<path d="M49.2997 82.597H47.4062V82.9486H49.2997V82.597Z" fill="#2F2E41"/>
<path d="M43.3236 82.597H41.4302V82.9486H43.3236V82.597Z" fill="#2F2E41"/>
<path d="M35.2245 120.678C35.2245 120.678 34.4505 94.3619 45.2867 96.168C56.1229 97.974 51.6078 123.388 51.6078 123.388C51.6078 123.388 49.2858 128.032 43.6097 122.872C37.9335 117.711 35.2245 120.678 35.2245 120.678Z" fill="#2F2E41"/>
<path d="M39.2236 76.8998C40.9679 75.7154 43.1694 76.52 44.8643 77.3652C46.5104 78.186 48.3652 79.2305 50.2277 78.4398C50.9551 78.131 51.5463 77.527 51.649 76.7189C51.7714 75.7563 51.1893 74.855 50.5419 74.2005C49.8382 73.5272 49.0185 72.987 48.1222 72.6059C47.2436 72.2105 46.3181 71.9291 45.3682 71.7684C43.4864 71.4433 41.5542 71.5725 39.7325 72.1452C37.9108 72.7179 36.2523 73.7176 34.8951 75.061C33.5822 76.4001 32.5678 78.0021 31.9187 79.7615C31.2696 81.5209 31.0004 83.3978 31.1291 85.2687C31.2772 87.263 31.9141 89.2965 33.1919 90.862C34.3908 92.3308 36.1859 93.3635 38.1019 93.4497C38.5714 93.4717 39.0418 93.4335 39.5015 93.336C39.8325 93.2654 39.974 93.7736 39.6417 93.8445C37.6462 94.27 35.579 93.6378 33.9963 92.3929C32.3301 91.0823 31.3079 89.0983 30.8597 87.0541C30.002 83.1422 31.0765 78.9323 33.5388 75.8005C34.7547 74.2406 36.3298 72.9977 38.1297 72.1779C39.9887 71.3478 42.0194 70.9752 44.0519 71.0911C46.0789 71.1929 48.0453 71.816 49.761 72.9001C51.2957 73.8919 53.0253 75.9943 51.7737 77.8545C51.3057 78.5501 50.5287 78.9738 49.722 79.1479C48.7964 79.328 47.8387 79.2446 46.9581 78.9071C44.9531 78.1991 43.0988 76.6171 40.8546 76.8569C40.3655 76.9076 39.8965 77.0788 39.4897 77.3551C39.2082 77.5462 38.9441 77.0895 39.2236 76.8998H39.2236Z" fill="#2F2E41"/>
<path d="M115.815 36.0697C115.409 35.8089 115.089 35.4335 114.897 34.9911C114.704 34.5487 114.647 34.0591 114.733 33.5842C114.818 33.1093 115.043 32.6705 115.378 32.3232C115.713 31.9759 116.143 31.7357 116.615 31.6331L136.476 27.3096C136.772 27.2455 137.081 27.3014 137.336 27.4652C137.591 27.6289 137.77 27.8871 137.835 28.183L137.749 28.2017L137.835 28.183L138.387 30.718C138.419 30.8647 138.421 31.0161 138.395 31.1638C138.368 31.3114 138.313 31.4524 138.232 31.5787C138.151 31.7049 138.045 31.8139 137.922 31.8995C137.799 31.9851 137.66 32.0456 137.513 32.0775L117.653 36.4009C117.566 36.4197 117.479 36.4338 117.392 36.4433C116.839 36.5036 116.282 36.3717 115.815 36.0697Z" fill="#1D4ED8"/>
<path d="M114.189 34.6367C114.177 34.5896 114.167 34.542 114.157 34.4938C113.994 33.6337 114.292 32.7281 114.997 31.9437C115.763 31.1291 116.762 30.5723 117.858 30.3502L126.912 28.3692C127.062 28.3365 127.216 28.3341 127.366 28.3621C127.516 28.3901 127.659 28.4479 127.787 28.5321C127.914 28.6162 128.023 28.7251 128.108 28.8522C128.192 28.9794 128.251 29.1221 128.279 29.2722L129.069 33.4335C129.126 33.726 129.066 34.0291 128.902 34.2778C128.738 34.5264 128.482 34.7005 128.191 34.7627L119.079 36.7561C118.668 36.8468 118.249 36.893 117.828 36.8938C116.033 36.8938 114.539 36.0194 114.189 34.6367Z" fill="#2F2E41"/>
<path d="M115.773 25.3255C120.724 25.3255 124.738 21.3118 124.738 16.3608C124.738 11.4097 120.724 7.39612 115.773 7.39612C110.822 7.39612 106.809 11.4097 106.809 16.3608C106.809 21.3118 110.822 25.3255 115.773 25.3255Z" fill="#1D4ED8"/>
<path d="M123.338 19.5967C123.92 19.5805 124.643 19.5604 125.2 19.1533C125.366 19.0272 125.502 18.8663 125.599 18.6819C125.696 18.4975 125.752 18.2941 125.762 18.0859C125.772 17.9379 125.748 17.7897 125.691 17.6527C125.635 17.5156 125.547 17.3936 125.435 17.2961C125.144 17.0502 124.719 16.9925 124.261 17.1271L124.736 13.6598L124.388 13.6121L123.83 17.6883L124.121 17.5549C124.458 17.4002 124.921 17.3215 125.208 17.5646C125.279 17.6281 125.334 17.7071 125.369 17.7954C125.404 17.8836 125.419 17.9788 125.411 18.0735C125.403 18.2285 125.361 18.3798 125.289 18.5171C125.216 18.6544 125.115 18.7746 124.992 18.8694C124.559 19.1861 123.982 19.227 123.329 19.2453L123.338 19.5967Z" fill="#2F2E41"/>
<path d="M122.375 13.9588H120.482V14.3104H122.375V13.9588Z" fill="#2F2E41"/>
<path d="M115.146 7.36959C115.08 6.30988 114.787 5.27672 114.287 4.34006C113.787 3.4034 113.092 2.5851 112.248 1.94059C111.376 1.29503 110.37 0.854248 109.305 0.651023C108.239 0.447798 107.142 0.487353 106.093 0.766747C105.052 1.03737 104.086 1.54088 103.267 2.23934C102.448 2.93779 101.799 3.81295 101.368 4.79884C100.934 5.7774 100.718 6.83844 100.733 7.90878C100.781 9.07273 101.07 10.214 101.583 11.2604C102.111 12.4121 102.778 13.4926 103.357 14.6185C103.927 15.7287 104.419 16.8774 104.829 18.0561C105.664 20.458 106.156 22.9654 106.292 25.5045C106.507 29.5071 106.124 35.3506 101.606 36.8867C100.457 37.2773 99.2174 37.35 98.0127 37.3468C96.7439 37.3623 95.4784 37.2141 94.2475 36.9058C92.1143 36.3362 90.0894 34.9987 89.1804 32.9206C88.971 32.4407 88.8306 31.9336 88.7633 31.4144C88.7444 31.272 88.8981 31.152 89.027 31.1507C89.0964 31.1523 89.1625 31.1806 89.2116 31.2297C89.2607 31.2788 89.289 31.3449 89.2906 31.4144C89.5849 33.6288 91.4301 35.327 93.4336 36.0904C94.6042 36.5147 95.8341 36.7526 97.0785 36.7955C98.3171 36.8581 99.6031 36.8484 100.816 36.5634C101.895 36.3297 102.878 35.7714 103.631 34.9633C104.302 34.1904 104.803 33.2847 105.1 32.3051C105.813 30.1281 105.888 27.7345 105.763 25.4655C105.621 22.9347 105.118 20.4372 104.269 18.0488C103.84 16.843 103.323 15.6704 102.722 14.5407C102.134 13.4357 101.482 12.3619 100.987 11.2102C100.503 10.1515 100.238 9.00666 100.205 7.84342C100.201 6.76913 100.415 5.70518 100.834 4.71579C101.245 3.72247 101.862 2.82742 102.644 2.08942C103.426 1.35142 104.355 0.787162 105.371 0.433692C106.404 0.0740824 107.501 -0.0655518 108.591 0.0237522C109.681 0.113056 110.741 0.429326 111.702 0.95226C112.615 1.47765 113.416 2.17898 114.058 3.01571C114.699 3.85244 115.168 4.80798 115.438 5.82709C115.569 6.33185 115.648 6.84872 115.674 7.36959C115.691 7.70877 115.164 7.70783 115.146 7.36959H115.146Z" fill="#2F2E41"/>
<path d="M113.393 7.5547C113.249 6.57664 112.759 5.68267 112.012 5.0353C111.218 4.36965 110.2 4.03175 109.165 4.09041C108.826 4.10737 108.827 3.57999 109.165 3.56307C110.29 3.51237 111.393 3.87674 112.267 4.58688C113.14 5.29701 113.722 6.30337 113.901 7.41451C113.952 7.7465 113.444 7.88963 113.393 7.5547Z" fill="#2F2E41"/>
<path d="M112.285 7.58525C112.205 7.34178 112.224 7.07635 112.34 6.84735C112.455 6.61835 112.657 6.44455 112.9 6.36416L115.404 5.53746C115.647 5.45707 115.913 5.47669 116.142 5.592C116.371 5.70731 116.544 5.90887 116.625 6.15234C116.705 6.3958 116.686 6.66123 116.57 6.89023C116.455 7.11922 116.253 7.29304 116.01 7.37343L113.506 8.20013C113.386 8.23998 113.258 8.25569 113.132 8.24635C113.005 8.23702 112.882 8.20282 112.768 8.14572C112.655 8.08862 112.554 8.00973 112.471 7.91356C112.388 7.8174 112.325 7.70584 112.285 7.58526V7.58525Z" fill="#2F2E41"/>
<path d="M131.837 19.7662C131.675 19.8004 131.527 19.8795 131.408 19.9944C131.289 20.1092 131.205 20.2553 131.165 20.4158C131.125 20.5763 131.132 20.7448 131.183 20.9018C131.235 21.0589 131.33 21.1983 131.457 21.3039L135.326 24.5187C135.382 24.5665 135.429 24.6249 135.463 24.6906C135.495 24.7569 135.513 24.8291 135.516 24.9027L135.758 30.7983C135.762 30.9912 135.831 31.1771 135.954 31.326C136.077 31.4749 136.246 31.5782 136.434 31.6193L136.441 31.6208C136.627 31.6663 136.824 31.6482 136.998 31.5694C137.173 31.4906 137.316 31.3555 137.406 31.1858L138.801 28.6407C138.848 28.5569 138.917 28.4874 139 28.4396C139.083 28.3919 139.178 28.3677 139.274 28.3696C139.344 28.37 139.414 28.3849 139.479 28.4136C139.543 28.4422 139.601 28.4839 139.649 28.536L146.346 35.6823C146.443 35.786 146.563 35.8647 146.697 35.9115C146.831 35.9583 146.974 35.9717 147.114 35.9508C147.254 35.93 147.387 35.8759 147.501 35.7931C147.616 35.7103 147.709 35.6012 147.772 35.4749L157.592 15.828C157.667 15.68 157.698 15.5142 157.682 15.3494C157.666 15.1847 157.604 15.0277 157.503 14.8966C157.402 14.7656 157.266 14.6657 157.111 14.6084C156.955 14.5512 156.787 14.539 156.625 14.5731L156.307 14.6396L131.837 19.7662L131.837 19.7662ZM131.68 21.0339C131.604 20.9703 131.547 20.8865 131.517 20.7922C131.486 20.6978 131.482 20.5967 131.506 20.5004C131.53 20.4041 131.581 20.3165 131.652 20.2476C131.724 20.1787 131.813 20.1314 131.91 20.1109L156.372 14.9862L156.698 14.9178C156.795 14.8978 156.896 14.9055 156.988 14.9399C157.081 14.9744 157.163 15.0342 157.223 15.1126C157.284 15.191 157.321 15.2848 157.331 15.3834C157.341 15.482 157.322 15.5813 157.279 15.67L147.458 35.317C147.42 35.3929 147.365 35.4584 147.296 35.5081C147.227 35.5578 147.147 35.5901 147.063 35.6023C146.979 35.6145 146.893 35.6063 146.813 35.5782C146.733 35.5502 146.661 35.5033 146.603 35.4414L139.905 28.2952C139.84 28.2237 139.763 28.1641 139.677 28.1188L156.694 15.7733C156.761 15.7258 156.81 15.6563 156.831 15.577C156.852 15.4977 156.845 15.4135 156.81 15.339C156.776 15.2644 156.717 15.2042 156.642 15.1688C156.568 15.1334 156.484 15.125 156.405 15.145C156.385 15.1496 156.366 15.1561 156.348 15.1645L135.686 24.3877C135.646 24.3364 135.6 24.2898 135.55 24.2486L131.68 21.0339V21.0339Z" fill="#CCCCCC"/>
<path d="M131.837 19.7662C131.675 19.8004 131.527 19.8795 131.408 19.9944C131.289 20.1092 131.205 20.2553 131.165 20.4158C131.125 20.5763 131.132 20.7448 131.183 20.9018C131.235 21.0589 131.33 21.1983 131.457 21.3039L135.326 24.5187C135.382 24.5665 135.429 24.6249 135.463 24.6906C135.495 24.7569 135.513 24.8291 135.516 24.9027L135.758 30.7983C135.762 30.9912 135.831 31.1771 135.954 31.326C136.077 31.4749 136.246 31.5782 136.434 31.6193L136.441 31.6208C136.627 31.6663 136.824 31.6482 136.998 31.5694C137.173 31.4906 137.316 31.3555 137.406 31.1858L138.801 28.6407C138.848 28.5569 138.917 28.4874 139 28.4396C139.083 28.3919 139.178 28.3677 139.274 28.3696C139.344 28.37 139.414 28.3849 139.479 28.4136C139.543 28.4422 139.601 28.4839 139.649 28.536L146.346 35.6823C146.443 35.786 146.563 35.8647 146.697 35.9115C146.831 35.9583 146.974 35.9717 147.114 35.9508C147.254 35.93 147.387 35.8759 147.501 35.7931C147.616 35.7103 147.709 35.6012 147.772 35.4749L157.592 15.828C157.667 15.68 157.698 15.5142 157.682 15.3494C157.666 15.1847 157.604 15.0277 157.503 14.8966C157.402 14.7656 157.266 14.6657 157.111 14.6084C156.955 14.5512 156.787 14.539 156.625 14.5731L156.307 14.6396L131.837 19.7662L131.837 19.7662ZM131.68 21.0339C131.604 20.9703 131.547 20.8865 131.517 20.7922C131.486 20.6978 131.482 20.5967 131.506 20.5004C131.53 20.4041 131.581 20.3165 131.652 20.2476C131.724 20.1787 131.813 20.1314 131.91 20.1109L156.372 14.9862L156.698 14.9178C156.795 14.8978 156.896 14.9055 156.988 14.9399C157.081 14.9744 157.163 15.0342 157.223 15.1126C157.284 15.191 157.321 15.2848 157.331 15.3834C157.341 15.482 157.322 15.5813 157.279 15.67L147.458 35.317C147.42 35.3929 147.365 35.4584 147.296 35.5081C147.227 35.5578 147.147 35.5901 147.063 35.6023C146.979 35.6145 146.893 35.6063 146.813 35.5782C146.733 35.5502 146.661 35.5033 146.603 35.4414L139.905 28.2952C139.84 28.2237 139.763 28.1641 139.677 28.1188C139.554 28.053 139.417 28.0182 139.278 28.0173C139.259 28.0164 139.239 28.0173 139.219 28.0181L139.217 28.0177C139.068 28.0255 138.923 28.0712 138.796 28.1507C138.67 28.2301 138.565 28.3405 138.493 28.4715L137.097 31.0184C137.044 31.1206 136.958 31.2019 136.853 31.2489C136.747 31.296 136.629 31.3061 136.518 31.2776L136.514 31.2768C136.401 31.253 136.299 31.1912 136.225 31.1017C136.151 31.0122 136.11 30.9003 136.109 30.7844L135.867 24.8888C135.865 24.8265 135.856 24.7646 135.841 24.7042L135.841 24.7025C135.826 24.6446 135.805 24.5885 135.778 24.535C135.753 24.4828 135.722 24.4334 135.686 24.3877C135.646 24.3364 135.6 24.2898 135.55 24.2486L131.68 21.0339V21.0339Z" fill="#3F3D56"/>
<path d="M135.686 24.3877L156.348 15.1645C156.366 15.1561 156.385 15.1496 156.405 15.145C156.484 15.1249 156.568 15.1334 156.643 15.1688C156.717 15.2042 156.776 15.2644 156.81 15.339C156.845 15.4135 156.852 15.4977 156.831 15.577C156.81 15.6563 156.761 15.7258 156.694 15.7733L139.677 28.1188L139.377 28.3371L139.171 28.0524L139.217 28.0178L139.219 28.0181L156.487 15.4882L135.841 24.7025L135.841 24.7043L135.751 24.7433L135.607 24.4222L135.686 24.3877Z" fill="#3F3D56"/>
<path d="M109.87 52.3748C109.614 52.375 109.368 52.477 109.187 52.6582C109.006 52.8395 108.904 53.0852 108.903 53.3415V56.8571C108.904 57.1134 109.006 57.3591 109.187 57.5404C109.368 57.7216 109.614 57.8236 109.87 57.8239H121.12C121.376 57.8236 121.622 57.7216 121.803 57.5404C121.984 57.3591 122.086 57.1134 122.087 56.8571V53.3415C122.086 53.0852 121.984 52.8395 121.803 52.6582C121.622 52.477 121.376 52.375 121.12 52.3748H109.87Z" fill="#2F2E41"/>
<path d="M108.544 34.5421C108.007 36.0989 107.906 37.7732 108.254 39.383C109.148 43.7659 108.815 48.9473 107.937 54.4841C107.937 55.0666 108.342 55.5388 108.843 55.5388H122.587C123.087 55.5388 123.493 55.0666 123.493 54.4841V38.0489C123.493 33.1922 120.191 29.2178 116.062 29.0069C115.947 28.9999 115.831 28.9963 115.715 28.9963C112.493 28.9963 109.723 31.2868 108.544 34.5421Z" fill="#2F2E41"/>
<path d="M112.921 55.8729V35.547C112.921 34.8999 113.178 34.2793 113.635 33.8218C114.093 33.3642 114.714 33.1072 115.361 33.1072C116.008 33.1072 116.628 33.3642 117.086 33.8218C117.543 34.2793 117.8 34.8999 117.8 35.547V55.8729C117.8 56.1758 117.68 56.4662 117.465 56.6804C117.251 56.8946 116.961 57.0151 116.658 57.0155H114.063C113.761 57.0151 113.47 56.8946 113.256 56.6804C113.042 56.4662 112.921 56.1758 112.921 55.8729Z" fill="#1D4ED8"/>
<path d="M117.094 41.3144L113.406 41.1521C113.104 41.1384 112.819 41.0053 112.614 40.7819C112.41 40.5584 112.302 40.263 112.315 39.9604L112.574 34.0775C112.59 33.6848 112.684 33.2993 112.85 32.9429C113.015 32.5865 113.25 32.2662 113.539 32.0005C113.829 31.7348 114.168 31.5288 114.537 31.3943C114.906 31.2598 115.299 31.1995 115.691 31.2168C116.084 31.234 116.469 31.3286 116.825 31.495C117.181 31.6615 117.501 31.8965 117.766 32.1866C118.031 32.4768 118.236 32.8163 118.37 33.1859C118.503 33.5555 118.563 33.9478 118.545 34.3404L118.286 40.2233C118.273 40.5171 118.147 40.7946 117.935 40.998C117.722 41.2015 117.44 41.3152 117.146 41.3155C117.128 41.3155 117.111 41.3152 117.094 41.3144Z" fill="#2F2E41"/>
<path d="M123.493 45.08C123.93 45.08 124.284 43.9389 124.284 42.5312C124.284 41.1235 123.93 39.9824 123.493 39.9824C123.056 39.9824 122.702 41.1235 122.702 42.5312C122.702 43.9389 123.056 45.08 123.493 45.08Z" fill="#2F2E41"/>
<path d="M80.1435 74.2591C82.5705 74.2591 84.5379 72.2916 84.5379 69.8647C84.5379 67.4377 82.5705 65.4702 80.1435 65.4702C77.7165 65.4702 75.749 67.4377 75.749 69.8647C75.749 72.2916 77.7165 74.2591 80.1435 74.2591Z" fill="#CCCCCC"/>
<path d="M123.601 74.2591H89.8515C89.4786 74.2591 89.1209 74.1109 88.8572 73.8472C88.5935 73.5835 88.4453 73.2258 88.4453 72.8529C88.4453 72.4799 88.5935 72.1222 88.8572 71.8585C89.1209 71.5948 89.4786 71.4467 89.8515 71.4467H123.601C123.974 71.4467 124.332 71.5948 124.595 71.8585C124.859 72.1222 125.007 72.4799 125.007 72.8529C125.007 73.2258 124.859 73.5835 124.595 73.8472C124.332 74.1109 123.974 74.2591 123.601 74.2591Z" fill="#CCCCCC"/>
<path d="M114.46 68.2827H89.8515C89.4786 68.2827 89.1209 68.1345 88.8572 67.8708C88.5935 67.6071 88.4453 67.2494 88.4453 66.8764C88.4453 66.5035 88.5935 66.1458 88.8572 65.8821C89.1209 65.6184 89.4786 65.4702 89.8515 65.4702H114.46C114.833 65.4702 115.191 65.6184 115.455 65.8821C115.718 66.1458 115.867 66.5035 115.867 66.8764C115.867 67.2494 115.718 67.6071 115.455 67.8708C115.191 68.1345 114.833 68.2827 114.46 68.2827Z" fill="#CCCCCC"/>
<path d="M80.1435 90.958C82.5705 90.958 84.5379 88.9905 84.5379 86.5635C84.5379 84.1365 82.5705 82.1691 80.1435 82.1691C77.7165 82.1691 75.749 84.1365 75.749 86.5635C75.749 88.9905 77.7165 90.958 80.1435 90.958Z" fill="#CCCCCC"/>
<path d="M123.601 90.958H89.8515C89.4786 90.958 89.1209 90.8098 88.8572 90.5461C88.5935 90.2824 88.4453 89.9247 88.4453 89.5517C88.4453 89.1788 88.5935 88.8211 88.8572 88.5574C89.1209 88.2937 89.4786 88.1455 89.8515 88.1455H123.601C123.974 88.1455 124.332 88.2937 124.595 88.5574C124.859 88.8211 125.007 89.1788 125.007 89.5517C125.007 89.9247 124.859 90.2824 124.595 90.5461C124.332 90.8098 123.974 90.958 123.601 90.958Z" fill="#CCCCCC"/>
<path d="M114.46 84.9815H89.8515C89.4786 84.9815 89.1209 84.8334 88.8572 84.5696C88.5935 84.3059 88.4453 83.9482 88.4453 83.5753C88.4453 83.2023 88.5935 82.8447 88.8572 82.5809C89.1209 82.3172 89.4786 82.1691 89.8515 82.1691H114.46C114.833 82.1691 115.191 82.3172 115.455 82.5809C115.718 82.8447 115.867 83.2023 115.867 83.5753C115.867 83.9482 115.718 84.3059 115.455 84.5696C115.191 84.8334 114.833 84.9815 114.46 84.9815Z" fill="#CCCCCC"/>
<path d="M80.1435 107.833C82.5705 107.833 84.5379 105.865 84.5379 103.438C84.5379 101.011 82.5705 99.0438 80.1435 99.0438C77.7165 99.0438 75.749 101.011 75.749 103.438C75.749 105.865 77.7165 107.833 80.1435 107.833Z" fill="#CCCCCC"/>
<path d="M123.601 107.833H89.8515C89.4786 107.833 89.1209 107.685 88.8572 107.421C88.5935 107.157 88.4453 106.799 88.4453 106.426C88.4453 106.054 88.5935 105.696 88.8572 105.432C89.1209 105.168 89.4786 105.02 89.8515 105.02H123.601C123.974 105.02 124.332 105.168 124.595 105.432C124.859 105.696 125.007 106.054 125.007 106.426C125.007 106.799 124.859 107.157 124.595 107.421C124.332 107.685 123.974 107.833 123.601 107.833Z" fill="#CCCCCC"/>
<path d="M114.46 101.856H89.8515C89.4786 101.856 89.1209 101.708 88.8572 101.444C88.5935 101.181 88.4453 100.823 88.4453 100.45C88.4453 100.077 88.5935 99.7194 88.8572 99.4557C89.1209 99.192 89.4786 99.0438 89.8515 99.0438H114.46C114.833 99.0438 115.191 99.192 115.455 99.4557C115.718 99.7194 115.867 100.077 115.867 100.45C115.867 100.823 115.718 101.181 115.455 101.444C115.191 101.708 114.833 101.856 114.46 101.856Z" fill="#CCCCCC"/>
<path d="M135.357 115.743H65.3979C64.6056 115.742 63.8461 115.427 63.2859 114.866C62.7257 114.306 62.4106 113.547 62.4097 112.754V60.5484C62.4106 59.7562 62.7257 58.9966 63.2859 58.4364C63.8461 57.8762 64.6056 57.5611 65.3979 57.5602H135.357C136.15 57.5611 136.909 57.8762 137.469 58.4364C138.03 58.9966 138.345 59.7562 138.346 60.5484V112.754C138.345 113.547 138.03 114.306 137.469 114.866C136.909 115.427 136.15 115.742 135.357 115.743ZM65.3979 57.9117C64.6989 57.9125 64.0287 58.1906 63.5344 58.6849C63.0401 59.1792 62.762 59.8494 62.7612 60.5484V112.754C62.762 113.453 63.0401 114.124 63.5344 114.618C64.0287 115.112 64.6989 115.39 65.3979 115.391H135.357C136.057 115.39 136.727 115.112 137.221 114.618C137.715 114.124 137.993 113.453 137.994 112.754V60.5484C137.993 59.8494 137.715 59.1792 137.221 58.6849C136.727 58.1906 136.057 57.9125 135.357 57.9117H65.3979Z" fill="#3F3D56"/>
<path d="M63.6404 68.2827C69.0769 68.2827 73.484 63.8756 73.484 58.4391C73.484 53.0027 69.0769 48.5956 63.6404 48.5956C58.204 48.5956 53.7969 53.0027 53.7969 58.4391C53.7969 63.8756 58.204 68.2827 63.6404 68.2827Z" fill="#1D4ED8"/>
<path d="M62.6645 62.1941C62.443 62.1946 62.2274 62.1229 62.0502 61.9901L62.0392 61.9818L59.7259 60.2107C59.6188 60.1286 59.5289 60.0262 59.4613 59.9094C59.3937 59.7926 59.3498 59.6636 59.3321 59.5298C59.3144 59.396 59.3232 59.26 59.3581 59.1296C59.3929 58.9992 59.4531 58.8769 59.5352 58.7698C59.6173 58.6627 59.7197 58.5728 59.8365 58.5052C59.9533 58.4376 60.0823 58.3937 60.2161 58.376C60.3499 58.3583 60.4859 58.3671 60.6163 58.402C60.7467 58.4368 60.8689 58.497 60.9761 58.5791L62.4745 59.728L66.0154 55.1101C66.0975 55.003 66.1999 54.9132 66.3168 54.8456C66.4336 54.7781 66.5626 54.7343 66.6964 54.7166C66.8302 54.6989 66.9662 54.7078 67.0966 54.7427C67.227 54.7776 67.3492 54.8378 67.4563 54.9199L67.4343 54.9498L67.4569 54.9204C67.6729 55.0864 67.8143 55.3314 67.85 55.6015C67.8856 55.8717 67.8127 56.1449 67.6471 56.3613L63.4821 61.793C63.3858 61.9182 63.2619 62.0195 63.1201 62.0891C62.9783 62.1586 62.8224 62.1946 62.6645 62.1941Z" fill="white"/>
<path d="M63.5648 117.296C63.3918 117.296 63.2207 117.259 63.063 117.188H63.0629L44.5176 108.869C44.2145 108.733 43.9412 108.539 43.7131 108.297C43.4851 108.056 43.3069 107.772 43.1886 107.462C43.0704 107.151 43.0144 106.821 43.024 106.489C43.0336 106.157 43.1084 105.83 43.2444 105.527C43.3803 105.224 43.5746 104.951 43.8162 104.723C44.0577 104.495 44.3418 104.317 44.6522 104.199C44.9626 104.081 45.2932 104.025 45.6252 104.035C45.9571 104.045 46.2838 104.12 46.5867 104.256L65.1321 112.576C65.2795 112.642 65.4125 112.736 65.5234 112.854C65.6343 112.972 65.721 113.11 65.7784 113.261C65.8359 113.412 65.8631 113.573 65.8584 113.734C65.8537 113.896 65.8173 114.055 65.7511 114.202L64.6893 116.569C64.5917 116.786 64.4337 116.97 64.2342 117.098C64.0348 117.227 63.8023 117.296 63.5648 117.296Z" fill="#1D4ED8"/>
<path d="M67.4611 140H0.489743C0.443123 140 0.398414 139.981 0.365449 139.949C0.332484 139.916 0.313965 139.871 0.313965 139.824C0.313965 139.778 0.332484 139.733 0.365449 139.7C0.398414 139.667 0.443123 139.648 0.489743 139.648H67.4611C67.5077 139.648 67.5524 139.667 67.5854 139.7C67.6183 139.733 67.6369 139.778 67.6369 139.824C67.6369 139.871 67.6183 139.916 67.5854 139.949C67.5524 139.981 67.5077 140 67.4611 140Z" fill="#3F3D56"/>
</g>
<defs>
<clipPath id="clip0_484_751">
<rect width="157.372" height="140" fill="white" transform="translate(0.313965)"/>
</clipPath>
</defs>
</svg>
