<svg width="170" height="140" viewBox="0 0 170 140" fill="none" xmlns="http://www.w3.org/2000/svg">
<g clip-path="url(#clip0_484_1610)">
<path d="M111.597 0H62.6377C55.023 0 48.8501 6.17293 48.8501 13.7876V125.666C48.8501 133.28 55.023 139.453 62.6377 139.453H111.597C119.212 139.453 125.385 133.28 125.385 125.666V13.7876C125.385 6.17293 119.212 0 111.597 0Z" fill="#3F3D56"/>
<path d="M124.094 13.7885V125.666C124.09 128.979 122.772 132.155 120.43 134.498C118.087 136.841 114.91 138.159 111.597 138.162H62.6384C59.3252 138.159 56.1488 136.841 53.8061 134.498C51.4633 132.155 50.1454 128.979 50.1416 125.666V13.7885C50.1454 10.4754 51.4633 7.29898 53.8061 4.95621C56.1488 2.61344 59.3252 1.29558 62.6384 1.29175H69.0406V3.50328C69.0406 4.50448 69.4384 5.46466 70.1463 6.17261C70.8543 6.88057 71.8145 7.27832 72.8157 7.27837H101.42C102.421 7.27832 103.381 6.88057 104.089 6.17261C104.797 5.46466 105.195 4.50448 105.195 3.50328V1.29175H111.597C114.91 1.29558 118.087 2.61344 120.43 4.95621C122.772 7.29898 124.09 10.4754 124.094 13.7885Z" fill="white"/>
<path d="M48.4977 28.2898C48.2487 28.2895 48.01 28.1904 47.834 28.0144C47.6579 27.8383 47.5589 27.5997 47.5586 27.3507V25.4725C47.5586 25.2235 47.6575 24.9846 47.8336 24.8085C48.0098 24.6324 48.2486 24.5334 48.4977 24.5334C48.7467 24.5334 48.9856 24.6324 49.1617 24.8085C49.3378 24.9846 49.4368 25.2235 49.4368 25.4725V27.3507C49.4365 27.5997 49.3374 27.8383 49.1614 28.0144C48.9853 28.1904 48.7466 28.2895 48.4977 28.2898Z" fill="#3F3D56"/>
<path d="M48.4977 37.9203C48.2487 37.92 48.01 37.821 47.834 37.645C47.6579 37.4689 47.5589 37.2302 47.5586 36.9812V31.8113C47.5586 31.5622 47.6575 31.3234 47.8336 31.1472C48.0098 30.9711 48.2486 30.8722 48.4977 30.8722C48.7467 30.8722 48.9856 30.9711 49.1617 31.1472C49.3378 31.3234 49.4368 31.5622 49.4368 31.8113V36.9812C49.4365 37.2302 49.3374 37.4689 49.1614 37.645C48.9853 37.821 48.7466 37.92 48.4977 37.9203Z" fill="#3F3D56"/>
<path d="M48.4977 45.6627C48.2487 45.6624 48.01 45.5634 47.834 45.3873C47.6579 45.2113 47.5589 44.9726 47.5586 44.7236V39.5536C47.5586 39.3046 47.6575 39.0657 47.8336 38.8896C48.0098 38.7135 48.2486 38.6146 48.4977 38.6146C48.7467 38.6146 48.9856 38.7135 49.1617 38.8896C49.3378 39.0657 49.4368 39.3046 49.4368 39.5536V44.7236C49.4365 44.9726 49.3374 45.2113 49.1614 45.3873C48.9853 45.5634 48.7466 45.6624 48.4977 45.6627Z" fill="#3F3D56"/>
<path d="M125.502 41.4369C125.253 41.4366 125.014 41.3375 124.838 41.1615C124.662 40.9854 124.563 40.7467 124.563 40.4978V27.8828C124.563 27.6337 124.662 27.3949 124.838 27.2188C125.014 27.0427 125.253 26.9437 125.502 26.9437C125.751 26.9437 125.99 27.0427 126.166 27.2188C126.342 27.3949 126.441 27.6337 126.441 27.8828V40.4978C126.441 40.7467 126.342 40.9854 126.166 41.1615C125.99 41.3375 125.751 41.4366 125.502 41.4369Z" fill="#3F3D56"/>
<path d="M89.1348 4.30703H81.8569C81.7013 4.30703 81.552 4.24519 81.4419 4.13512C81.3319 4.02505 81.27 3.87576 81.27 3.7201C81.27 3.56444 81.3319 3.41516 81.4419 3.30509C81.552 3.19502 81.7013 3.13318 81.8569 3.13318H89.1348C89.2905 3.13318 89.4398 3.19502 89.5498 3.30509C89.6599 3.41516 89.7217 3.56444 89.7217 3.7201C89.7217 3.87576 89.6599 4.02505 89.5498 4.13512C89.4398 4.24519 89.2905 4.30703 89.1348 4.30703Z" fill="white"/>
<path d="M92.8909 4.18963C93.1502 4.18963 93.3605 3.97941 93.3605 3.72009C93.3605 3.46077 93.1502 3.25055 92.8909 3.25055C92.6316 3.25055 92.4214 3.46077 92.4214 3.72009C92.4214 3.97941 92.6316 4.18963 92.8909 4.18963Z" fill="white"/>
<path d="M149.307 133.588C149.479 133.594 149.648 133.548 149.792 133.454C149.936 133.361 150.048 133.226 150.113 133.067C150.178 132.908 150.192 132.733 150.154 132.566C150.116 132.399 150.027 132.247 149.9 132.132C149.878 132.048 149.862 131.988 149.84 131.905C150.001 131.487 150.282 131.126 150.648 130.868C151.015 130.611 151.45 130.469 151.897 130.461C152.345 130.452 152.785 130.578 153.161 130.821C153.537 131.064 153.832 131.414 154.007 131.826C155.021 134.137 156.327 136.528 155.713 139.09C159.844 130.115 158.304 119.015 152.002 111.434C150.27 110.502 148.859 108.83 148.477 106.876C149.332 107.157 150.388 106.454 149.738 105.562C149.457 105.222 149.174 104.884 148.893 104.543C152.097 101.065 156.006 106.447 152.487 111.134C153.667 112.585 154.691 114.154 155.545 115.818C155.334 114.045 155.548 112.247 156.168 110.573C156.798 109.012 157.993 107.691 159.044 106.337C160.322 104.687 162.992 105.417 163.185 107.494C161.995 107.897 161.857 109.623 163.224 109.846C162.904 113.716 160.412 117.293 156.949 119.022C158.268 122.615 158.806 126.447 158.527 130.264C159.099 125.801 163.873 124.673 167.201 122.87C167.412 122.732 167.66 122.658 167.913 122.657C168.165 122.657 168.413 122.73 168.625 122.868C168.837 123.006 169.004 123.202 169.106 123.434C169.208 123.665 169.241 123.921 169.2 124.171C168.74 124.363 168.301 124.6 167.888 124.879C167.694 125.012 167.547 125.201 167.465 125.421C167.384 125.641 167.372 125.881 167.432 126.108C167.492 126.334 167.621 126.537 167.8 126.688C167.98 126.839 168.202 126.93 168.436 126.95C166.79 131.138 162.458 133.981 157.982 134.008C157.57 135.881 156.964 137.707 156.174 139.455L149.53 139.518C149.506 139.445 149.484 139.368 149.462 139.295C150.077 139.328 150.694 139.285 151.299 139.168C149.654 137.257 148.386 136.286 149.307 133.588L149.307 133.588Z" fill="#F2F2F2"/>
<path d="M20.7111 133.588C20.5397 133.594 20.3705 133.548 20.2264 133.454C20.0823 133.361 19.9704 133.226 19.9057 133.067C19.8411 132.908 19.8268 132.733 19.8649 132.566C19.9029 132.399 19.9915 132.247 20.1186 132.132C20.1405 132.048 20.1562 131.988 20.1781 131.905C20.0181 131.487 19.7368 131.126 19.3704 130.868C19.0039 130.611 18.569 130.469 18.1213 130.461C17.6736 130.452 17.2336 130.578 16.8577 130.821C16.4818 131.064 16.187 131.414 16.0113 131.826C14.9976 134.137 13.6914 136.528 14.3053 139.09C10.1748 130.115 11.7142 119.015 18.0171 111.434C19.7482 110.502 21.16 108.83 21.542 106.876C20.687 107.157 19.631 106.454 20.2803 105.562C20.5614 105.222 20.845 104.884 21.1261 104.543C17.9214 101.065 14.0124 106.447 17.5316 111.134C16.352 112.585 15.3272 114.154 14.474 115.818C14.6842 114.045 14.4706 112.247 13.8505 110.573C13.2208 109.012 12.0252 107.691 10.9742 106.337C9.69637 104.687 7.02703 105.417 6.83319 107.494C8.02316 107.897 8.16182 109.623 6.79411 109.846C7.11493 113.716 9.60705 117.293 13.0699 119.022C11.7508 122.615 11.2126 126.447 11.4911 130.264C10.9195 125.801 6.14512 124.673 2.81772 122.87C2.60617 122.732 2.35888 122.658 2.106 122.657C1.85313 122.657 1.60562 122.73 1.39365 122.868C1.18168 123.006 1.01443 123.202 0.912282 123.434C0.810139 123.665 0.777525 123.921 0.818419 124.171C1.27821 124.363 1.71778 124.6 2.13066 124.879C2.3241 125.012 2.47176 125.201 2.55338 125.421C2.635 125.641 2.64659 125.881 2.58656 126.108C2.52654 126.334 2.39783 126.537 2.21809 126.688C2.03835 126.839 1.81637 126.93 1.58258 126.95C3.22858 131.138 7.56018 133.981 12.0365 134.008C12.4489 135.881 13.0548 137.707 13.8446 139.455L20.4882 139.518C20.5127 139.445 20.5349 139.368 20.557 139.295C19.9417 139.328 19.3247 139.285 18.7197 139.168C20.365 137.257 21.6326 136.286 20.7113 133.588L20.7111 133.588Z" fill="#F2F2F2"/>
<path d="M66.2431 6.82548H59.9043C59.593 6.82548 59.2944 6.70181 59.0743 6.48167C58.8541 6.26153 58.7305 5.96296 58.7305 5.65163C58.7305 5.34031 58.8541 5.04173 59.0743 4.82159C59.2944 4.60146 59.593 4.47778 59.9043 4.47778H66.2431C66.5544 4.47778 66.853 4.60146 67.0731 4.82159C67.2933 5.04173 67.417 5.34031 67.417 5.65163C67.417 5.96296 67.2933 6.26153 67.0731 6.48167C66.853 6.70181 66.5544 6.82548 66.2431 6.82548Z" fill="#E6E6E6"/>
<path d="M107.797 6.70808C108.381 6.70808 108.854 6.23509 108.854 5.65162C108.854 5.06815 108.381 4.59515 107.797 4.59515C107.214 4.59515 106.741 5.06815 106.741 5.65162C106.741 6.23509 107.214 6.70808 107.797 6.70808Z" fill="#E6E6E6"/>
<path d="M111.084 6.70808C111.668 6.70808 112.141 6.23509 112.141 5.65162C112.141 5.06815 111.668 4.59515 111.084 4.59515C110.501 4.59515 110.028 5.06815 110.028 5.65162C110.028 6.23509 110.501 6.70808 111.084 6.70808Z" fill="#E6E6E6"/>
<path d="M114.371 6.70808C114.954 6.70808 115.427 6.23509 115.427 5.65162C115.427 5.06815 114.954 4.59515 114.371 4.59515C113.787 4.59515 113.314 5.06815 113.314 5.65162C113.314 6.23509 113.787 6.70808 114.371 6.70808Z" fill="#E6E6E6"/>
<path d="M107.059 23.2321H67.2183C66.4465 23.2332 65.7067 23.5402 65.161 24.0859C64.6152 24.6317 64.3082 25.3715 64.3071 26.1433V52.0407C64.3082 52.8125 64.6152 53.5523 65.161 54.098C65.7067 54.6437 66.4465 54.9508 67.2183 54.9518H107.059C107.831 54.9512 108.571 54.6443 109.116 54.0985C109.662 53.5527 109.969 52.8126 109.97 52.0407V26.1433C109.969 25.3714 109.662 24.6313 109.116 24.0855C108.571 23.5397 107.831 23.2328 107.059 23.2321Z" fill="#F2F2F2"/>
<path d="M94.5862 34.2878C90.9858 40.6535 87.0127 46.8011 82.6877 52.6984H76.4399C80.5322 47.713 84.6275 42.7275 88.7258 37.7421C89.9015 36.3066 91.1775 34.8028 92.9411 34.2195L94.5862 34.2878Z" fill="#3F3D56"/>
<path d="M86.283 33.2671C85.6313 33.9461 85.007 34.6524 84.4191 35.3861C83.1249 36.9446 81.8489 38.5168 80.5684 40.0844C79.7709 41.0596 78.9734 42.0349 78.1851 43.0101C77.9347 42.8493 77.697 42.6695 77.4742 42.4723C76.215 41.3794 75.4339 39.8368 75.2984 38.1749C75.163 36.5131 75.6838 34.8642 76.7493 33.5818C77.8149 32.2993 79.3403 31.4852 80.9989 31.314C82.6574 31.1427 84.3171 31.6279 85.6222 32.6655C85.8574 32.849 86.0783 33.0501 86.283 33.2671Z" fill="#1D4ED8"/>
<path d="M109.97 32.5266V33.4728L109.547 33.3178L103.601 31.1439C101.664 30.4372 99.7317 29.6296 97.7315 29.1201C95.9913 28.6223 94.1432 28.646 92.4163 29.1882C90.877 29.7577 89.4684 30.6321 88.275 31.7589C87.7468 32.2473 87.235 32.7473 86.7396 33.2662C86.5776 33.4376 86.4156 33.6089 86.256 33.7803C85.777 34.3015 85.3145 34.8344 84.8755 35.3861C83.5819 36.945 82.3048 38.518 81.0253 40.0839C80.2271 41.0605 79.4289 42.0348 78.64 43.0091C76.0059 46.2325 73.3875 49.4621 70.7847 52.6981C70.4341 52.6941 70.0851 52.65 69.7446 52.5666C72.3999 49.2681 75.0676 45.9782 77.7479 42.6969C77.809 42.6217 77.87 42.5466 77.931 42.4715C78.2456 42.0794 78.5673 41.685 78.8865 41.2929C80.2224 39.6566 81.559 38.0218 82.8964 36.3886C83.8684 35.2007 84.8333 34.008 85.8803 32.8811C85.9437 32.8084 86.0095 32.7379 86.0775 32.6652C86.1785 32.5572 86.2795 32.4515 86.3828 32.3412C88.6577 29.9911 91.496 27.9134 94.8955 27.8571C96.8957 27.8266 98.8279 28.4604 100.687 29.1295C102.69 29.855 104.685 30.5922 106.686 31.3246L109.97 32.5266Z" fill="#3F3D56"/>
<path d="M110.907 112.13H63.3284C62.5567 112.129 61.8168 111.822 61.2711 111.277C60.7253 110.731 60.4184 109.991 60.4175 109.219V102.807C60.4184 102.035 60.7253 101.295 61.2711 100.75C61.8168 100.204 62.5567 99.8971 63.3284 99.8962H110.907C111.678 99.8971 112.418 100.204 112.964 100.75C113.51 101.295 113.817 102.035 113.817 102.807V109.219C113.817 109.991 113.51 110.731 112.964 111.277C112.418 111.822 111.678 112.129 110.907 112.13Z" fill="#F2F2F2"/>
<path d="M110.907 79.2626H63.3284C62.5567 79.2617 61.8168 78.9547 61.2711 78.409C60.7253 77.8633 60.4184 77.1234 60.4175 76.3516V69.9394C60.4184 69.1676 60.7253 68.4277 61.2711 67.882C61.8168 67.3363 62.5567 67.0293 63.3284 67.0284H110.907C111.678 67.0293 112.418 67.3363 112.964 67.882C113.51 68.4277 113.817 69.1676 113.817 69.9394V76.3516C113.817 77.1234 113.51 77.8633 112.964 78.409C112.418 78.9547 111.678 79.2617 110.907 79.2626Z" fill="#F2F2F2"/>
<path d="M110.907 95.6964H63.3284C62.5567 95.6955 61.8168 95.3885 61.2711 94.8428C60.7253 94.2971 60.4184 93.5572 60.4175 92.7854V86.3732C60.4184 85.6015 60.7253 84.8616 61.2711 84.3158C61.8168 83.7701 62.5567 83.4632 63.3284 83.4623H110.907C111.678 83.4632 112.418 83.7701 112.964 84.3158C113.51 84.8616 113.817 85.6015 113.817 86.3732V92.7854C113.817 93.5572 113.51 94.2971 112.964 94.8428C112.418 95.3885 111.678 95.6955 110.907 95.6964Z" fill="#F2F2F2"/>
<path d="M92.898 104.916H78.8795C78.7132 104.916 78.5537 104.85 78.4361 104.732C78.3185 104.615 78.2524 104.455 78.2524 104.289C78.2524 104.122 78.3185 103.963 78.4361 103.845C78.5537 103.728 78.7132 103.662 78.8795 103.662H92.898C93.0644 103.662 93.2239 103.728 93.3415 103.845C93.4591 103.963 93.5251 104.122 93.5251 104.289C93.5251 104.455 93.4591 104.615 93.3415 104.732C93.2239 104.85 93.0644 104.916 92.898 104.916Z" fill="white"/>
<path d="M106.381 108.365H78.7228C78.5565 108.365 78.397 108.299 78.2794 108.181C78.1618 108.064 78.0957 107.904 78.0957 107.738C78.0957 107.571 78.1618 107.412 78.2794 107.294C78.397 107.177 78.5565 107.111 78.7228 107.111H106.381C106.547 107.111 106.707 107.177 106.824 107.294C106.942 107.412 107.008 107.571 107.008 107.738C107.008 107.904 106.942 108.064 106.824 108.181C106.707 108.299 106.547 108.365 106.381 108.365Z" fill="white"/>
<path d="M71.4321 110.218C73.7543 110.218 75.6367 108.335 75.6367 106.013C75.6367 103.691 73.7543 101.809 71.4321 101.809C69.11 101.809 67.2275 103.691 67.2275 106.013C67.2275 108.335 69.11 110.218 71.4321 110.218Z" fill="white"/>
<path d="M70.4949 111.693C70.0659 111.492 69.5755 111.467 69.1281 111.622C68.6808 111.778 68.3118 112.102 68.0997 112.525C68.0579 112.612 68.0234 112.702 67.9965 112.795L61.6649 113.173L60.7266 116.453L69.344 114.997C69.7359 115.079 70.144 115.029 70.5044 114.855C70.8649 114.68 71.1575 114.391 71.3365 114.033C71.4364 113.828 71.495 113.606 71.509 113.379C71.5229 113.151 71.492 112.923 71.4178 112.708C71.3437 112.492 71.2278 112.294 71.0769 112.123C70.9259 111.952 70.7428 111.813 70.538 111.713C70.5238 111.706 70.5094 111.699 70.4949 111.693Z" fill="#FFB6B6"/>
<path d="M56.5196 95.5123C56.1024 95.3416 55.6533 95.2628 55.2029 95.2811C54.7524 95.2995 54.3112 95.4146 53.9093 95.6187C53.5073 95.8228 53.1541 96.111 52.8735 96.4639C52.5929 96.8167 52.3916 97.2258 52.2832 97.6634L50.5425 104.693L50.8699 116.991C50.8699 116.991 59.956 118.735 61.4813 117.614C63.0066 116.493 62.8634 115.659 63.0066 116.493C63.1498 117.328 63.8045 117.678 63.8136 117.346C63.8227 117.014 63.8968 117.071 64.2769 116.971C64.657 116.871 66.3346 116.252 66.3346 116.252L66.4097 112.746C66.4097 112.746 63.6363 111.695 62.9634 112.008C62.2905 112.322 63.1066 112.842 62.2905 112.322C61.4745 111.801 61.3853 110.158 61.2457 111.639C61.1062 113.12 60.6977 113.396 60.0859 112.737C59.474 112.079 56.6393 112.499 56.6393 112.499L58.4432 98.8287C58.5339 98.1411 58.3944 97.4428 58.0464 96.8428C57.6984 96.2428 57.1615 95.775 56.5196 95.5123Z" fill="#1D4ED8"/>
<path d="M117.708 131.982L117.804 129.393L107.861 127.792L107.72 131.614L117.708 131.982Z" fill="#FFB6B6"/>
<path d="M115.903 132.762L115.809 128.616L117.582 128.681L120.443 124.848C120.584 124.659 120.783 124.52 121.009 124.451C121.235 124.382 121.477 124.387 121.7 124.466C121.922 124.545 122.114 124.692 122.247 124.888C122.38 125.083 122.447 125.316 122.438 125.552L122.257 130.477L120.472 131.261L122.213 131.658L122.144 133.515L115.903 132.762Z" fill="#2F2E41"/>
<path d="M61.749 137.921L93.2418 134.259C93.2418 134.259 106.841 135.044 110.032 132.968L113.397 132.544L113.579 127.601C113.579 127.601 111.522 127.616 110.339 127.065C109.156 126.514 109.978 125.839 108.85 126.503C107.722 127.166 107.841 127.246 106.969 126.941C106.097 126.636 66.1076 125.001 66.1076 125.001L61.749 137.921Z" fill="#2F2E41"/>
<path d="M103.248 135.776L105.079 133.942L98.8789 126.006L96.1763 128.712L103.248 135.776Z" fill="#FFB6B6"/>
<path d="M101.395 135.12L104.145 132.016L105.4 133.27L110.105 132.406C110.337 132.363 110.577 132.396 110.79 132.499C111.002 132.603 111.176 132.771 111.286 132.98C111.396 133.189 111.436 133.428 111.401 133.662C111.365 133.895 111.256 134.112 111.089 134.279L107.606 137.766L105.764 137.127L106.771 138.602L105.458 139.916L101.395 135.12Z" fill="#2F2E41"/>
<path d="M49.3242 120.673L49.6373 127.951C50.0059 136.519 59.4411 141.704 66.7574 137.231C66.8923 137.148 67.0276 137.063 67.1633 136.974C67.1633 136.974 69.937 136.23 69.8528 135.05C69.7686 133.87 70.4462 133.296 71.0458 133.618C71.6454 133.94 79.4966 122.797 79.4966 122.797C79.4966 122.797 95.8088 130.934 99.4073 132.85L103.204 131.815C103.204 131.815 104.633 132.49 104.119 131.514C103.604 130.538 103.512 131.005 103.353 129.942C103.195 128.878 102.791 127.56 102.545 127.615C102.3 127.67 82.3653 113.718 82.3653 113.718C82.3653 113.718 79.1177 110.431 75.0892 112.601C75.0053 112.92 75.077 112.931 75.077 112.931L61.7692 123.775L59.8889 120.204L49.3242 120.673Z" fill="#2F2E41"/>
<path d="M58.2688 93.9323L52.563 91.2582L50.8548 94.2305C50.8548 94.2305 46.267 100.777 46.2005 105.501C46.1339 110.224 46.9481 111.628 46.9481 111.628C46.9481 111.628 44.97 113.107 45.9591 114.011C46.9481 114.915 49.1377 115.305 47.456 115.697C45.7743 116.089 46.2005 120.056 48.0786 120.761C49.9568 121.465 60.0434 121.459 60.0434 121.459C59.9528 121.151 59.9461 120.825 60.0241 120.514C60.1021 120.203 60.262 119.918 60.4871 119.69C61.2691 118.906 61.9734 119.469 61.2691 118.248C60.5648 117.028 59.3909 117.732 60.33 116.089C61.2691 114.445 61.2687 113.954 61.2687 113.954C61.2687 113.954 63.1831 110.311 60.2996 106.358C60.1238 106.118 60.2716 106.108 60.2716 106.108L57.9431 98.3055L58.2688 93.9323Z" fill="#1D4ED8"/>
<path d="M49.0732 82.6885C49.1215 83.8937 48.362 85.6012 47.9879 86.6309C47.588 87.7317 49.3212 89.1929 50.4306 89.5129C50.4884 89.1315 50.6786 88.7827 50.9679 88.5276C50.888 88.8911 50.881 89.2668 50.9474 89.6329L60.326 91.768C62.0132 89.8142 63.7097 87.0053 63.3396 83.6176C63.4282 82.9743 63.3248 82.3192 63.0425 81.7344C62.7601 81.1497 62.3113 80.6614 61.7523 80.3308L57.011 77.5299C54.9943 77.0708 52.4546 76.7936 50.998 78.0414C50.3472 78.6205 49.8359 79.3393 49.5026 80.1442C49.1692 80.949 49.0224 81.8188 49.0732 82.6885Z" fill="#2F2E41"/>
<path d="M57.4563 90.7358C60.4385 90.7358 62.856 88.3183 62.856 85.3361C62.856 82.3539 60.4385 79.9364 57.4563 79.9364C54.4742 79.9364 52.0566 82.3539 52.0566 85.3361C52.0566 88.3183 54.4742 90.7358 57.4563 90.7358Z" fill="#FFB6B6"/>
<path d="M51.1307 82.4513L50.8701 83.5959L55.4255 84.633C55.4295 84.4015 55.4814 84.1733 55.5778 83.9628C55.6742 83.7523 55.813 83.564 55.9857 83.4097C55.8874 83.8585 55.8986 84.3244 56.0184 84.7679C58.4751 86.1465 60.6894 86.6349 62.6749 86.2834C62.9439 86.3446 63.2263 86.2965 63.4598 86.1496C63.6933 86.0026 63.8589 85.769 63.9201 85.5C64.719 81.9908 62.6261 78.4041 59.1341 77.5331C58.2853 77.3209 57.4026 77.2802 56.5379 77.4136C55.6732 77.5469 54.8438 77.8516 54.0984 78.3097C53.353 78.7677 52.7065 79.37 52.1969 80.0812C51.6873 80.7924 51.3248 81.5982 51.1307 82.4513V82.4513Z" fill="#2F2E41"/>
<path d="M53.794 74.8998C54.3947 74.7694 55.0303 74.801 55.5734 74.3941L55.2173 75.2117C56.2047 74.9411 57.2575 75.0463 58.1719 75.5068C58.4438 75.6287 58.6757 75.825 58.8408 76.0731C58.9295 76.2229 58.9835 76.3907 58.9987 76.5642C59.014 76.7377 58.9901 76.9123 58.9288 77.0753C58.8704 77.2152 58.7835 77.3413 58.6737 77.4457C58.5638 77.55 58.4333 77.6303 58.2907 77.6814C58.0379 77.7574 57.773 77.7851 57.5099 77.7631C56.4013 77.7373 55.2927 77.7115 54.1841 77.6856C53.7616 77.7119 53.3394 77.6298 52.9575 77.4473C52.7545 77.3219 52.5925 77.1399 52.4914 76.9238C52.3903 76.7076 52.3545 76.4666 52.3884 76.2304C52.4942 75.4872 53.1934 75.0302 53.794 74.8998Z" fill="#2F2E41"/>
<path d="M83.0849 117.219C83.072 117.204 83.0572 117.19 83.0407 117.179C83.0004 117.132 82.9512 117.094 82.8961 117.066L82.5009 116.854L79.8778 113.942C79.7259 113.863 79.5493 113.846 79.3852 113.895L79.3785 113.897L78.2547 114.244L77.2883 114.544L75.9384 114.963L66.7433 117.81L60.6992 119.681C60.5358 119.733 60.3993 119.847 60.3189 119.998C60.2386 120.15 60.2209 120.326 60.2697 120.491C60.2981 120.581 60.3451 120.665 60.4077 120.736L60.6001 120.95L61.0035 121.399L61.9381 123.336L62.1974 123.626C62.2801 123.718 62.3873 123.785 62.5064 123.818C62.6256 123.851 62.7518 123.85 62.8703 123.815L82.7822 118.278C82.8856 118.244 82.9792 118.186 83.0548 118.107C83.1303 118.029 83.1855 117.934 83.2154 117.829C83.2453 117.725 83.249 117.614 83.2263 117.508C83.2035 117.402 83.155 117.303 83.0849 117.219Z" fill="#CCCCCC"/>
<path d="M81.9028 88.412L81.5172 88.4745C81.4115 88.492 81.317 88.5506 81.2544 88.6375L81.0845 88.8751L79.5521 92.707C79.4897 92.7946 79.4646 92.9034 79.4824 93.0095L79.662 94.1012L78.9834 113.588C79.0005 113.689 79.0547 113.78 79.1352 113.843L82.1104 117.823L82.1799 117.878L82.3297 117.995C82.4066 118.055 82.5019 118.085 82.5989 118.081L82.8518 118.069C82.9092 118.066 82.9654 118.051 83.0166 118.025C83.0678 117.999 83.1129 117.962 83.1489 117.917C83.1852 117.873 83.2115 117.821 83.226 117.766C83.2406 117.71 83.2431 117.652 83.2332 117.596L82.3701 88.7454C82.3527 88.6394 82.2938 88.5447 82.2066 88.4821C82.1193 88.4195 82.0107 88.3942 81.9048 88.4116L81.9028 88.412Z" fill="#CCCCCC"/>
<path d="M81.2571 89.9261L79.8997 94.0611L79.3745 110.578L81.4874 112.456L81.2571 89.9261Z" fill="#1D4ED8"/>
<path d="M70.7601 115.121C70.331 114.92 69.8406 114.895 69.3933 115.051C68.946 115.206 68.577 115.53 68.3648 115.954C68.323 116.04 68.2885 116.13 68.2616 116.223L61.9301 116.601L60.9917 119.882L69.6091 118.426C70.0011 118.507 70.4091 118.457 70.7696 118.283C71.13 118.108 71.4226 117.82 71.6016 117.461C71.8034 117.048 71.8327 116.571 71.683 116.136C71.5332 115.701 71.2168 115.343 70.8032 115.141C70.7889 115.134 70.7745 115.127 70.7601 115.121Z" fill="#FFB6B6"/>
<path d="M56.7842 98.9406C56.367 98.7699 55.9179 98.691 55.4675 98.7093C55.0171 98.7277 54.5759 98.8428 54.1739 99.0469C53.772 99.251 53.4187 99.5393 53.1381 99.8921C52.8575 100.245 52.6562 100.654 52.5479 101.092L50.8071 108.121L51.1346 120.419C51.1346 120.419 60.2206 122.163 61.746 121.042C63.2713 119.921 63.1281 119.087 63.2713 119.922C63.4145 120.756 64.0692 121.106 64.0783 120.774C64.0874 120.442 64.1614 120.499 64.5415 120.399C64.9216 120.299 66.5993 119.681 66.5993 119.681L66.6744 116.174C66.6744 116.174 63.9009 115.123 63.2281 115.436C62.5552 115.75 63.3713 116.271 62.5552 115.75C61.7391 115.23 61.6499 113.587 61.5104 115.067C61.3709 116.548 60.9624 116.824 60.3505 116.165C59.7387 115.507 56.904 115.927 56.904 115.927L58.7078 102.257C58.7985 101.569 58.659 100.871 58.311 100.271C57.963 99.6711 57.4262 99.2032 56.7842 98.9406Z" fill="#1D4ED8"/>
<path d="M0.756349 139.721C0.756239 139.757 0.763393 139.794 0.777395 139.828C0.791397 139.862 0.811974 139.892 0.837939 139.918C0.863905 139.944 0.894747 139.965 0.928693 139.979C0.96264 139.993 0.99902 140 1.03574 140H168.964C169.038 140 169.109 139.971 169.162 139.918C169.214 139.866 169.243 139.795 169.243 139.721C169.243 139.647 169.214 139.575 169.162 139.523C169.109 139.471 169.038 139.441 168.964 139.441H1.03573C0.999007 139.441 0.96263 139.448 0.928686 139.462C0.894742 139.476 0.8639 139.497 0.837936 139.523C0.811972 139.549 0.791397 139.58 0.777395 139.614C0.763393 139.648 0.756241 139.684 0.756349 139.721Z" fill="#CCCCCC"/>
<path d="M148.939 79.2626H101.361C100.589 79.2617 99.8495 78.9547 99.3038 78.409C98.758 77.8633 98.4511 77.1234 98.4502 76.3516V69.9394C98.4511 69.1676 98.758 68.4277 99.3038 67.882C99.8495 67.3363 100.589 67.0293 101.361 67.0284H148.939C149.711 67.0293 150.451 67.3363 150.997 67.882C151.542 68.4277 151.849 69.1676 151.85 69.9394V76.3516C151.849 77.1234 151.542 77.8633 150.997 78.409C150.451 78.9547 149.711 79.2617 148.939 79.2626Z" fill="#E6E6E6"/>
<path d="M130.931 72.048H116.912C116.746 72.048 116.586 71.982 116.469 71.8644C116.351 71.7468 116.285 71.5873 116.285 71.4209C116.285 71.2546 116.351 71.0951 116.469 70.9775C116.586 70.8599 116.746 70.7938 116.912 70.7938H130.931C131.097 70.7938 131.257 70.8599 131.374 70.9775C131.492 71.0951 131.558 71.2546 131.558 71.4209C131.558 71.5873 131.492 71.7468 131.374 71.8644C131.257 71.982 131.097 72.048 130.931 72.048Z" fill="white"/>
<path d="M144.414 75.4971H116.756C116.589 75.4971 116.43 75.4311 116.312 75.3135C116.194 75.1959 116.128 75.0364 116.128 74.87C116.128 74.7037 116.194 74.5442 116.312 74.4266C116.43 74.309 116.589 74.2429 116.756 74.2429H144.414C144.58 74.2429 144.739 74.309 144.857 74.4266C144.975 74.5442 145.041 74.7037 145.041 74.87C145.041 75.0364 144.975 75.1959 144.857 75.3135C144.739 75.4311 144.58 75.4971 144.414 75.4971Z" fill="white"/>
<path d="M109.464 77.35C111.786 77.35 113.669 75.4676 113.669 73.1455C113.669 70.8233 111.786 68.9409 109.464 68.9409C107.142 68.9409 105.26 70.8233 105.26 73.1455C105.26 75.4676 107.142 77.35 109.464 77.35Z" fill="white"/>
<path d="M133.679 95.6964H86.1014C85.3296 95.6955 84.5897 95.3885 84.044 94.8428C83.4983 94.2971 83.1913 93.5572 83.1904 92.7854V86.3732C83.1913 85.6015 83.4983 84.8616 84.044 84.3158C84.5897 83.7701 85.3296 83.4632 86.1014 83.4623H133.679C134.451 83.4632 135.191 83.7701 135.737 84.3158C136.283 84.8616 136.59 85.6015 136.59 86.3732V92.7854C136.59 93.5572 136.283 94.2971 135.737 94.8428C135.191 95.3885 134.451 95.6955 133.679 95.6964Z" fill="#E6E6E6"/>
<path d="M115.67 88.4819H101.652C101.486 88.4819 101.326 88.4158 101.209 88.2982C101.091 88.1806 101.025 88.0211 101.025 87.8548C101.025 87.6885 101.091 87.529 101.209 87.4113C101.326 87.2937 101.486 87.2277 101.652 87.2277H115.67C115.837 87.2277 115.996 87.2937 116.114 87.4113C116.232 87.529 116.298 87.6885 116.298 87.8548C116.298 88.0211 116.232 88.1806 116.114 88.2982C115.996 88.4158 115.837 88.4819 115.67 88.4819Z" fill="white"/>
<path d="M129.153 91.931H101.495C101.329 91.931 101.169 91.8649 101.052 91.7473C100.934 91.6297 100.868 91.4702 100.868 91.3039C100.868 91.1376 100.934 90.978 101.052 90.8604C101.169 90.7428 101.329 90.6768 101.495 90.6768H129.153C129.32 90.6768 129.479 90.7428 129.597 90.8604C129.714 90.978 129.781 91.1376 129.781 91.3039C129.781 91.4702 129.714 91.6297 129.597 91.7473C129.479 91.8649 129.32 91.931 129.153 91.931Z" fill="white"/>
<path d="M94.2046 93.7839C96.5267 93.7839 98.4092 91.9015 98.4092 89.5794C98.4092 87.2572 96.5267 85.3748 94.2046 85.3748C91.8825 85.3748 90 87.2572 90 89.5794C90 91.9015 91.8825 93.7839 94.2046 93.7839Z" fill="white"/>
</g>
<defs>
<clipPath id="clip0_484_1610">
<rect width="168.487" height="140" fill="white" transform="translate(0.756348)"/>
</clipPath>
</defs>
</svg>
