<svg width="176" height="149" viewBox="0 0 176 149" fill="none" xmlns="http://www.w3.org/2000/svg">
<g clip-path="url(#clip0_484_2378)">
<path d="M169.665 121.922H6.3349C2.8419 121.922 0 119.082 0 115.59V95.9412H176V115.59C176 119.082 173.158 121.922 169.665 121.922Z" fill="#E6E6E6"/>
<path d="M109.139 118.635H67.4873V148.372H109.139V118.635Z" fill="#E6E6E6"/>
<path d="M111.644 144.616H64.9824V148.372H111.644V144.616Z" fill="#E6E6E6"/>
<path d="M175.843 104.236H0V4.34532C0 1.94936 1.95026 0 4.34733 0H171.496C173.893 0 175.843 1.94936 175.843 4.34532V104.236Z" fill="#3F3D56"/>
<path d="M171.616 4.53882H4.07129V98.7584H171.616V4.53882Z" fill="white"/>
<path d="M36.518 60.6962C37.8004 59.6371 39.3865 59.44 40.0607 60.2558C40.7349 61.0716 40.2418 62.5913 38.9589 63.6506C38.4522 64.0808 37.8498 64.3834 37.2021 64.5332L31.7121 68.952L29.6924 66.3327L35.319 62.2546C35.5885 61.6469 35.9996 61.1125 36.518 60.6962H36.518Z" fill="#FFB6B6"/>
<path d="M4.78637 70.6664C4.78358 70.471 4.78542 68.7663 6.04799 67.6889C7.49834 66.4513 9.54486 66.9522 10.2627 67.1279C11.9208 67.5338 12.0568 68.2447 13.6139 68.9753C16.5272 70.342 12.877 69.6424 14.6105 69.2042C15.2105 69.0525 23.8429 68.4541 25.9917 67.1322C30.1707 64.5612 33.0182 63.0022 33.0182 63.0022L34.8797 66.7234C34.8797 66.7234 32.188 70.4644 28.3997 73.2357C24.5138 76.0785 22.5708 77.4999 19.618 78.0491C19.3638 78.0964 13.11 79.1637 8.07311 75.4023C6.92421 74.5444 4.81917 72.9724 4.78636 70.6664L4.78637 70.6664Z" fill="#1D4ED8"/>
<path d="M10.5607 61.2026C14.142 61.2026 17.0453 58.3007 17.0453 54.7211C17.0453 51.1414 14.142 48.2395 10.5607 48.2395C6.9794 48.2395 4.07617 51.1414 4.07617 54.7211C4.07617 58.3007 6.9794 61.2026 10.5607 61.2026Z" fill="#FFB6B6"/>
<path d="M61.3453 98.2666L54.6671 91.4338L51.2197 95.0281L56.1952 101.58L61.1304 102.144L61.3453 98.2666Z" fill="#FFB6B6"/>
<path d="M23.2123 85.4537C23.6029 85.4861 24.8442 85.7347 26.0307 85.0822C26.8404 84.6369 27.2556 83.9748 27.3959 83.7643C29.1359 81.1522 35.8145 77.0789 41.8084 76.8282C43.1658 76.7714 44.0592 76.9286 44.8713 77.3517C46.0228 77.9517 46.4825 78.8111 47.9438 80.8243C48.7431 81.9256 49.6275 82.9631 50.4364 84.0572C55.1723 90.4632 56.9677 90.9661 56.7842 93.0198C56.5806 95.2984 54.1219 97.4603 52.4879 97.2107C51.8186 97.1085 51.5595 96.6434 50.6654 95.7018C48.0438 92.941 46.9592 93.4511 45.0928 91.3365C42.9137 88.8676 43.1989 86.8205 42.062 86.7415C41.0077 86.6682 40.5597 88.4145 38.3088 90.7343C37.2789 91.7959 36.5455 92.2828 34.3111 93.8322C25.6099 99.8659 25.471 100.29 23.715 100.771C22.9467 100.982 17.4938 102.476 15.5513 100.098C12.5115 96.3767 19.6927 85.1614 23.2123 85.4536V85.4537Z" fill="#2F2E41"/>
<path d="M59.3035 99.8107C59.7947 99.5902 60.369 99.3325 60.5537 98.7397C60.6788 98.3387 60.6068 97.8441 60.3483 97.5024C60.0502 97.1081 59.6088 97.0561 59.6267 96.9864C59.6539 96.8801 60.6975 96.9217 61.8431 97.3265C62.0593 97.4028 63.0387 97.7605 64.2846 98.7327C65.2827 99.5116 65.1484 99.6678 65.7743 100.117C67.6957 101.495 69.4978 100.409 70.5374 101.702C70.9386 102.201 71.1098 102.909 70.9409 103.482C70.6018 104.632 68.9528 105.028 68.0515 105.233C65.881 105.725 64.2381 105.323 62.5226 105.034C56.6885 104.051 53.4106 104.946 52.9718 103.595C52.8888 103.34 53.0237 103.362 53.4735 101.485C53.9175 99.6333 53.9029 99.1247 54.2811 98.9764C54.8502 98.7532 55.2324 99.7686 56.6662 100.116C57.9368 100.424 58.9853 99.9535 59.3035 99.8107H59.3035Z" fill="#2F2E41"/>
<path d="M49.4721 120.619L47.7849 111.217L42.9131 112.256L43.3495 120.47L47.1162 123.707L49.4721 120.619Z" fill="#FFB6B6"/>
<path d="M25.1176 88.614C25.4226 88.8601 26.31 89.7624 27.6583 89.8885C28.5784 89.9745 29.294 89.6598 29.5283 89.5643C32.4356 88.3795 40.2502 88.7576 45.3507 91.9144C46.5058 92.6293 47.1567 93.2609 47.591 94.0668C48.2067 95.2095 48.1043 96.1787 48.1824 98.6646C48.2251 100.024 48.374 101.379 48.4287 102.739C48.7485 110.698 49.9516 112.121 48.646 113.718C47.1974 115.489 43.9485 115.898 42.7366 114.774C42.2402 114.314 42.2871 113.784 42.0763 112.503C41.4581 108.747 40.274 108.56 39.9176 105.763C39.5015 102.497 40.8876 100.963 39.9913 100.26C39.1601 99.6071 37.8083 100.801 34.6425 101.457C33.194 101.757 32.3135 101.748 29.5942 101.776C19.0047 101.885 18.6516 102.158 16.9282 101.571C16.1742 101.314 10.8227 99.4894 10.5513 96.4314C10.1266 91.6461 22.3695 86.3967 25.1176 88.614H25.1176Z" fill="#2F2E41"/>
<path d="M46.9155 120.751C47.4458 120.844 48.0658 120.953 48.5517 120.566C48.8805 120.305 49.0987 119.855 49.0769 119.427C49.0517 118.934 48.7157 118.643 48.7696 118.595C48.8518 118.523 49.692 119.143 50.4126 120.121C50.5486 120.305 51.158 121.151 51.6427 122.655C52.0311 123.859 51.8322 123.913 52.0978 124.636C52.9131 126.855 55.0147 126.968 55.1486 128.621C55.2003 129.259 54.9439 129.941 54.4824 130.32C53.5555 131.082 51.9686 130.484 51.108 130.147C49.0355 129.336 47.9018 128.082 46.6447 126.88C42.3693 122.792 39.1541 121.693 39.5501 120.329C39.625 120.071 39.7244 120.164 41.1508 118.864C42.5585 117.581 42.8322 117.152 43.2284 117.241C43.8248 117.376 43.5705 118.431 44.5617 119.523C45.4401 120.491 46.572 120.69 46.9155 120.751Z" fill="#2F2E41"/>
<path d="M11.4447 55.9601C11.6971 55.0575 11.3801 54.7286 11.7032 54.3234C11.7033 54.3234 11.8333 54.1604 12.996 53.7204C12.6529 51.731 12.9098 51.3946 12.9098 51.3946C13.2058 51.0069 13.7988 50.9131 14.2025 50.9638C15.0564 51.0711 15.2075 51.8426 15.7538 51.8253C16.5085 51.8014 17.4137 50.2913 17.1328 48.9826C16.9036 47.915 15.9154 47.1221 15.6677 47.2597C15.422 47.3961 14.5379 46.7946 14.2026 46.9151C13.9736 46.9974 12.8957 46.8879 12.6513 47.0013C12.3844 47.1251 11.62 47.8957 11.5469 47.7986C11.0391 47.1238 11.0499 46.8883 10.7552 46.7429C10.2332 46.4852 9.66556 46.9614 8.68686 47.432C6.67315 48.4002 6.0835 47.8226 5.15337 48.638C4.68351 49.0499 4.43155 49.837 3.94681 51.3946C3.2689 53.5727 2.92995 54.6618 3.25735 55.7017C3.59123 56.7622 4.08291 56.5314 4.80864 58.0276C5.61648 59.6931 5.33805 60.6611 6.10138 61.0426C6.69133 61.3373 7.63943 61.1497 7.9974 60.6118C8.61028 59.6909 7.02618 58.4452 7.56648 56.9938C7.89814 56.103 8.92126 55.4275 9.54869 55.6156C10.2581 55.8282 10.3104 57.0997 10.7552 57.08C11.1362 57.0631 11.4007 56.1174 11.4447 55.9601H11.4447Z" fill="#2F2E41"/>
<path d="M6.53234 62.1624C7.85931 60.6752 13.2644 62.2145 13.7717 64.5744C13.9804 65.545 13.21 65.9549 13.427 67.0725C13.7442 68.7072 15.5408 68.5958 16.8743 70.2598C18.7674 72.6222 16.8171 74.9316 18.9426 78.8741C19.3968 79.7165 19.7797 80.4266 20.5801 81.1138C22.4169 82.6907 24.1263 82.1499 25.0616 83.6119C25.761 84.7052 25.4737 86.0528 25.4064 86.3685C25.1303 87.6629 24.3822 87.9783 23.8551 89.0389C22.978 90.8036 23.971 92.0991 24.0274 94.2075C24.098 96.8455 22.6955 100.502 19.8907 101.702C16.7396 103.05 12.9391 100.817 11.1 98.6008C10.0026 97.2781 9.68409 96.058 9.204 94.5521C7.05839 87.8216 5.84622 88.4303 4.2054 83.0951C2.32965 76.9959 1.9609 69.8505 4.2054 67.5894C4.5029 67.2897 5.32162 66.597 5.84288 65.3497C6.54429 63.6712 5.93833 62.8281 6.53234 62.1624L6.53234 62.1624Z" fill="#1D4ED8"/>
<path d="M26.1397 96.7816C27.1685 98.0881 27.328 99.6778 26.496 100.332C25.664 100.986 24.1558 100.458 23.1268 99.1504C22.7086 98.6339 22.4202 98.0247 22.2858 97.374L17.9966 91.783L20.2129 90.0933L24.6095 95.5465C25.2109 95.8301 25.7356 96.2536 26.1397 96.7816H26.1397Z" fill="#FFB6B6"/>
<path d="M10.431 67.8301C10.6219 67.7875 12.2918 67.4415 13.6047 68.4571C15.1128 69.6237 15.0397 71.7285 15.0141 72.4667C14.9549 74.172 14.2863 74.4501 13.8886 76.1229C13.1444 79.2524 14.5616 82.1608 15.3445 83.7676C15.6155 84.3238 16.4862 86.0256 18.2194 87.8585C21.5901 91.4232 24.5977 93.2989 24.5977 93.2989L21.3667 96.1695C21.3667 96.1695 16.2201 94.6016 12.7328 91.4602C9.15561 88.2379 3.65453 76.8368 2.51414 74.0595C2.41593 73.8204 3.80706 77.7087 6.46322 72.0126C7.06908 70.7133 8.17916 68.3328 10.431 67.8301H10.431Z" fill="#1D4ED8"/>
<path d="M93.1248 65.1558L89.2671 63.3292C90.8494 65.5364 92.2128 68.9835 92.9427 71.7264C94.1786 69.1713 96.1708 66.045 98.1428 64.1775L94.0656 65.2259C96.578 52.9187 106.028 44.0833 116.849 44.0833L117.002 43.6388C105.699 43.6388 95.69 52.3517 93.1248 65.1558Z" fill="#3F3D56"/>
<path d="M110.881 83.9081H86.5058C85.472 83.9081 84.6309 83.0674 84.6309 82.034C84.6309 81.0007 85.472 80.1599 86.5058 80.1599H110.881C111.914 80.1599 112.755 81.0007 112.755 82.034C112.755 83.0674 111.914 83.9081 110.881 83.9081Z" fill="#1D4ED8"/>
<path d="M143.314 83.9081H118.939C117.906 83.9081 117.064 83.0674 117.064 82.034C117.064 81.0007 117.906 80.1599 118.939 80.1599H143.314C144.348 80.1599 145.189 81.0007 145.189 82.034C145.189 83.0674 144.348 83.9081 143.314 83.9081Z" fill="#E6E6E6"/>
<path d="M128.885 32.9247H105.191C104.594 32.9247 104.108 32.4389 104.108 31.8419C104.108 31.2448 104.594 30.7592 105.191 30.7592H128.885C129.482 30.7592 129.968 31.2448 129.968 31.8419C129.968 32.4389 129.482 32.9247 128.885 32.9247V32.9247Z" fill="#3F3D56"/>
<path d="M141.599 44.4769H92.4774C91.8801 44.4769 91.394 43.9911 91.394 43.394C91.394 42.797 91.8801 42.3114 92.4774 42.3114H141.599C142.196 42.3114 142.682 42.797 142.682 43.394C142.682 43.9911 142.196 44.4769 141.599 44.4769Z" fill="#3F3D56"/>
<path d="M10.6504 148.649C10.6504 148.844 10.8067 149 11.0013 149H164.999C165.193 149 165.35 148.844 165.35 148.649C165.35 148.455 165.193 148.299 164.999 148.299H11.0013C10.8067 148.299 10.6504 148.455 10.6504 148.649Z" fill="#3F3D56"/>
<path d="M48.4643 65.514C48.4226 65.514 48.3809 65.5124 48.339 65.5098C45.8714 65.3514 37.428 64.1573 32.3874 55.4459C31.972 54.7287 32.0539 53.8168 32.5909 53.1771L41.9259 42.06C42.3077 41.6053 42.8974 41.3434 43.4946 41.3506C43.9074 41.3604 44.8848 41.4646 45.0746 42.2177C46.196 46.6669 50.9312 51.8982 56.626 52.5916C57.2033 52.6617 57.6667 53.1765 57.8656 53.9684C58.0207 54.5849 57.8774 55.2205 57.472 55.712L49.9939 64.7886C49.614 65.2496 49.0565 65.514 48.4643 65.514V65.514ZM43.4588 41.7978C43.0026 41.7978 42.5589 42.0021 42.2689 42.3475L32.934 53.4646C32.5174 53.9608 32.4536 54.6669 32.7749 55.2218C37.7043 63.7411 45.9562 64.9084 48.3678 65.0633C48.8603 65.0962 49.3331 64.8865 49.6483 64.5042L57.1266 55.4276C57.4405 55.0468 57.5516 54.5548 57.4315 54.0774C57.3141 53.6101 57.0266 53.091 56.5718 53.0355C50.6888 52.3194 45.7981 46.9194 44.6405 42.327C44.5467 41.9551 43.9823 41.8098 43.4853 41.798C43.4765 41.7978 43.4676 41.7978 43.4588 41.7978H43.4588Z" fill="#3F3D56"/>
<path d="M38.0442 55.8118L44.7744 48.9528C45.2344 48.4839 44.5137 47.7624 44.053 48.2318L37.3229 55.0908C36.8629 55.5596 37.5836 56.2812 38.0442 55.8118Z" fill="#E6E6E6"/>
<path d="M42.1067 57.7441C43.9641 56.0801 45.5782 54.1533 46.8999 52.0392C47.2488 51.4811 46.3665 50.9687 46.019 51.5245C44.7412 53.5685 43.1808 55.4146 41.3853 57.0232C40.8954 57.462 41.6188 58.1812 42.1067 57.7441H42.1067Z" fill="#E6E6E6"/>
<path d="M45.7673 60.058C47.4585 58.1855 48.898 56.0958 50.0313 53.8415C50.3253 53.2568 49.4456 52.7399 49.1505 53.3269C48.0555 55.5049 46.6803 57.5275 45.046 59.337C44.6071 59.823 45.3263 60.5463 45.7673 60.058H45.7673Z" fill="#E6E6E6"/>
<path d="M42.8839 47.7098C46.6314 47.7098 49.6692 44.7373 49.6692 41.0705C49.6692 37.4038 46.6314 34.4313 42.8839 34.4313C39.1365 34.4313 36.0986 37.4038 36.0986 41.0705C36.0986 44.7373 39.1365 47.7098 42.8839 47.7098Z" fill="#1D4ED8"/>
<path d="M46.4147 44.2199C45.3712 41.6554 44.3276 39.0909 43.2841 36.5264C43.1399 36.1722 42.6884 36.1596 42.5478 36.5264C41.5167 39.215 40.8429 42.0206 40.519 44.8811C40.4638 45.3683 41.2278 45.3644 41.2825 44.8811C41.4093 43.7617 41.5975 42.6507 41.8391 41.5516C42.699 41.5966 43.5659 41.5002 44.3957 41.2706C44.8233 42.3213 45.2509 43.3721 45.6784 44.4228C45.8611 44.8718 46.6001 44.6754 46.4147 44.2199ZM42.0122 40.797C42.2694 39.7448 42.5777 38.7051 42.9355 37.682L44.1057 40.5579C43.4203 40.7377 42.7193 40.8177 42.0122 40.797Z" fill="white"/>
</g>
<defs>
<clipPath id="clip0_484_2378">
<rect width="176" height="149" fill="white"/>
</clipPath>
</defs>
</svg>
