<svg width="172" height="148" viewBox="0 0 172 148" fill="none" xmlns="http://www.w3.org/2000/svg">
<g clip-path="url(#clip0_601_2741)">
<path d="M12.9156 135.818C13.9067 136.168 14.9708 136.255 16.0055 136.072C17.0401 135.89 18.0104 135.443 18.8228 134.775C20.8917 133.033 21.5406 130.165 22.0682 127.509L23.6294 119.652L20.361 121.908C18.0103 123.531 15.6069 125.206 13.9795 127.557C12.3521 129.908 11.6421 133.117 12.9493 135.66" fill="#E6E6E6"/>
<path d="M13.42 145.878C13.0086 142.872 12.5854 139.828 12.8746 136.791C13.131 134.093 13.9518 131.459 15.6228 129.298C16.5098 128.153 17.5891 127.172 18.8122 126.399C19.131 126.198 19.4246 126.704 19.1071 126.905C16.9907 128.246 15.3538 130.227 14.4323 132.561C13.4146 135.156 13.2511 137.986 13.4264 140.743C13.5324 142.411 13.7576 144.067 13.9837 145.722C14.0016 145.797 13.9904 145.875 13.9525 145.942C13.9146 146.009 13.8528 146.059 13.7796 146.082C13.7049 146.102 13.6252 146.092 13.558 146.054C13.4907 146.016 13.4412 145.952 13.4202 145.877L13.42 145.878Z" fill="#F2F2F2"/>
<path d="M16.3818 141.055C16.8068 141.703 17.3911 142.231 18.0783 142.586C18.7656 142.942 19.5326 143.115 20.3055 143.087C22.2923 142.992 23.948 141.602 25.4382 140.282L29.8471 136.379L26.9293 136.239C24.8309 136.138 22.6784 136.044 20.6797 136.693C18.6811 137.343 16.8378 138.904 16.4724 140.978" fill="#E6E6E6"/>
<path d="M12.2572 147.605C14.2377 144.091 16.5348 140.186 20.6396 138.938C21.7809 138.592 22.9775 138.468 24.1652 138.573C24.5396 138.605 24.4461 139.184 24.0725 139.152C22.0816 138.986 20.0946 139.513 18.446 140.644C16.8595 141.727 15.6242 143.233 14.5788 144.829C13.9384 145.807 13.3647 146.826 12.7911 147.844C12.6078 148.17 12.0718 147.935 12.2572 147.605Z" fill="#F2F2F2"/>
<path d="M170.731 104.226H61.5406C61.2041 104.225 60.8816 104.091 60.6437 103.853C60.4058 103.614 60.2719 103.291 60.2715 102.953V1.2726C60.2719 0.935218 60.4058 0.611783 60.6437 0.373221C60.8816 0.13466 61.2041 0.000441037 61.5406 0H170.731C171.067 0.000441037 171.39 0.13466 171.628 0.373221C171.866 0.611783 172 0.935218 172 1.2726V102.953C172 103.29 171.866 103.614 171.628 103.852C171.39 104.091 171.067 104.225 170.731 104.225V104.226Z" fill="white"/>
<path d="M170.731 104.226H61.5406C61.2041 104.225 60.8816 104.091 60.6437 103.853C60.4058 103.614 60.2719 103.291 60.2715 102.953V1.2726C60.2719 0.935218 60.4058 0.611783 60.6437 0.373221C60.8816 0.13466 61.2041 0.000441037 61.5406 0H170.731C171.067 0.000441037 171.39 0.13466 171.628 0.373221C171.866 0.611783 172 0.935218 172 1.2726V102.953C172 103.29 171.866 103.614 171.628 103.852C171.39 104.091 171.067 104.225 170.731 104.225V104.226ZM61.5406 0.508036C61.339 0.508475 61.1457 0.588993 61.0031 0.731967C60.8605 0.874941 60.7802 1.06873 60.7798 1.27093V102.953C60.7802 103.155 60.8605 103.349 61.0031 103.492C61.1457 103.635 61.339 103.715 61.5406 103.716H170.731C170.933 103.715 171.126 103.635 171.268 103.492C171.411 103.349 171.491 103.155 171.492 102.953V1.2726C171.491 1.0704 171.411 0.876611 171.268 0.733637C171.126 0.590663 170.932 0.510144 170.731 0.509705L61.5406 0.508036Z" fill="#CACACA"/>
<path d="M113.135 26.422C112.906 26.4224 112.688 26.5136 112.526 26.6756C112.365 26.8376 112.274 27.0571 112.274 27.286C112.274 27.5148 112.365 27.7344 112.526 27.8964C112.688 28.0583 112.906 28.1495 113.135 28.1499H160.412C160.641 28.1495 160.859 28.0583 161.021 27.8964C161.182 27.7344 161.272 27.5148 161.272 27.286C161.272 27.0571 161.182 26.8376 161.021 26.6756C160.859 26.5136 160.641 26.4224 160.412 26.422H113.135Z" fill="#E4E4E4"/>
<path d="M113.135 31.6063C112.907 31.6069 112.688 31.6981 112.527 31.8601C112.366 32.0221 112.275 32.2415 112.275 32.4703C112.275 32.6991 112.366 32.9185 112.527 33.0805C112.688 33.2424 112.907 33.3337 113.135 33.3343H137.271C137.499 33.3337 137.718 33.2424 137.879 33.0805C138.04 32.9185 138.131 32.6991 138.131 32.4703C138.131 32.2415 138.04 32.0221 137.879 31.8601C137.718 31.6981 137.499 31.6069 137.271 31.6063H113.135Z" fill="#E4E4E4"/>
<path d="M71.8126 59.4857C71.5845 59.4863 71.3659 59.5775 71.2047 59.7395C71.0436 59.9015 70.9531 60.1209 70.9531 60.3497C70.9531 60.5785 71.0436 60.7979 71.2047 60.9599C71.3659 61.1218 71.5845 61.2131 71.8126 61.2137H160.459C160.687 61.2131 160.906 61.1218 161.067 60.9599C161.228 60.7979 161.318 60.5785 161.318 60.3497C161.318 60.1209 161.228 59.9015 161.067 59.7395C160.906 59.5775 160.687 59.4863 160.459 59.4857H71.8126Z" fill="#E4E4E4"/>
<path d="M71.8126 64.67C71.5845 64.6705 71.3659 64.7618 71.2047 64.9238C71.0436 65.0857 70.9531 65.3052 70.9531 65.534C70.9531 65.7627 71.0436 65.9822 71.2047 66.1441C71.3659 66.3061 71.5845 66.3974 71.8126 66.3979H137.317C137.545 66.3974 137.764 66.3061 137.925 66.1441C138.086 65.9822 138.177 65.7627 138.177 65.534C138.177 65.3052 138.086 65.0857 137.925 64.9238C137.764 64.7618 137.545 64.6705 137.317 64.67H71.8126Z" fill="#E4E4E4"/>
<path d="M71.8126 69.737C71.5845 69.7376 71.3659 69.8288 71.2047 69.9908C71.0436 70.1528 70.9531 70.3722 70.9531 70.601C70.9531 70.8297 71.0436 71.0492 71.2047 71.2111C71.3659 71.3731 71.5845 71.4644 71.8126 71.4649H160.459C160.687 71.4644 160.906 71.3731 161.067 71.2111C161.228 71.0492 161.318 70.8297 161.318 70.601C161.318 70.3722 161.228 70.1528 161.067 69.9908C160.906 69.8288 160.687 69.7376 160.459 69.737H71.8126Z" fill="#E4E4E4"/>
<path d="M71.8126 74.9213C71.5845 74.9219 71.3659 75.0131 71.2047 75.1751C71.0436 75.3371 70.9531 75.5565 70.9531 75.7853C70.9531 76.0141 71.0436 76.2335 71.2047 76.3955C71.3659 76.5574 71.5845 76.6487 71.8126 76.6493H137.317C137.545 76.6487 137.764 76.5574 137.925 76.3955C138.086 76.2335 138.177 76.0141 138.177 75.7853C138.177 75.5565 138.086 75.3371 137.925 75.1751C137.764 75.0131 137.545 74.9219 137.317 74.9213H71.8126Z" fill="#E4E4E4"/>
<path d="M71.8126 80.1233C71.5845 80.1238 71.3659 80.2151 71.2047 80.3771C71.0436 80.539 70.9531 80.7585 70.9531 80.9873C70.9531 81.216 71.0436 81.4355 71.2047 81.5974C71.3659 81.7594 71.5845 81.8507 71.8126 81.8512H160.459C160.687 81.8507 160.906 81.7594 161.067 81.5974C161.228 81.4355 161.318 81.216 161.318 80.9873C161.318 80.7585 161.228 80.539 161.067 80.3771C160.906 80.2151 160.687 80.1238 160.459 80.1233H71.8126Z" fill="#E4E4E4"/>
<path d="M71.8126 85.3076C71.5845 85.3082 71.3659 85.3994 71.2047 85.5614C71.0436 85.7234 70.9531 85.9428 70.9531 86.1716C70.9531 86.4004 71.0436 86.6198 71.2047 86.7818C71.3659 86.9437 71.5845 87.035 71.8126 87.0356H137.317C137.545 87.035 137.764 86.9437 137.925 86.7818C138.086 86.6198 138.177 86.4004 138.177 86.1716C138.177 85.9428 138.086 85.7234 137.925 85.5614C137.764 85.3994 137.545 85.3082 137.317 85.3076H71.8126Z" fill="#E4E4E4"/>
<path d="M85.8536 42.291C83.4053 42.291 81.0119 41.563 78.9762 40.1991C76.9405 38.8351 75.3539 36.8965 74.4169 34.6284C73.48 32.3602 73.2348 29.8644 73.7125 27.4565C74.1901 25.0487 75.3691 22.8369 77.1003 21.1009C78.8315 19.3649 81.0372 18.1827 83.4384 17.7037C85.8397 17.2248 88.3287 17.4706 90.5906 18.4101C92.8526 19.3496 94.7859 20.9406 96.1461 22.9819C97.5063 25.0231 98.2323 27.423 98.2323 29.8781C98.2286 33.169 96.9232 36.3241 94.6026 38.6511C92.2819 40.9782 89.1355 42.2872 85.8536 42.291Z" fill="#22C55E"/>
<path d="M48.2768 89.2248C48.2554 88.7718 48.1352 88.3289 47.9246 87.9275C47.714 87.526 47.4183 87.1758 47.0581 86.9013C46.698 86.6269 46.2822 86.435 45.8401 86.3391C45.3979 86.2433 44.9403 86.2458 44.4992 86.3465L40.4075 80.5643L36.2969 82.2007L42.1895 90.2848C42.4073 91.0166 42.8853 91.6428 43.5328 92.0448C44.1803 92.4468 44.9523 92.5967 45.7027 92.466C46.453 92.3354 47.1295 91.9333 47.6039 91.3359C48.0783 90.7385 48.3177 89.9874 48.2768 89.2248H48.2768Z" fill="#A0616A"/>
<path d="M40.3027 88.7963L27.9219 72.6906L32.5609 58.071C32.9008 54.3954 35.1945 53.369 35.2921 53.3271L35.441 53.2631L39.4778 64.0577L36.5138 71.9832L43.7887 84.2522L40.3027 88.7963Z" fill="#3F3D56"/>
<path d="M83.2984 39.1477C82.8496 39.2041 82.4186 39.3585 82.0357 39.6001C81.6528 39.8416 81.3274 40.1644 81.0824 40.5457C80.8374 40.9269 80.6788 41.3575 80.6176 41.8069C80.5565 42.2563 80.5944 42.7137 80.7286 43.1468L75.2959 47.6845L77.2407 51.6676L84.823 45.1514C85.5337 44.8771 86.1194 44.3509 86.469 43.6724C86.8187 42.994 86.908 42.2106 86.7201 41.4705C86.5321 40.7305 86.08 40.0853 85.4494 39.6572C84.8188 39.229 84.0534 39.0478 83.2984 39.1477Z" fill="#A0616A"/>
<path d="M83.4891 47.1534L68.4328 60.7763L53.5382 57.2688C49.8574 57.2131 48.6596 54.9994 48.6103 54.905L48.5352 54.7611L58.9559 49.8908L67.0652 52.2412L78.7014 44.0195L83.4891 47.1534Z" fill="#3F3D56"/>
<path d="M57.4099 143.999L61.4553 143.998L63.3796 128.352L57.4092 128.352L57.4099 143.999Z" fill="#A0616A"/>
<path d="M69.2568 147.765L56.543 147.765L56.5427 142.84L65.6897 142.839C66.6357 142.839 67.543 143.216 68.2119 143.887C68.8809 144.558 69.2567 145.467 69.2568 146.416L69.2568 147.765L69.2568 147.765Z" fill="#2F2E41"/>
<path d="M41.2407 143.999L45.2861 143.998L47.2106 128.352L41.2402 128.352L41.2407 143.999Z" fill="#A0616A"/>
<path d="M53.0879 147.765L40.374 147.765L40.3738 142.84L49.5208 142.839C49.9892 142.839 50.453 142.932 50.8858 143.112C51.3185 143.291 51.7118 143.555 52.043 143.887C52.3742 144.219 52.637 144.613 52.8163 145.047C52.9955 145.481 53.0878 145.946 53.0878 146.416L53.0879 147.765Z" fill="#2F2E41"/>
<path d="M39.8027 86.8879L40.1327 110.049L40.4629 140.489L47.7219 139.828L51.3517 97.8069L55.9713 139.828H63.4655L64.2204 97.4761L61.5807 88.2115L39.8027 86.8879Z" fill="#2F2E41"/>
<path d="M54.0104 89.9982C46.1118 89.9988 38.8413 86.4141 38.7432 86.3648L38.6616 86.324L37.9988 70.3731C37.8066 69.8094 34.0217 58.687 33.3807 55.1518C32.7312 51.5701 42.144 48.4267 43.2871 48.0591L43.5465 45.1778L54.0947 44.038L55.4316 47.7248L59.2159 49.1477C59.6449 49.3091 59.9999 49.6227 60.2137 50.0291C60.4275 50.4355 60.4853 50.9065 60.376 51.3527L58.2727 59.9293L63.4095 88.3048L62.3036 88.3528C59.6528 89.5532 56.7918 89.998 54.0104 89.9982Z" fill="#3F3D56"/>
<path d="M52.8766 41.2799C56.557 39.2624 57.9096 34.6352 55.8977 30.9446C53.8858 27.2541 49.2712 25.8977 45.5908 27.9152C41.9103 29.9326 40.5577 34.5599 42.5697 38.2505C44.5816 41.941 49.1962 43.2973 52.8766 41.2799Z" fill="#A0616A"/>
<path d="M43.0822 41.9701C44.5296 43.5161 47.2176 42.6861 47.4062 40.5741C47.421 40.4101 47.4199 40.2451 47.403 40.0813C47.3056 39.1457 46.7666 38.2964 46.8957 37.3086C46.9249 37.0627 47.0162 36.8284 47.1611 36.6279C48.3144 35.0792 51.0219 37.3206 52.1104 35.9186C52.7779 35.0589 51.9933 33.7054 52.5055 32.7445C53.1815 31.4764 55.1838 32.102 56.4395 31.4075C57.8366 30.6347 57.753 28.4853 56.8334 27.1779C55.7118 25.5835 53.7453 24.7327 51.8034 24.6101C49.8614 24.4875 47.9329 25.0139 46.1199 25.7224C44.06 26.5274 42.0173 27.6399 40.7496 29.4561C39.208 31.6649 39.0597 34.6344 39.8306 37.2172C40.2996 38.7883 41.9003 40.7076 43.0822 41.9701Z" fill="#2F2E41"/>
<path d="M96.5045 147.961H0.25263C0.185628 147.961 0.121367 147.934 0.0739895 147.887C0.0266122 147.839 0 147.775 0 147.708C0 147.641 0.0266122 147.576 0.0739895 147.529C0.121367 147.481 0.185628 147.454 0.25263 147.454H96.5045C96.5715 147.454 96.6358 147.481 96.6832 147.529C96.7305 147.576 96.7571 147.641 96.7571 147.708C96.7571 147.775 96.7305 147.839 96.6832 147.887C96.6358 147.934 96.5715 147.961 96.5045 147.961Z" fill="#CACACA"/>
<path d="M85.138 34.5664C84.9148 34.5667 84.6998 34.482 84.5364 34.3294L80.4547 30.5277C80.2831 30.3676 80.182 30.1458 80.1734 29.911C80.1649 29.6761 80.2497 29.4475 80.4092 29.2753C80.5687 29.1031 80.7898 29.0015 81.024 28.9927C81.2581 28.9839 81.4862 29.0687 81.6581 29.2285L85.1155 32.4487L91.9558 25.5896C92.0378 25.5068 92.1353 25.441 92.2428 25.396C92.3502 25.3511 92.4654 25.3278 92.5818 25.3276C92.6982 25.3274 92.8135 25.3502 92.9211 25.3948C93.0287 25.4393 93.1264 25.5048 93.2087 25.5873C93.291 25.6699 93.3563 25.7679 93.4007 25.8758C93.4451 25.9837 93.4679 26.0993 93.4676 26.216C93.4674 26.3327 93.4442 26.4483 93.3993 26.556C93.3544 26.6637 93.2888 26.7614 93.2062 26.8436L85.7635 34.3068C85.6814 34.3892 85.5839 34.4546 85.4766 34.4992C85.3692 34.5437 85.2542 34.5666 85.138 34.5664Z" fill="white"/>
</g>
<defs>
<clipPath id="clip0_601_2741">
<rect width="172" height="148" fill="white"/>
</clipPath>
</defs>
</svg>
