<svg width="122" height="140" viewBox="0 0 122 140" fill="none" xmlns="http://www.w3.org/2000/svg">
<g clip-path="url(#clip0_484_1571)">
<path d="M9.11358 88.2171H1.08936V80.1929C1.08936 78.7615 2.26046 77.5905 3.69181 77.5905H11.4992V85.8315C11.4992 87.147 10.429 88.2171 9.11358 88.2171Z" fill="#3F3D56"/>
<path d="M118.85 10.7942H110.826V2.76999C110.826 1.33864 111.997 0.167542 113.429 0.167542H121.236V8.40864C121.236 9.72405 120.166 10.7942 118.85 10.7942Z" fill="#3F3D56"/>
<path d="M62.6245 136.578L59.7343 136.578L58.3594 125.43L62.6251 125.43L62.6245 136.578Z" fill="#A0616A"/>
<path d="M62.7263 139.593L53.8384 139.593V139.481C53.8385 137.57 55.3873 136.021 57.2978 136.021H57.298L58.9215 134.79L61.9506 136.022L62.7264 136.022L62.7263 139.593V139.593Z" fill="#2F2E41"/>
<path d="M60.7929 79.0415L58.8855 85.664C58.8855 85.664 54.7649 107.337 55.8493 110.373C56.9336 113.409 57.7328 132.508 57.7328 132.508H63.3749C63.3749 132.508 64.1348 127.663 64.1126 126.934C64.0904 126.205 65.3916 114.494 63.6566 112.759L71.2471 93.6741L83.175 83.698L78.4978 77.8923L60.7929 79.0415L60.7929 79.0415Z" fill="#2F2E41"/>
<path opacity="0.5" d="M88.38 89.7846V86.3146L84.9101 81.5435C83.4787 81.5435 82.3076 82.7146 82.3076 84.1459V95.8569C82.3076 97.2883 83.4787 98.4594 84.9101 98.4594H96.6211C98.0524 98.4594 99.2235 97.2883 99.2235 95.8569L94.4524 92.6039H91.1993C89.6447 92.6039 88.38 91.3391 88.38 89.7846Z" fill="#1D4ED8"/>
<path opacity="0.5" d="M105.127 61.0492H34.3315C32.026 61.0492 30.1504 59.1735 30.1504 56.8679V32.2661C30.1504 29.9605 32.026 28.0848 34.3315 28.0848H105.127C107.432 28.0848 109.308 29.9605 109.308 32.2661V56.8679C109.308 59.1735 107.432 61.0492 105.127 61.0492Z" fill="#1D4ED8"/>
<path d="M74.6693 56.3864H28.4758C26.1104 56.3864 24.186 54.462 24.186 52.0967V27.4949C24.186 25.1295 26.1103 23.2052 28.4757 23.2052H99.271C101.636 23.2052 103.561 25.1296 103.561 27.495C103.561 43.4258 90.6001 56.3864 74.6693 56.3864ZM28.4757 23.6389C26.3496 23.6389 24.6198 25.3687 24.6198 27.4949V52.0967C24.6198 54.2229 26.3496 55.9527 28.4758 55.9527H74.6693C90.361 55.9527 103.127 43.1867 103.127 27.495C103.127 25.3687 101.397 23.6389 99.271 23.6389H28.4757Z" fill="#1D4ED8"/>
<path d="M80.5294 81.7698L80.0703 75.2717L83.7458 74.4916L83.9867 81.379C84.1315 81.5318 84.2569 81.7078 84.3557 81.9059C84.8934 82.9834 84.4558 84.2928 83.3783 84.8306C82.3008 85.3683 80.9914 84.9307 80.4537 83.8532C80.1108 83.166 80.166 82.3853 80.5294 81.7698Z" fill="#A0616A"/>
<path d="M74.6944 40.1043L73.2803 41.1582L76.7556 60.9756L76.2475 62.1889L76.9253 62.8262L77.133 64.3503L79.8695 78.5073H84.0426C83.9813 78.0155 85.1878 77.5114 85.1269 76.9892C85.0573 76.392 84.5685 75.4888 84.499 74.858C84.4775 74.6627 84.456 74.4659 84.4344 74.2677C84.4028 73.9769 84.3711 73.6831 84.3394 73.3867C84.3148 73.1571 84.2903 72.926 84.2656 72.6934C83.7321 67.6585 83.5127 61.9927 83.2046 57.1003C82.8117 50.8631 82.2744 45.883 80.7578 45.0692L74.6944 40.1043L74.6944 40.1043Z" fill="#3F3D56"/>
<path d="M85.2429 136.241C85.691 136.269 85.9386 135.712 85.5996 135.388L85.5659 135.254C85.5703 135.243 85.5748 135.232 85.5793 135.222C86.0324 134.141 87.568 134.149 88.0172 135.231C88.4159 136.191 88.9236 137.153 89.0486 138.168C89.1046 138.617 89.0794 139.073 88.98 139.513C89.9143 137.472 90.4059 135.244 90.4059 133.003C90.4059 132.439 90.3751 131.876 90.3121 131.315C90.2602 130.855 90.1888 130.399 90.0963 129.946C89.5963 127.5 88.5135 125.171 86.9517 123.225C86.2009 122.815 85.5748 122.173 85.1966 121.404C85.0607 121.127 84.9542 120.829 84.9038 120.525C84.9893 120.536 85.226 119.235 85.1615 119.155C85.2806 118.974 85.4937 118.884 85.6238 118.708C86.2706 117.831 87.1617 117.984 87.6269 119.176C88.6206 119.677 88.6302 120.509 88.0205 121.309C87.6325 121.818 87.5792 122.507 87.2388 123.052C87.2739 123.097 87.3103 123.14 87.3453 123.185C87.9875 124.008 88.5429 124.894 89.0111 125.824C88.8788 124.79 89.0741 123.545 89.4072 122.742C89.7863 121.828 90.4969 121.057 91.1227 120.267C91.8744 119.317 93.4158 119.731 93.5482 120.935C93.5495 120.947 93.5508 120.959 93.552 120.97C93.459 121.023 93.368 121.078 93.279 121.137C92.7717 121.473 92.947 122.259 93.5482 122.352L93.5618 122.354C93.5282 122.689 93.4707 123.021 93.3867 123.347C94.1895 126.452 92.4563 127.583 89.9815 127.634C89.9269 127.662 89.8736 127.69 89.819 127.716C90.0697 128.422 90.2701 129.146 90.4185 129.88C90.5516 130.529 90.6441 131.184 90.6959 131.843C90.7603 132.673 90.7547 133.508 90.6847 134.337L90.6889 134.308C90.8667 133.395 91.3626 132.542 92.0826 131.951C93.1552 131.07 94.6705 130.745 95.8276 130.037C96.3846 129.696 97.0983 130.137 97.0011 130.782L96.9964 130.813C96.8241 130.883 96.656 130.964 96.4935 131.056C96.4006 131.108 96.3095 131.164 96.2206 131.222C95.7132 131.558 95.8886 132.345 96.4897 132.437L96.5033 132.439C96.5131 132.441 96.5216 132.442 96.5313 132.444C96.2358 133.145 95.824 133.797 95.3085 134.358C94.8065 137.069 92.6505 137.326 90.3443 136.537H90.3429C90.0907 137.635 89.7224 138.708 89.2489 139.73H85.3408C85.3268 139.687 85.3142 139.642 85.3016 139.599C85.663 139.621 86.0272 139.6 86.383 139.534C86.093 139.178 85.8031 138.82 85.5131 138.464C85.5061 138.457 85.5005 138.45 85.4949 138.443C85.3478 138.261 85.1994 138.08 85.0523 137.898L85.0522 137.898C85.043 137.339 85.11 136.782 85.2428 136.241L85.2429 136.241Z" fill="#F2F2F2"/>
<path d="M41.5322 139.742C41.5322 139.885 41.6472 140 41.7903 140H96.7215C96.8647 140 96.9796 139.885 96.9796 139.742C96.9796 139.599 96.8647 139.484 96.7215 139.484H41.7903C41.6472 139.484 41.5322 139.599 41.5322 139.742H41.5322Z" fill="#CCCCCC"/>
<path d="M5.68496 0C2.96728 0 0.76416 2.20312 0.76416 4.9208V88.2665H1.1979V34.1962C1.1979 15.5496 16.3138 0.433742 34.9604 0.433742L121.206 0.354872L121.128 0H5.68496Z" fill="#3F3D56"/>
<path d="M41.753 55.5189C41.753 55.8095 41.7443 56.1002 41.7291 56.3864H28.4762C26.2272 56.3864 24.4033 54.5625 24.4033 52.3136V39.9997C24.9737 39.9368 25.5527 39.9042 26.1383 39.9042C34.7611 39.9042 41.753 46.8962 41.753 55.5189H41.753Z" fill="#1D4ED8"/>
<path d="M90.8849 39.6866H48.5151C47.793 39.6866 47.2061 40.2735 47.2061 40.9956C47.2061 41.7177 47.793 42.3046 48.5151 42.3046H90.8849C91.607 42.3046 92.1939 41.7177 92.1939 40.9956C92.1939 40.2735 91.607 39.6866 90.8849 39.6866Z" fill="#1D4ED8"/>
<path d="M61.6519 32.3467H48.5151C47.793 32.3467 47.2061 32.9337 47.2061 33.6558C47.2061 34.3778 47.793 34.9648 48.5151 34.9648H61.6519C62.374 34.9648 62.961 34.3778 62.961 33.6558C62.961 32.9337 62.374 32.3467 61.6519 32.3467Z" fill="#1D4ED8"/>
<path d="M74.5527 136.578L71.6625 136.578L70.2876 125.43L74.5533 125.43L74.5527 136.578Z" fill="#A0616A"/>
<path d="M74.6545 139.593L65.7666 139.593V139.481C65.7667 137.57 67.3155 136.021 69.226 136.021H69.2262L70.8497 134.79L73.8788 136.022L74.6546 136.022L74.6545 139.593V139.593Z" fill="#2F2E41"/>
<path d="M68.5363 81.6519L70.0544 94.881L66.6929 108.652L69.6206 132.617L75.0424 133.05C75.0424 133.05 77.6449 115.484 75.2593 109.411L81.3317 85.5556L76.7774 82.9531L68.5363 81.6519Z" fill="#2F2E41"/>
<path d="M74.193 36.9517C73.2362 35.9304 73.5639 34.9998 72.0847 34.739C71.0819 34.5623 69.8749 34.7396 68.8481 34.7386C66.2673 34.7362 65.8793 36.1633 64.3935 38.0591C60.5665 42.9424 64.127 46.8612 63.2231 52.6996C62.3832 58.1244 64.6341 61.0787 63.6372 66.5181C63.1626 69.1073 62.2428 72.7532 60.6332 75.7309C59.7444 77.3751 59.3182 79.2879 59.5362 81.1097C59.7292 82.7221 80.5525 82.9101 81.1287 82.5134C81.8073 82.0462 81.5778 81.0447 81.6441 80.3469C81.8236 78.4566 82.0062 77.1324 81.5523 75.2017C81.1257 73.3875 81.1337 71.2795 81.1277 69.4043C81.122 67.5966 78.5757 70.581 78.7236 68.7762C78.9123 66.4743 79.2864 64.2223 79.6984 61.9413C80.0174 60.1758 80.1423 58.3616 80.6109 56.633C81.1507 54.6418 81.7943 52.8901 81.8159 50.8017C81.8328 49.1761 82.2251 46.9036 81.5788 45.4143C80.6267 43.2203 78.7067 41.2446 77.0869 39.4873C76.2815 38.6135 75.4819 38.0448 74.5619 37.3206" fill="#3F3D56"/>
<path d="M41.5032 46.9503L47.3663 49.7894L46.2118 53.365L40.1198 50.1428C39.9152 50.1922 39.7001 50.2132 39.4791 50.2002C38.2769 50.1297 37.3595 49.098 37.4301 47.8958C37.5006 46.6937 38.5324 45.7763 39.7345 45.8468C40.5012 45.8918 41.1506 46.3286 41.5032 46.9503L41.5032 46.9503Z" fill="#A0616A"/>
<path d="M59.4875 63.1555C58.9259 62.858 50.3713 57.4025 45.8733 54.8683C45.789 54.8209 45.2084 55.1319 45.1274 55.0863C45.0038 55.0166 45.1213 54.4997 45.0058 54.4346C44.7554 54.2935 44.2876 54.6131 44.08 54.4961C43.3285 54.0726 43.4877 52.2659 43.4877 52.2659L45.0058 48.5791L47.4877 48.4999L48.042 49.4466L49.2187 49.3048L49.9939 50.3141L58.9272 53.8191C59.2745 49.1612 61.1371 45.3185 63.155 41.5593L63.9706 41.7134C66.0274 42.102 67.3994 44.0596 67.0628 46.1256L64.7071 60.5858C64.479 61.9312 63.5271 63.016 62.2228 63.4169C61.2803 63.7067 60.3024 63.587 59.4875 63.1555Z" fill="#3F3D56"/>
<path d="M68.3565 33.3681C72.0222 33.3681 74.9939 30.3965 74.9939 26.7308C74.9939 23.0651 72.0222 20.0935 68.3565 20.0935C64.6909 20.0935 61.7192 23.0651 61.7192 26.7308C61.7192 30.3965 64.6909 33.3681 68.3565 33.3681Z" fill="#A0616A"/>
<path d="M75.7234 26.9326C75.4914 26.8394 75.2593 26.7613 75.0577 26.7114C76.1966 28.1453 74.2739 29.4036 73.9755 30.8711C74.0004 32.0361 73.3634 32.5645 72.2491 32.8836L72.2752 32.7925C63.212 35.1141 72.7725 27.3861 65.6865 27.1732C64.6066 27.2363 66.0488 23.8406 64.9384 24.0114C62.1191 24.4451 61.9877 24.1471 61.6855 26.1804C61.1366 26.3601 60.3841 25.5295 60.4731 24.662C60.2722 24.297 59.7473 24.5306 59.5362 23.9766C59.3128 23.5538 58.8877 20.7887 59.8571 22.0812C59.9212 21.1988 59.6716 19.3949 60.7723 20.9362C60.6291 20.235 61.2377 20.5386 61.4923 20.9557C61.6723 20.5458 61.8524 20.1381 62.0302 19.7282C61.9803 19.9125 62.0128 20.1142 62.104 20.2964C62.6155 19.2096 63.3965 19.1112 64.6152 18.8043C64.6011 19.1372 64.6087 19.5268 64.6543 19.828C66.0695 17.4833 69.4966 18.1384 70.8632 20.2098C71.7292 20.4075 72.0952 20.1077 72.9627 20.3246C75.2935 20.9073 76.3591 24.5014 75.7234 26.9326V26.9326Z" fill="#2F2E41"/>
<path d="M93.368 89.5677H101.392V81.5435C101.392 80.1121 100.221 78.941 98.7898 78.941H90.9824V87.1821C90.9824 88.4975 92.0526 89.5677 93.368 89.5677Z" fill="#1D4ED8"/>
<path d="M28.46 13.8484C29.4729 13.8484 30.294 13.009 30.294 11.9735C30.294 10.938 29.4729 10.0986 28.46 10.0986C27.4471 10.0986 26.626 10.938 26.626 11.9735C26.626 13.009 27.4471 13.8484 28.46 13.8484Z" fill="#3F3D56"/>
<path d="M34.7954 13.8484C35.8083 13.8484 36.6294 13.009 36.6294 11.9735C36.6294 10.938 35.8083 10.0986 34.7954 10.0986C33.7825 10.0986 32.9614 10.938 32.9614 11.9735C32.9614 13.009 33.7825 13.8484 34.7954 13.8484Z" fill="#3F3D56"/>
<path d="M41.1314 13.8484C42.1442 13.8484 42.9653 13.009 42.9653 11.9735C42.9653 10.938 42.1442 10.0986 41.1314 10.0986C40.1185 10.0986 39.2974 10.938 39.2974 11.9735C39.2974 13.009 40.1185 13.8484 41.1314 13.8484Z" fill="#3F3D56"/>
<path d="M86.1027 18.2763C85.9233 18.2763 85.7773 18.4222 85.7773 18.6016V20.7703C85.7773 20.9497 85.9233 21.0956 86.1027 21.0956H88.2714C88.4507 21.0956 88.5967 20.9497 88.5967 20.7703V18.6016C88.5967 18.4222 88.4507 18.2763 88.2714 18.2763H86.1027Z" fill="#1D4ED8"/>
<path d="M91.0909 18.2763C90.9115 18.2763 90.7656 18.4222 90.7656 18.6016V20.7703C90.7656 20.9497 90.9115 21.0956 91.0909 21.0956H93.2596C93.439 21.0956 93.5849 20.9497 93.5849 20.7703V18.6016C93.5849 18.4222 93.439 18.2763 93.2596 18.2763H91.0909Z" fill="#1D4ED8"/>
<path d="M96.0787 18.2763C95.8993 18.2763 95.7534 18.4222 95.7534 18.6016V20.7703C95.7534 20.9497 95.8993 21.0956 96.0787 21.0956H98.2474C98.4268 21.0956 98.5727 20.9497 98.5727 20.7703V18.6016C98.5727 18.4222 98.4268 18.2763 98.2474 18.2763H96.0787Z" fill="#1D4ED8"/>
</g>
<defs>
<clipPath id="clip0_484_1571">
<rect width="120.472" height="140" fill="white" transform="translate(0.76416)"/>
</clipPath>
</defs>
</svg>
