<svg width="457" height="350" viewBox="0 0 457 350" fill="none" xmlns="http://www.w3.org/2000/svg">
<g clip-path="url(#clip0_392_1306)">
<path d="M310.325 348.882C309.88 349.262 309.42 349.632 308.956 349.997H252.622C252.298 349.632 251.975 349.262 251.656 348.882C249.055 345.763 246.765 342.396 244.819 338.831C240.194 330.499 238.601 319.576 238.601 308.451C238.601 307.772 238.606 307.092 238.62 306.413C238.671 303.292 238.845 300.167 239.102 297.093C239.149 296.558 239.196 296.029 239.248 295.499C239.665 291.09 240.251 286.797 240.916 282.786C241 282.275 241.085 281.769 241.174 281.268C242.53 273.301 244.348 265.42 246.619 257.665C246.619 257.665 246.694 257.683 246.839 257.721C247.256 257.838 248.254 258.114 249.721 258.55C253.76 259.75 261.347 262.168 270.096 265.762C270.574 265.954 271.056 266.156 271.544 266.362C278.945 269.413 286.109 273.011 292.977 277.126C293.404 277.383 293.825 277.646 294.247 277.908V277.946L293.324 307.828L301.571 282.95C303.254 284.229 304.861 285.556 306.393 286.929C306.815 287.304 307.237 287.688 307.644 288.086C311.126 291.277 314.097 294.983 316.454 299.075C328.792 321.319 323.614 337.673 310.325 348.882Z" fill="#F2F2F2"/>
<path d="M302.382 349.998H300.883C300.873 349.627 300.859 349.257 300.836 348.882C300.231 337.641 295.409 325.227 288.844 313.245C288.61 312.809 288.371 312.364 288.118 311.928C284.931 306.23 281.379 300.654 277.71 295.354C277.429 294.942 277.139 294.525 276.848 294.112C271.965 287.144 266.923 280.696 262.368 275.19C262.05 274.797 261.722 274.412 261.398 274.033C254.646 265.935 249.074 260.036 246.839 257.721C246.506 257.379 246.249 257.116 246.071 256.934C245.906 256.756 245.808 256.662 245.789 256.643L246.314 256.118L246.319 256.104L246.853 255.579C246.872 255.603 247.195 255.912 247.767 256.507C248.249 256.999 248.91 257.688 249.721 258.55C252.551 261.549 257.232 266.652 262.649 273.124C262.963 273.499 263.287 273.888 263.61 274.276C267.307 278.742 271.314 283.803 275.283 289.244C276.281 290.612 277.249 291.969 278.188 293.316C278.483 293.728 278.774 294.14 279.055 294.553C283.024 300.279 286.49 305.787 289.454 311.076L290.194 312.402C297.748 326.179 301.815 338.381 302.34 348.882C302.359 349.257 302.373 349.627 302.382 349.998Z" fill="white"/>
<path d="M270.92 264.666C270.653 265.036 270.381 265.401 270.096 265.762C267.947 268.531 265.443 271.007 262.65 273.124C262.242 273.424 261.825 273.733 261.398 274.033C260.235 274.844 259.031 275.595 257.79 276.282C252.678 279.129 247.008 280.83 241.174 281.268C240.986 281.287 240.794 281.301 240.607 281.31C240.522 281.812 240.443 282.313 240.354 282.824C240.541 282.814 240.728 282.805 240.916 282.786C247.096 282.384 253.11 280.612 258.521 277.599C259.845 276.865 261.129 276.061 262.368 275.19C262.79 274.895 263.202 274.586 263.61 274.276C266.598 272.007 269.267 269.345 271.544 266.362C271.815 266.001 272.082 265.636 272.345 265.27C271.857 265.064 271.384 264.862 270.92 264.666Z" fill="white"/>
<path d="M293.488 276.067C293.324 276.423 293.151 276.774 292.977 277.126C289.636 283.784 284.517 289.387 278.188 293.316C277.748 293.592 277.303 293.859 276.848 294.112C276.712 294.192 276.567 294.276 276.431 294.351C270.773 297.491 264.446 299.233 257.979 299.433C251.511 299.633 245.089 298.284 239.248 295.499C239.107 295.434 238.971 295.368 238.835 295.303C238.784 295.837 238.737 296.371 238.699 296.91C238.831 296.971 238.966 297.036 239.102 297.093C245.111 299.863 251.688 301.177 258.3 300.93C264.912 300.682 271.372 298.88 277.157 295.668C277.345 295.565 277.528 295.462 277.71 295.354C278.165 295.092 278.615 294.825 279.055 294.553C285.542 290.509 290.796 284.766 294.247 277.946C294.43 277.594 294.603 277.238 294.772 276.877C294.346 276.605 293.919 276.334 293.488 276.067Z" fill="white"/>
<path d="M306.642 285.865C306.562 286.221 306.483 286.577 306.394 286.929C303.983 296.821 297.935 305.442 289.454 311.076C289.018 311.371 288.568 311.652 288.118 311.929C287.635 312.219 287.153 312.51 286.656 312.781C279.023 317.006 270.236 318.668 261.587 317.521C252.939 316.375 244.888 312.481 238.62 306.413C238.512 306.315 238.409 306.212 238.306 306.108C238.306 306.807 238.301 307.496 238.311 308.189C238.404 308.278 238.503 308.367 238.601 308.451C245.128 314.364 253.34 318.088 262.088 319.1C270.837 320.113 279.682 318.364 287.387 314.098C287.884 313.826 288.371 313.545 288.844 313.245C289.304 312.974 289.749 312.692 290.194 312.402C298.796 306.711 305.006 298.057 307.645 288.086C307.734 287.749 307.823 287.411 307.902 287.069C307.495 286.657 307.068 286.268 306.642 285.865Z" fill="white"/>
<path d="M267.354 209.558H0.494141V9.34387H267.354V209.558Z" fill="white"/>
<path d="M65.1592 51.1301C71.0258 51.1301 75.7816 46.3743 75.7816 40.5078C75.7816 34.6412 71.0258 29.8854 65.1592 29.8854C59.2927 29.8854 54.5369 34.6412 54.5369 40.5078C54.5369 46.3743 59.2927 51.1301 65.1592 51.1301Z" fill="#E6E6E6"/>
<path d="M89.6918 33.4261C89.2228 33.427 88.7733 33.6139 88.442 33.9458C88.1107 34.2777 87.9246 34.7276 87.9246 35.1965C87.9246 35.6655 88.1107 36.1154 88.442 36.4473C88.7733 36.7792 89.2228 36.9661 89.6918 36.9669H218.951C219.42 36.9661 219.87 36.7792 220.201 36.4473C220.532 36.1154 220.718 35.6655 220.718 35.1965C220.718 34.7276 220.532 34.2777 220.201 33.9458C219.87 33.6139 219.42 33.427 218.951 33.4261H89.6918Z" fill="#E6E6E6"/>
<path d="M89.6919 44.0485C89.2223 44.0475 88.7716 44.233 88.4389 44.5644C88.1062 44.8957 87.9187 45.3456 87.9177 45.8151C87.9167 46.2847 88.1023 46.7354 88.4336 47.0681C88.7649 47.4008 89.2149 47.5883 89.6844 47.5893H171.404C171.636 47.5897 171.867 47.5442 172.082 47.4554C172.297 47.3666 172.493 47.2363 172.657 47.0718C172.822 46.9074 172.953 46.7121 173.042 46.4971C173.131 46.2821 173.177 46.0516 173.177 45.8189C173.177 45.5861 173.131 45.3556 173.042 45.1406C172.953 44.9256 172.822 44.7303 172.657 44.5659C172.493 44.4014 172.297 44.2711 172.082 44.1823C171.867 44.0935 171.636 44.048 171.404 44.0485H89.6919Z" fill="#E6E6E6"/>
<path d="M267.354 209.558H0.494141V9.34387H267.354V209.558ZM3.48096 206.571H264.367V12.3307H3.48096V206.571Z" fill="#E6E6E6"/>
<path d="M15.4097 70.4009V189.485H252.438V70.4009H15.4097ZM251.298 99.887H193.466V71.5404H251.298V99.887ZM134.494 99.887V71.5404H192.326V99.887H134.494ZM192.326 101.027V129.373H134.494V101.027H192.326ZM133.354 99.887H75.5214V71.5404H133.354V99.887ZM133.354 101.027V129.373H75.5214V101.027H133.354ZM74.3819 129.373H16.5492V101.027H74.3819V129.373ZM74.3819 130.513V158.859H16.5492V130.513H74.3819ZM75.5214 130.513H133.354V158.859H75.5214V130.513ZM133.354 159.999V188.345H75.5214V159.999H133.354ZM134.494 159.999H192.326V188.345H134.494V159.999ZM134.494 158.859V130.513H192.326V158.859H134.494ZM193.466 130.513H251.298V158.859H193.466V130.513ZM193.466 129.373V101.027H251.298V129.373H193.466ZM74.3819 71.5404V99.887H16.5492V71.5404H74.3819ZM16.5492 159.999H74.3819V188.345H16.5492V159.999ZM193.466 188.345V159.999H251.298V188.345H193.466Z" fill="#E4E4E4"/>
<path d="M112.712 102.438L89.1271 101.904C86.768 92.7658 87.8301 84.0646 89.7127 76.0464L113.297 76.5804C110.912 85.0104 110.71 93.9089 112.712 102.438Z" fill="#6270B3"/>
<path d="M93.7534 81.761L93.766 80.8636L105.985 81.3001L105.972 82.1975L93.7534 81.761Z" fill="white"/>
<path d="M93.7021 85.3507L93.7147 84.4532L105.933 84.8903L105.921 85.7877L93.7021 85.3507Z" fill="white"/>
<path d="M93.6501 88.9404L93.6633 88.043L105.882 88.48L105.869 89.3774L93.6501 88.9404Z" fill="white"/>
<path d="M93.5989 92.53L93.6114 91.6326L105.83 92.0696L105.817 92.967L93.5989 92.53Z" fill="white"/>
<path d="M93.5476 96.1196L93.5601 95.2222L105.779 95.6592L105.766 96.5566L93.5476 96.1196Z" fill="white"/>
<path d="M61.4318 168.533L37.8471 167.999C35.488 158.86 36.5501 150.159 38.4327 142.141L62.0173 142.675C59.6317 151.105 59.4303 160.003 61.4318 168.533Z" fill="#F0F0F0"/>
<path d="M42.4731 147.856L42.4857 146.958L54.7046 147.395L54.6915 148.292L42.4731 147.856Z" fill="white"/>
<path d="M42.4219 151.445L42.4344 150.548L54.6528 150.985L54.6402 151.882L42.4219 151.445Z" fill="white"/>
<path d="M42.3701 155.035L42.3832 154.137L54.6016 154.574L54.589 155.472L42.3701 155.035Z" fill="white"/>
<path d="M42.3188 158.624L42.3314 157.727L54.5503 158.164L54.5372 159.061L42.3188 158.624Z" fill="white"/>
<path d="M42.2676 162.214L42.2801 161.317L54.499 161.754L54.4859 162.651L42.2676 162.214Z" fill="white"/>
<path d="M184.504 138.334L160.919 137.8C158.56 128.662 159.622 119.961 161.505 111.942L185.09 112.476C182.704 120.906 182.503 129.805 184.504 138.334Z" fill="#F0F0F0"/>
<path d="M165.546 117.657L165.558 116.76L177.777 117.196L177.764 118.094L165.546 117.657Z" fill="white"/>
<path d="M165.494 121.247L165.507 120.349L177.725 120.786L177.713 121.684L165.494 121.247Z" fill="white"/>
<path d="M165.442 124.836L165.455 123.939L177.674 124.376L177.661 125.273L165.442 124.836Z" fill="white"/>
<path d="M165.391 128.426L165.404 127.529L177.623 127.966L177.609 128.863L165.391 128.426Z" fill="white"/>
<path d="M165.34 132.016L165.352 131.118L177.571 131.555L177.558 132.453L165.34 132.016Z" fill="white"/>
<path d="M174.248 132.637L150.664 132.103C148.304 122.964 149.367 114.263 151.249 106.245L174.834 106.779C172.448 115.209 172.247 124.107 174.248 132.637Z" fill="#6270B3"/>
<path d="M155.29 111.959L155.302 111.062L167.521 111.498L167.508 112.396L155.29 111.959Z" fill="white"/>
<path d="M155.238 115.549L155.251 114.652L167.469 115.089L167.457 115.986L155.238 115.549Z" fill="white"/>
<path d="M155.187 119.139L155.2 118.241L167.418 118.678L167.405 119.576L155.187 119.139Z" fill="white"/>
<path d="M155.135 122.728L155.148 121.831L167.367 122.268L167.354 123.165L155.135 122.728Z" fill="white"/>
<path d="M155.084 126.318L155.097 125.42L167.315 125.857L167.302 126.755L155.084 126.318Z" fill="white"/>
<path d="M261.234 184.686L237.649 184.152C235.29 175.013 236.352 166.312 238.235 158.294L261.82 158.828C259.434 167.258 259.233 176.156 261.234 184.686Z" fill="#6270B3"/>
<path d="M242.276 164.008L242.289 163.111L254.507 163.548L254.494 164.445L242.276 164.008Z" fill="white"/>
<path d="M242.224 167.598L242.237 166.7L254.456 167.137L254.443 168.035L242.224 167.598Z" fill="white"/>
<path d="M242.172 171.188L242.185 170.291L254.404 170.727L254.391 171.625L242.172 171.188Z" fill="white"/>
<path d="M242.121 174.778L242.134 173.88L254.353 174.317L254.339 175.214L242.121 174.778Z" fill="white"/>
<path d="M242.07 178.367L242.082 177.47L254.301 177.907L254.288 178.804L242.07 178.367Z" fill="white"/>
<path d="M235.784 106.996L212.2 106.463C209.841 97.324 210.903 88.6228 212.785 80.6046L236.37 81.1386C233.984 89.5687 233.783 98.4671 235.784 106.996Z" fill="#F0F0F0"/>
<path d="M216.826 86.3193L216.838 85.4219L229.057 85.8583L229.044 86.7557L216.826 86.3193Z" fill="white"/>
<path d="M216.774 89.909L216.787 89.0116L229.005 89.4486L228.993 90.346L216.774 89.909Z" fill="white"/>
<path d="M216.723 93.4986L216.736 92.6012L228.954 93.0382L228.942 93.9356L216.723 93.4986Z" fill="white"/>
<path d="M216.671 97.0882L216.684 96.1908L228.903 96.6278L228.89 97.5252L216.671 97.0882Z" fill="white"/>
<path d="M216.62 100.678L216.633 99.7804L228.852 100.217L228.838 101.115L216.62 100.678Z" fill="white"/>
<path d="M259.962 165.629C260.776 165.429 261.535 165.053 262.187 164.527C262.84 164.002 263.369 163.34 263.737 162.587C264.106 161.835 264.305 161.012 264.321 160.174C264.337 159.337 264.169 158.506 263.829 157.74L278.7 143.832L268.412 141.36L255.868 154.946C254.619 155.603 253.655 156.694 253.158 158.014C252.661 159.333 252.665 160.79 253.17 162.107C253.675 163.423 254.645 164.509 255.897 165.159C257.149 165.808 258.595 165.975 259.962 165.629H259.962Z" fill="#FFB6B6"/>
<path d="M267.644 154.426L260.709 144.648L286.759 117.705L292.807 75.2364C293.106 73.1372 293.864 71.1295 295.026 69.356C296.188 67.5825 297.726 66.0865 299.532 64.9744C301.337 63.8623 303.365 63.1612 305.472 62.921C307.579 62.6808 309.712 62.9073 311.722 63.5845C315.35 64.8117 318.343 67.4279 320.044 70.8592C321.745 74.2905 322.016 78.2565 320.797 81.8871L305.364 127.673L267.644 154.426Z" fill="#E4E4E4"/>
<path d="M316.555 335.382L308.857 335.381L305.194 305.686L316.557 305.687L316.555 335.382Z" fill="#FFB6B6"/>
<path d="M320.697 350H315.234L314.259 344.842L311.762 350H297.273C296.578 350 295.902 349.778 295.343 349.367C294.783 348.955 294.37 348.375 294.163 347.712C293.957 347.049 293.967 346.337 294.194 345.681C294.42 345.024 294.851 344.457 295.422 344.063L306.992 336.072V330.858L319.163 331.584L320.697 350Z" fill="#2F2E41"/>
<path d="M364.053 327.548L357.29 331.227L339.879 306.894L349.86 301.464L364.053 327.548Z" fill="#FFB6B6"/>
<path d="M374.678 338.408L369.879 341.019L366.557 336.955L366.829 342.679L354.102 349.604C353.492 349.936 352.792 350.064 352.104 349.97C351.416 349.876 350.776 349.565 350.277 349.081C349.779 348.597 349.448 347.967 349.333 347.282C349.218 346.597 349.325 345.893 349.639 345.274L355.983 332.724L353.49 328.144L364.527 322.965L374.678 338.408Z" fill="#2F2E41"/>
<path d="M319.799 324.808H303.889V268.152L294.039 231.215C286.969 204.8 285.091 177.265 288.507 150.135L288.521 150.024L288.606 149.952C288.859 149.739 314.069 128.895 330.015 144.841C340.763 155.589 330.664 194.238 330.098 196.36V262.986L319.799 324.808Z" fill="#2F2E41"/>
<path d="M283.661 160.426L288.789 109.146C288.123 107.748 278.533 98.8899 288.56 83.3164L299.391 57.8942L319.674 57.579L319.759 57.6644C324.53 62.4257 328.05 68.2936 330.003 74.7451C331.956 81.1967 332.283 88.0313 330.954 94.6397L324.977 124.523L330.156 145.237L283.661 160.426Z" fill="#E4E4E4"/>
<path d="M310.307 268.444L342.992 314.418L355.53 305.504L328.232 249.408L310.307 268.444Z" fill="#2F2E41"/>
<path d="M307.637 52.7265C317.981 52.7265 326.366 44.3414 326.366 33.9978C326.366 23.6543 317.981 15.2692 307.637 15.2692C297.294 15.2692 288.908 23.6543 288.908 33.9978C288.908 44.3414 297.294 52.7265 307.637 52.7265Z" fill="#FFB6B6"/>
<path opacity="0.1" d="M303.034 101.739L308.162 132.507L303.034 158.147H292.778L297.44 132.507L303.034 101.739Z" fill="black"/>
<path d="M307.926 184.565C308.55 184.005 309.043 183.316 309.371 182.545C309.699 181.774 309.853 180.941 309.825 180.104C309.796 179.267 309.584 178.446 309.203 177.7C308.823 176.954 308.283 176.3 307.623 175.785L314.194 156.513L303.954 159.176L299.284 177.068C298.492 178.235 298.155 179.652 298.338 181.05C298.521 182.448 299.21 183.731 300.275 184.655C301.341 185.579 302.708 186.081 304.118 186.064C305.528 186.047 306.883 185.514 307.926 184.565Z" fill="#FFB6B6"/>
<path d="M309.429 171.064L298.707 165.703L309.002 129.669L294.342 89.3538C293.618 87.3611 293.341 85.2333 293.531 83.1214C293.721 81.0096 294.374 78.9655 295.443 77.1343C296.512 75.3031 297.971 73.7298 299.717 72.5259C301.462 71.3221 303.451 70.5172 305.543 70.1686C309.321 69.5431 313.194 70.442 316.31 72.6681C319.427 74.8942 321.533 78.2656 322.166 82.0427L330.11 129.702L309.429 171.064Z" fill="#E4E4E4"/>
<path d="M457 349.319C457 349.409 456.983 349.497 456.949 349.579C456.915 349.662 456.865 349.736 456.802 349.799C456.739 349.862 456.664 349.912 456.582 349.946C456.499 349.98 456.411 349.998 456.322 349.997H87.5093C87.3295 349.997 87.157 349.926 87.0299 349.799C86.9027 349.672 86.8313 349.499 86.8313 349.319C86.8313 349.14 86.9027 348.967 87.0299 348.84C87.157 348.713 87.3295 348.641 87.5093 348.641H456.322C456.502 348.642 456.674 348.713 456.801 348.84C456.928 348.968 457 349.14 457 349.319Z" fill="#CACACA"/>
<path d="M380.477 33.0821C378.114 36.9179 373.109 38.6089 368.67 37.8408C364.23 37.0728 360.373 34.2076 357.524 30.7177C354.675 27.2279 352.704 23.12 350.764 19.0537C348.825 14.9873 346.863 10.8763 344.028 7.37491C341.194 3.87347 337.356 0.986205 332.924 0.182012C330.511 -0.255647 327.779 0.0332975 326.018 1.74004C324.805 3.01929 324.142 4.72402 324.173 6.48705C323.406 6.21694 322.584 6.13969 321.78 6.26213C320.976 6.38457 320.215 6.70293 319.562 7.18915C318.91 7.67536 318.388 8.31451 318.041 9.05025C317.695 9.78599 317.534 10.5957 317.574 11.4081C317.508 11.4069 317.444 11.4025 317.378 11.4025C309.118 6.70658 296.582 9.43453 296.582 14.5625C292.049 14.5625 286.51 19.0383 286.51 25.8349V25.8349C295.882 25.8349 301.398 37.8428 295.927 46.4527C294.514 48.6488 292.957 50.7485 291.266 52.7378H302.985C303.968 51.327 304.562 49.6816 304.705 47.968C305.135 49.5248 305.393 51.1244 305.472 52.7378C305.472 52.7378 337.485 56.8628 329.222 24.9537C329.769 24.9264 330.301 24.7652 330.771 24.4843C332.019 23.7323 332.698 22.1419 332.817 20.5282C333.126 20.6107 333.434 20.6931 333.741 20.7752C335.943 21.3698 338.231 22.1402 339.743 23.8489C342.298 26.7366 341.761 31.1196 342.688 34.8622C343.807 39.3755 347.154 43.026 350.872 45.8182C354.867 48.8181 359.534 51.0973 364.507 51.5704C369.481 52.0435 374.773 50.5312 378.219 46.9141C381.665 43.297 382.865 37.4702 380.477 33.0821Z" fill="#2F2E41"/>
</g>
<defs>
<clipPath id="clip0_392_1306">
<rect width="456.506" height="350" fill="white" transform="translate(0.494141)"/>
</clipPath>
</defs>
</svg>
