<svg width="477" height="350" viewBox="0 0 477 350" fill="none" xmlns="http://www.w3.org/2000/svg">
<g clip-path="url(#clip0_392_86)">
<path d="M450.866 350L451.409 348.996C444.128 345.058 435.067 340.158 430.335 332.117C425.669 324.19 425.565 313.425 430.061 304.024C433.888 296.023 440.918 288.854 450.391 283.294C452.259 282.197 454.221 281.157 456.117 280.152C460.702 277.722 465.443 275.209 469.353 271.644C474.737 266.734 478.811 258.495 475.774 251.155C474.776 248.813 473.14 246.797 471.054 245.337C468.967 243.877 466.513 243.032 463.97 242.896L463.906 244.036C466.236 244.16 468.484 244.934 470.396 246.271C472.308 247.608 473.807 249.454 474.723 251.599C477.544 258.42 473.673 266.159 468.583 270.801C464.781 274.268 460.105 276.747 455.583 279.143C453.675 280.154 451.703 281.2 449.813 282.309C440.143 287.986 432.957 295.324 429.031 303.531C424.373 313.27 424.495 324.446 429.351 332.696C434.245 341.011 443.461 345.996 450.866 350Z" fill="#F1F1F1"/>
<path d="M456.734 248.914C462.251 248.914 466.724 246.741 466.724 244.061C466.724 241.381 462.251 239.209 456.734 239.209C451.216 239.209 446.744 241.381 446.744 244.061C446.744 246.741 451.216 248.914 456.734 248.914Z" fill="#F1F1F1"/>
<path d="M448.742 280.883C454.259 280.883 458.732 278.71 458.732 276.03C458.732 273.35 454.259 271.178 448.742 271.178C443.224 271.178 438.751 273.35 438.751 276.03C438.751 278.71 443.224 280.883 448.742 280.883Z" fill="#F1F1F1"/>
<path d="M467.01 286.02C472.527 286.02 477 283.848 477 281.168C477 278.488 472.527 276.316 467.01 276.316C461.492 276.316 457.02 278.488 457.02 281.168C457.02 283.848 461.492 286.02 467.01 286.02Z" fill="#F1F1F1"/>
<path d="M438.466 312.851C443.984 312.851 448.456 310.679 448.456 307.999C448.456 305.319 443.984 303.146 438.466 303.146C432.949 303.146 428.476 305.319 428.476 307.999C428.476 310.679 432.949 312.851 438.466 312.851Z" fill="#F1F1F1"/>
<path d="M418.486 312.851C424.003 312.851 428.476 310.679 428.476 307.999C428.476 305.319 424.003 303.146 418.486 303.146C412.968 303.146 408.495 305.319 408.495 307.999C408.495 310.679 412.968 312.851 418.486 312.851Z" fill="#F1F1F1"/>
<path d="M78.5737 250.888H43.1256C42.1657 250.887 41.2454 250.506 40.5666 249.827C39.8879 249.148 39.506 248.228 39.5049 247.268V130.469C39.506 129.509 39.8879 128.589 40.5666 127.91C41.2454 127.231 42.1657 126.85 43.1256 126.849H78.5737C79.5335 126.85 80.4538 127.231 81.1326 127.91C81.8114 128.589 82.1932 129.509 82.1943 130.469V247.268C82.1932 248.228 81.8114 249.148 81.1326 249.827C80.4538 250.506 79.5335 250.887 78.5737 250.888Z" fill="#5AA96B"/>
<path d="M143.218 250.888H107.77C106.81 250.887 105.889 250.506 105.211 249.827C104.532 249.148 104.15 248.228 104.149 247.268V84.1204C104.15 83.1605 104.532 82.2403 105.211 81.5616C105.889 80.8828 106.81 80.5011 107.77 80.5H143.218C144.178 80.5011 145.098 80.8828 145.777 81.5616C146.455 82.2403 146.837 83.1605 146.838 84.1204V247.268C146.837 248.228 146.455 249.148 145.777 249.827C145.098 250.506 144.178 250.887 143.218 250.888Z" fill="#5AA96B"/>
<path d="M207.862 250.888H172.414C171.454 250.887 170.533 250.506 169.855 249.827C169.176 249.148 168.794 248.228 168.793 247.268V130.469C168.794 129.509 169.176 128.589 169.855 127.91C170.533 127.231 171.454 126.85 172.414 126.849H207.862C208.822 126.85 209.742 127.231 210.421 127.91C211.099 128.589 211.481 129.509 211.482 130.469V247.268C211.481 248.228 211.099 249.148 210.421 249.827C209.742 250.506 208.822 250.887 207.862 250.888Z" fill="#5AA96B"/>
<path d="M272.506 250.889H237.058C236.12 250.909 235.212 250.556 234.533 249.908C233.855 249.261 233.46 248.37 233.437 247.432V65.661C233.46 64.7231 233.855 63.8327 234.533 63.1848C235.212 62.5369 236.12 62.1845 237.058 62.2047H272.506C273.444 62.1845 274.352 62.5369 275.03 63.1848C275.709 63.8327 276.103 64.7231 276.126 65.661V247.432C276.103 248.37 275.709 249.261 275.03 249.908C274.352 250.556 273.444 250.909 272.506 250.889Z" fill="#5AA96B"/>
<path d="M337.15 250.888H301.702C300.742 250.887 299.822 250.506 299.143 249.827C298.464 249.148 298.082 248.228 298.081 247.268V32.8931C298.082 31.9332 298.464 31.013 299.143 30.3343C299.822 29.6555 300.742 29.2738 301.702 29.2727H337.15C338.11 29.2738 339.03 29.6555 339.709 30.3343C340.388 31.013 340.769 31.9332 340.77 32.8931V247.268C340.769 248.228 340.388 249.148 339.709 249.827C339.03 250.506 338.11 250.887 337.15 250.888Z" fill="#5AA96B"/>
<path d="M60.8497 112.212C64.8914 112.212 68.1679 108.936 68.1679 104.894C68.1679 100.852 64.8914 97.5759 60.8497 97.5759C56.808 97.5759 53.5315 100.852 53.5315 104.894C53.5315 108.936 56.808 112.212 60.8497 112.212Z" fill="#3F3D56"/>
<path d="M125.494 64.644C129.535 64.644 132.812 61.3675 132.812 57.3258C132.812 53.284 129.535 50.0076 125.494 50.0076C121.452 50.0076 118.176 53.284 118.176 57.3258C118.176 61.3675 121.452 64.644 125.494 64.644Z" fill="#3F3D56"/>
<path d="M190.138 112.212C194.179 112.212 197.456 108.936 197.456 104.894C197.456 100.852 194.179 97.5759 190.138 97.5759C186.096 97.5759 182.819 100.852 182.819 104.894C182.819 108.936 186.096 112.212 190.138 112.212Z" fill="#3F3D56"/>
<path d="M254.782 41.4699C258.824 41.4699 262.1 38.1934 262.1 34.1517C262.1 30.11 258.824 26.8335 254.782 26.8335C250.74 26.8335 247.464 30.11 247.464 34.1517C247.464 38.1934 250.74 41.4699 254.782 41.4699Z" fill="#3F3D56"/>
<path d="M319.426 14.6364C323.467 14.6364 326.744 11.3599 326.744 7.3182C326.744 3.27647 323.467 0 319.426 0C315.384 0 312.107 3.27647 312.107 7.3182C312.107 11.3599 315.384 14.6364 319.426 14.6364Z" fill="#3F3D56"/>
<path d="M378.688 252.248H0.771799C0.620394 252.248 0.475191 252.188 0.368132 252.08C0.261072 251.973 0.200928 251.828 0.200928 251.677C0.200928 251.525 0.261072 251.38 0.368132 251.273C0.475191 251.166 0.620394 251.106 0.771799 251.106H378.688C378.84 251.106 378.985 251.166 379.092 251.273C379.199 251.38 379.259 251.525 379.259 251.677C379.259 251.828 379.199 251.973 379.092 252.08C378.985 252.188 378.84 252.248 378.688 252.248Z" fill="#CBCBCB"/>
<path d="M472.882 349.867H287.92C287.769 349.867 287.623 349.806 287.516 349.699C287.409 349.592 287.349 349.447 287.349 349.296C287.349 349.144 287.409 348.999 287.516 348.892C287.623 348.785 287.769 348.725 287.92 348.725H472.882C473.034 348.725 473.179 348.785 473.286 348.892C473.393 348.999 473.453 349.144 473.453 349.296C473.453 349.447 473.393 349.592 473.286 349.699C473.179 349.806 473.034 349.867 472.882 349.867Z" fill="#CBCBCB"/>
<path d="M354.104 242.969C354.573 242.502 354.935 241.939 355.163 241.317C355.391 240.696 355.48 240.032 355.423 239.373C355.367 238.713 355.167 238.074 354.837 237.501C354.507 236.927 354.055 236.433 353.513 236.052L355.758 225.954L349.954 223.093L346.984 237.399C346.406 238.351 346.197 239.483 346.397 240.579C346.597 241.675 347.193 242.66 348.07 243.346C348.948 244.033 350.047 244.374 351.159 244.304C352.271 244.234 353.319 243.759 354.104 242.969Z" fill="#FFB7B7"/>
<path d="M417.575 243.19C418.007 242.689 418.324 242.099 418.503 241.462C418.682 240.825 418.72 240.156 418.613 239.503C418.505 238.85 418.256 238.228 417.883 237.682C417.51 237.135 417.021 236.677 416.451 236.34L417.908 226.098L411.9 223.695L410.046 238.188C409.543 239.182 409.423 240.326 409.707 241.404C409.991 242.481 410.661 243.417 411.589 244.033C412.517 244.65 413.639 244.905 414.742 244.749C415.846 244.594 416.854 244.039 417.575 243.19L417.575 243.19Z" fill="#FFB7B7"/>
<path d="M372.33 343.709L366.411 343.708L363.596 320.879L372.331 320.88L372.33 343.709Z" fill="#FFB7B7"/>
<path d="M373.84 349.446L354.755 349.445V349.204C354.755 347.234 355.538 345.345 356.931 343.952C358.324 342.559 360.213 341.776 362.183 341.776H362.184L373.84 341.776L373.84 349.446Z" fill="#2F2E41"/>
<path d="M392.124 343.709L386.205 343.708L383.39 320.879L392.125 320.88L392.124 343.709Z" fill="#FFB7B7"/>
<path d="M393.633 349.446L374.549 349.445V349.204C374.549 347.234 375.332 345.345 376.725 343.952C378.118 342.559 380.007 341.776 381.977 341.776H381.978L393.634 341.776L393.633 349.446Z" fill="#2F2E41"/>
<path d="M404.041 151.64L410.423 149.337C410.423 149.337 413.132 149.913 413.132 157.259C413.132 164.605 420.326 233.117 420.326 233.117L407.736 236.432L400.62 171.431L404.041 151.64Z" fill="#2F2E41"/>
<path d="M361.393 151.64L355.011 149.337C355.011 149.337 352.302 149.913 352.302 157.259C352.302 164.605 345.108 233.117 345.108 233.117L357.698 236.432L364.814 171.431L361.393 151.64Z" fill="#2F2E41"/>
<path d="M361.475 229.78L359.73 281.245L363.593 338.174L373.544 338.404L374.993 285.299L383.2 258.746L382.372 337.008L393.64 336.874L400.62 283.03C400.62 283.03 409.836 238.47 404.725 229.78L381.187 221.952L361.475 229.78Z" fill="#2F2E41"/>
<path d="M361.667 223.578L361.099 235.959C361.099 235.959 369.041 239.911 383 237.503C396.959 235.096 406.238 236.683 406.238 236.683L405.166 220.901L361.667 223.578Z" fill="#E5E5E5"/>
<path d="M354.757 149.52L373.113 141.477L374.208 137.264L392.064 137.781L392.836 142.085L410.423 149.337L402.675 176.281L403.469 195.235L413.132 229.78C413.132 229.78 404.982 236.701 385.401 233.723L382.022 226.915L379.955 234.115C379.955 234.115 362.785 240.431 358.027 232.209L361.475 172.812L354.757 149.52Z" fill="#2F2E41"/>
<path d="M382.974 133.307C389.522 133.307 394.831 127.998 394.831 121.449C394.831 114.901 389.522 109.592 382.974 109.592C376.425 109.592 371.116 114.901 371.116 121.449C371.116 127.998 376.425 133.307 382.974 133.307Z" fill="#FFB7B7"/>
<path d="M397.063 116.854C396.851 115.889 396.443 114.978 395.864 114.177C395.634 111.962 394.895 109.83 393.705 107.947C393.239 107.065 392.577 106.301 391.77 105.714C390.846 105.182 389.792 104.919 388.726 104.955C388.533 104.952 388.186 105.011 387.873 105.025C387.672 104.963 387.47 104.907 387.268 104.855C387.15 104.592 386.915 103.826 386.85 103.878L385.967 104.58C385.593 104.515 385.218 104.464 384.841 104.424C384.704 104.033 384.567 103.642 384.429 103.25C384.207 103.6 384.012 103.967 383.846 104.347C383.471 104.329 383.096 104.322 382.72 104.328L381.969 103.607C381.925 103.808 381.823 103.991 381.676 104.136C381.529 104.28 381.343 104.378 381.141 104.418C380.796 104.453 380.452 104.499 380.109 104.555C380.081 104.554 380.053 104.555 380.025 104.554C378.176 104.508 376.187 104.425 374.641 105.44C373.918 105.937 373.329 106.605 372.927 107.385C372.738 107.514 372.548 107.642 372.364 107.778C371.744 108.201 371.207 108.734 370.778 109.35C370.467 109.882 370.231 110.454 370.077 111.05C369.487 112.845 369.213 114.73 369.269 116.618C369.332 118.52 370.05 120.342 371.3 121.776C372.093 122.628 373.101 123.257 373.895 124.108C375.53 125.86 375.836 128.303 377.235 130.157C378.714 132.118 381.413 133.408 383.784 133.778C385.209 133.993 386.663 133.924 388.061 133.575C389.46 133.226 390.776 132.605 391.933 131.746C392.489 131.359 392.961 130.864 393.321 130.291C394.144 128.868 393.795 127.079 394.1 125.464C394.673 122.436 397.563 119.895 397.063 116.854Z" fill="#2F2E41"/>
<path d="M60.4592 105.352L59.7776 104.436L125.494 55.5109L189.929 103.573L255.246 32.6567L255.363 32.6087L318.752 6.44629L319.188 7.50183L255.915 33.6158L190.071 105.103L125.493 56.9347L60.4592 105.352Z" fill="#3F3D56"/>
</g>
<defs>
<clipPath id="clip0_392_86">
<rect width="476.799" height="350" fill="white" transform="translate(0.200928)"/>
</clipPath>
</defs>
</svg>
