<svg width="431" height="350" viewBox="0 0 431 350" fill="none" xmlns="http://www.w3.org/2000/svg">
<g clip-path="url(#clip0_392_669)">
<path d="M368.882 320.159V346.272C368.881 347.261 368.488 348.208 367.789 348.907C367.09 349.606 366.143 349.999 365.155 350H69.0847C68.0967 349.998 67.1499 349.604 66.4513 348.906C65.7527 348.207 65.3593 347.26 65.3572 346.272V313.194C65.7086 312.821 66.0601 312.453 66.4222 312.086C86.0888 291.7 109.767 275.611 135.963 264.833C162.159 254.056 190.304 248.825 218.623 249.469C246.941 250.114 274.819 256.62 300.498 268.578C326.176 280.535 349.098 297.685 367.817 318.945C368.179 319.344 368.531 319.754 368.882 320.159Z" fill="#8A4DB4"/>
<path d="M271.168 33.6898C270.87 33.5087 270.572 33.333 270.274 33.1626H239.155C238.931 33.5141 238.718 33.8708 238.51 34.2276H272.063C271.765 34.0466 271.467 33.8708 271.168 33.6898ZM65.3572 138.843V146.777C65.4903 146.787 65.6287 146.787 65.7619 146.793L65.4956 162.044L65.3572 161.969V163.471L65.469 163.529L65.3572 169.925V191.97H66.4222V135.248C66.124 136.398 65.769 137.597 65.3572 138.843V138.843ZM271.168 33.6898C270.87 33.5087 270.572 33.333 270.274 33.1626H239.155C238.931 33.5141 238.718 33.8708 238.51 34.2276H272.063C271.765 34.0466 271.467 33.8708 271.168 33.6898ZM365.155 33.1626H69.0847C68.0964 33.1637 67.1489 33.5568 66.4501 34.2556C65.7513 34.9544 65.3583 35.9019 65.3572 36.8901V346.273C65.3593 347.261 65.7527 348.207 66.4513 348.906C67.1499 349.605 68.0967 349.998 69.0847 350H365.155C366.143 349.999 367.09 349.606 367.789 348.907C368.488 348.208 368.881 347.261 368.882 346.273V36.8901C368.881 35.9019 368.488 34.9544 367.789 34.2556C367.09 33.5567 366.143 33.1637 365.155 33.1626V33.1626ZM367.817 346.273C367.817 346.979 367.536 347.656 367.037 348.155C366.538 348.654 365.861 348.935 365.155 348.935H69.0847C68.3786 348.935 67.7015 348.654 67.2023 348.155C66.703 347.656 66.4224 346.979 66.4222 346.273V36.8901C66.4233 36.1843 66.7042 35.5078 67.2033 35.0087C67.7023 34.5097 68.3789 34.2288 69.0847 34.2276H365.155C365.86 34.2288 366.537 34.5097 367.036 35.0087C367.535 35.5078 367.816 36.1843 367.817 36.8901V346.273Z" fill="#3F3D56"/>
<path d="M188.114 308.155L177.553 308.446C175.949 308.529 174.362 308.084 173.034 307.179C171.887 306.326 171.361 305.173 171.592 304.015L173.67 293.571C174.062 291.601 176.476 290.112 179.41 290.03L185.243 289.869C188.177 289.788 190.67 291.142 191.17 293.088L193.821 303.401C194.115 304.545 193.653 305.725 192.556 306.64C191.28 307.617 189.72 308.148 188.114 308.155Z" fill="#3F3D56"/>
<path d="M252.349 307.856L241.789 308.148C240.184 308.23 238.597 307.785 237.27 306.881C236.123 306.028 235.597 304.875 235.828 303.716L237.906 293.273C238.297 291.302 240.712 289.813 243.646 289.732L249.478 289.571C252.413 289.49 254.905 290.844 255.405 292.789L258.057 303.103C258.351 304.246 257.889 305.427 256.791 306.342C255.516 307.318 253.955 307.85 252.349 307.856Z" fill="#3F3D56"/>
<path d="M151.443 219.193C150.96 218.985 150.563 218.618 150.317 218.154C150.071 217.69 149.991 217.155 150.09 216.639C150.19 216.124 150.462 215.657 150.862 215.317C151.262 214.977 151.767 214.783 152.292 214.769L272.354 211.454C272.656 211.445 272.958 211.496 273.241 211.604C273.523 211.712 273.782 211.875 274.002 212.083C274.222 212.291 274.399 212.541 274.523 212.817C274.646 213.094 274.714 213.392 274.723 213.694V213.694C274.739 214.306 274.512 214.898 274.092 215.342C273.672 215.786 273.092 216.046 272.481 216.063L272.481 216.063L152.419 219.378C152.084 219.389 151.751 219.325 151.443 219.193Z" fill="#3F3D56"/>
<path d="M195.752 179.446L161.433 180.394L164.632 296.265L198.951 295.317L195.752 179.446Z" fill="#E6E6E6"/>
<path d="M196.623 177.365L190.025 195.336L190.031 277.212L198.07 279.518L196.623 177.365Z" fill="#CCCCCC"/>
<path d="M178.413 149.165C171.993 149.347 167.094 160.459 167.212 164.795L167.429 172.645L190.677 172.003L190.46 164.153C190.339 159.817 184.834 148.993 178.413 149.165Z" fill="#3F3D56"/>
<path d="M161.878 228.379C160.678 228.411 159.515 227.965 158.643 227.14C157.772 226.316 157.263 225.179 157.228 223.979L156.876 211.204C156.842 210.004 157.287 208.84 158.112 207.968C158.937 207.096 160.075 206.588 161.275 206.555C162.475 206.522 163.639 206.967 164.511 207.792C165.383 208.617 165.891 209.754 165.925 210.954L166.277 223.729C166.309 224.929 165.864 226.092 165.039 226.964C164.214 227.835 163.077 228.344 161.878 228.379Z" fill="#3F3D56"/>
<path d="M170.587 180.669L170.425 172.226L172.639 172.171L172.801 180.587L174.808 303.246L172.593 303.307" fill="#3F3D56"/>
<path d="M199.687 200.412L159.889 201.511C156.088 196.876 155.742 177.127 163.675 173.368L166.786 168.085L190.772 166.915L193.575 172.477C197.521 175.834 199.556 195.46 199.687 200.412Z" fill="#E6E6E6"/>
<path d="M184.708 190.94L174.643 191.218C172.701 191.272 171.05 188.752 170.963 185.602C170.876 182.453 172.386 179.846 174.328 179.792L184.392 179.514C186.334 179.46 187.985 181.98 188.072 185.13C188.159 188.28 186.65 190.887 184.708 190.94Z" fill="#8A4DB4"/>
<path d="M165.218 247.915L144.473 262.569L140.848 295.611L165.049 287.525L165.218 247.915Z" fill="#E6E6E6"/>
<path d="M262 178.027L227.681 178.975L230.881 294.845L265.2 293.898L262 178.027Z" fill="#E6E6E6"/>
<path d="M228.503 177.752L235.565 195.546L237.683 277.395L229.707 279.908L228.503 177.752Z" fill="#CCCCCC"/>
<path d="M279.163 145.858C281.648 145.858 283.662 143.157 283.662 139.826C283.662 136.495 281.648 133.794 279.163 133.794C276.679 133.794 274.665 136.495 274.665 139.826C274.665 143.157 276.679 145.858 279.163 145.858Z" fill="#E6E6E6"/>
<path d="M302.678 234.412C305.162 234.412 307.176 231.712 307.176 228.381C307.176 225.049 305.162 222.349 302.678 222.349C300.194 222.349 298.18 225.049 298.18 228.381C298.18 231.712 300.194 234.412 302.678 234.412Z" fill="#E6E6E6"/>
<path d="M127.639 217.484C130.123 217.484 132.137 214.784 132.137 211.453C132.137 208.121 130.123 205.421 127.639 205.421C125.155 205.421 123.141 208.121 123.141 211.453C123.141 214.784 125.155 217.484 127.639 217.484Z" fill="#E6E6E6"/>
<path d="M243.992 147.764C237.572 147.947 232.673 159.058 232.791 163.394L233.007 171.244L256.256 170.602L256.039 162.752C255.917 158.416 250.413 147.592 243.992 147.764Z" fill="#3F3D56"/>
<path d="M250.64 183.311L250.477 174.869L252.691 174.813L252.854 183.229L254.861 305.889L252.646 305.95" fill="#3F3D56"/>
<path d="M265.266 199.012L225.468 200.111C224.774 195.916 225.671 176.343 229.254 171.967L232.365 166.685L256.35 165.514L259.154 171.076C266.235 171.653 268.712 190.887 265.266 199.012Z" fill="#E6E6E6"/>
<path d="M250.335 191.303L240.271 191.581C238.329 191.634 236.666 188.719 236.566 185.083C236.466 181.447 237.964 178.445 239.906 178.391L249.971 178.113C251.913 178.06 253.575 180.975 253.675 184.611C253.776 188.247 252.277 191.249 250.335 191.303Z" fill="#8A4DB4"/>
<path d="M263.696 239.445L283.752 255.03L285.864 288.203L262.058 279.021L263.696 239.445Z" fill="#E6E6E6"/>
<path d="M258.095 85.7967C236.576 85.7967 211.844 61.9161 189.963 73.2624C123.712 107.616 132.831 50.1307 113.798 28.7514L114.423 27.498C128.832 82.4617 141.87 170.044 190.25 71.8046C202.37 47.1957 242.145 85.2342 265.558 84.1121L265.599 85.6186C263.126 85.7379 260.625 85.7972 258.095 85.7967Z" fill="#F2F2F2"/>
<path d="M309.746 89.1761C292.591 102.169 258.458 98.0643 247.865 120.32C215.794 187.706 188.356 136.374 160.276 130.823L160.017 129.447C188.128 131.778 218.28 128.161 247.215 118.985C273.363 110.693 296.692 98.3579 314.678 83.3274L315.62 84.5038C313.721 86.0918 311.763 87.6492 309.746 89.1761Z" fill="#F2F2F2"/>
<path d="M123.141 86.2176C125.625 86.2176 127.639 83.517 127.639 80.1857C127.639 76.8544 125.625 74.1538 123.141 74.1538C120.656 74.1538 118.642 76.8544 118.642 80.1857C118.642 83.517 120.656 86.2176 123.141 86.2176Z" fill="#E6E6E6"/>
<path d="M262.656 37.2276C265.14 37.2276 267.154 34.527 267.154 31.1957C267.154 27.8644 265.14 25.1638 262.656 25.1638C260.171 25.1638 258.157 27.8644 258.157 31.1957C258.157 34.527 260.171 37.2276 262.656 37.2276Z" fill="#E6E6E6"/>
<path d="M118.643 163.656C121.127 163.656 123.141 160.955 123.141 157.624C123.141 154.292 121.127 151.592 118.643 151.592C116.158 151.592 114.144 154.292 114.144 157.624C114.144 160.955 116.158 163.656 118.643 163.656Z" fill="#E6E6E6"/>
<path d="M164.323 110.563C162.267 111.933 160.162 108.671 162.258 107.362C164.314 105.992 166.419 109.253 164.323 110.563Z" fill="#E6E6E6"/>
<path d="M240.471 3.53004C238.414 4.90026 236.309 1.639 238.405 0.329622C240.462 -1.04053 242.567 2.22073 240.471 3.53004Z" fill="#E6E6E6"/>
<path d="M285.349 66.989L284.041 66.702L284.327 65.3931L283.455 65.2019L283.168 66.5108L281.86 66.2243L281.668 67.0965L282.977 67.3836L282.69 68.6919L283.563 68.8831L283.85 67.5742L285.158 67.8612L285.349 66.989Z" fill="#E6E6E6"/>
<path d="M165.423 23.1316C168.57 23.1316 171.122 20.5801 171.122 17.4326C171.122 14.2852 168.57 11.7336 165.423 11.7336C162.275 11.7336 159.724 14.2852 159.724 17.4326C159.724 20.5801 162.275 23.1316 165.423 23.1316Z" fill="#FF6584"/>
<path d="M207.107 10.2188C200.687 10.4012 195.788 21.5127 195.906 25.8487L196.122 33.6986L219.371 33.0566L219.154 25.2067C219.032 20.8708 213.528 10.0466 207.107 10.2188Z" fill="#3F3D56"/>
<path d="M220.951 307.47L210.39 307.762C208.786 307.844 207.199 307.399 205.871 306.495C204.724 305.642 204.198 304.489 204.429 303.331L206.507 292.887C206.899 290.917 209.313 289.427 212.247 289.346L218.08 289.185C221.014 289.104 223.507 290.458 224.007 292.404L226.658 302.717C226.952 303.86 226.49 305.041 225.392 305.956C224.117 306.932 222.557 307.464 220.951 307.47Z" fill="#3F3D56"/>
<path d="M225.66 60.1917L191.341 61.1394L197.808 295.359L232.127 294.411L225.66 60.1917Z" fill="#E6E6E6"/>
<path d="M211.928 173.568L211.765 165.125L213.979 165.07L214.142 173.486L216.149 296.145L213.934 296.206" fill="#3F3D56"/>
<path d="M232.417 81.6277L185.916 82.9118C185.105 78.011 186.154 55.1419 190.34 50.0287L191.487 43.9252L223.595 43.0386L225.275 48.9872C229.885 52.9106 232.263 75.8417 232.417 81.6277Z" fill="#E6E6E6"/>
<path d="M224.61 43.7587L191.476 44.6737C190.253 44.7074 189.244 44.0653 189.221 43.2395C189.218 43.1205 189.235 43.0019 189.272 42.8888L194.419 27.0335C194.639 26.3546 195.517 25.856 196.54 25.8277L218.514 25.221C219.538 25.1927 220.441 25.6422 220.699 26.3079L226.712 41.855C227.02 42.6502 226.31 43.4777 225.126 43.7032C224.956 43.7355 224.783 43.7541 224.61 43.7587Z" fill="#E6E6E6"/>
<path d="M194.745 172.491C194.446 172.363 194.163 172.199 193.903 172.004C193.53 171.742 193.222 171.399 193.003 171C192.783 170.601 192.658 170.157 192.636 169.703L191.432 126.103C191.383 124.298 193.15 122.78 195.371 122.718L225.033 121.899C227.256 121.837 229.103 123.256 229.153 125.061L230.357 168.661C230.361 169.116 230.26 169.566 230.063 169.977C229.866 170.387 229.577 170.747 229.219 171.029C228.427 171.674 227.44 172.032 226.418 172.046L196.756 172.864C196.067 172.887 195.38 172.76 194.745 172.491Z" fill="#3F3D56"/>
<path d="M213.73 40.9528L203.666 41.2307C201.724 41.2843 200.081 39.0901 200.005 36.3401C199.929 33.5901 201.448 31.3086 203.39 31.255L213.454 30.977C215.397 30.9234 217.039 33.1176 217.115 35.8676C217.191 38.6176 215.672 40.8992 213.73 40.9528Z" fill="#8A4DB4"/>
<path d="M262.851 225.549C261.651 225.581 260.488 225.135 259.616 224.311C258.745 223.486 258.236 222.349 258.201 221.149L257.848 208.374C257.816 207.175 258.261 206.012 259.086 205.14C259.911 204.269 261.049 203.761 262.248 203.728C263.447 203.695 264.611 204.139 265.483 204.964C266.355 205.788 266.863 206.925 266.897 208.124L267.25 220.9C267.282 222.099 266.837 223.262 266.012 224.134C265.187 225.006 264.05 225.514 262.851 225.549Z" fill="#3F3D56"/>
<path d="M97.5414 261.774C92.0854 261.774 88.5383 260.419 86.9684 257.723C83.8724 252.409 89.0576 243.083 102.379 230.006L103.499 231.146C91.1239 243.294 85.7435 252.447 88.3485 256.919C89.997 259.748 94.9029 260.762 102.539 259.85C110.119 258.945 120.165 256.248 132.397 251.834C157.579 242.745 189.174 227.415 221.359 208.667C253.544 189.919 282.464 169.999 302.793 152.576C306.697 149.229 310.241 146.009 313.325 143.006C317.374 139.161 321.109 134.998 324.495 130.558C329.054 124.366 330.593 119.598 328.945 116.769C326.192 112.043 314.627 112.488 296.379 118.022L295.916 116.493C315.494 110.556 327.071 110.378 330.326 115.965C332.348 119.436 330.819 124.665 325.781 131.505C322.343 136.016 318.551 140.244 314.439 144.151C311.331 147.177 307.762 150.42 303.832 153.789C283.432 171.273 254.428 191.252 222.163 210.047C189.897 228.842 158.21 244.216 132.939 253.336C120.593 257.792 110.429 260.517 102.728 261.436C101.007 261.651 99.2755 261.764 97.5414 261.774Z" fill="#3F3D56"/>
<path d="M225.511 74.1538L245.566 89.739L247.678 122.912L223.872 113.73L225.511 74.1538Z" fill="#E6E6E6"/>
<path d="M195.214 74.1538L175.159 89.739L173.047 122.912L196.853 113.73L195.214 74.1538Z" fill="#E6E6E6"/>
<path d="M206.531 49.9617L206.368 41.519L208.582 41.4641L208.745 49.8803L210.752 66.0395L208.537 66.1008" fill="#3F3D56"/>
<path d="M105.498 116.932C107.571 116.13 108.799 114.311 108.241 112.869C107.682 111.428 105.55 110.909 103.477 111.711C101.405 112.514 100.177 114.333 100.735 115.775C101.293 117.216 103.426 117.735 105.498 116.932Z" fill="#E6E6E6"/>
<path d="M131.593 113.585C133.665 112.783 134.893 110.964 134.335 109.522C133.777 108.08 131.644 107.562 129.572 108.364C127.499 109.166 126.272 110.985 126.83 112.427C127.388 113.869 129.52 114.387 131.593 113.585Z" fill="#E6E6E6"/>
<path d="M103.235 139.195C105.308 138.393 106.535 136.574 105.977 135.132C105.419 133.69 103.287 133.172 101.214 133.974C99.1418 134.776 97.9141 136.596 98.4722 138.037C99.0303 139.479 101.163 139.997 103.235 139.195Z" fill="#E6E6E6"/>
<path d="M95.6865 149.015C96.6373 148.79 97.1458 147.5 96.8223 146.133C96.4988 144.766 95.4658 143.841 94.515 144.066C93.5642 144.291 93.0557 145.581 93.3792 146.948C93.7027 148.315 94.7357 149.24 95.6865 149.015Z" fill="#E6E6E6"/>
<path d="M95.5313 165.641C96.482 165.416 96.9906 164.126 96.6671 162.759C96.3436 161.392 95.3105 160.467 94.3598 160.692C93.409 160.917 92.9004 162.207 93.2239 163.574C93.5474 164.941 94.5805 165.866 95.5313 165.641Z" fill="#E6E6E6"/>
<path d="M118.434 131.205C119.384 130.98 119.893 129.69 119.569 128.323C119.246 126.956 118.213 126.031 117.262 126.256C116.311 126.481 115.803 127.771 116.126 129.138C116.45 130.505 117.483 131.43 118.434 131.205Z" fill="#E6E6E6"/>
<path d="M104.69 127.868C105.641 127.643 106.149 126.352 105.826 124.985C105.502 123.619 104.469 122.693 103.519 122.918C102.568 123.143 102.059 124.434 102.383 125.8C102.706 127.167 103.739 128.093 104.69 127.868Z" fill="#E6E6E6"/>
<path d="M119.257 112.558C120.208 112.333 120.716 111.042 120.393 109.676C120.069 108.309 119.036 107.383 118.086 107.608C117.135 107.833 116.626 109.124 116.95 110.491C117.273 111.857 118.306 112.783 119.257 112.558Z" fill="#E6E6E6"/>
<path d="M333.657 192.043C335.805 191.471 337.223 189.796 336.825 188.302C336.427 186.808 334.364 186.061 332.217 186.633C330.069 187.205 328.651 188.879 329.049 190.373C329.446 191.867 331.51 192.615 333.657 192.043Z" fill="#E6E6E6"/>
<path d="M307.354 192.53C309.501 191.958 310.919 190.283 310.522 188.789C310.124 187.295 308.06 186.548 305.913 187.12C303.765 187.692 302.347 189.367 302.745 190.86C303.143 192.354 305.206 193.102 307.354 192.53Z" fill="#E6E6E6"/>
<path d="M338.33 170.158C340.478 169.586 341.896 167.912 341.498 166.418C341.1 164.924 339.037 164.176 336.889 164.748C334.742 165.32 333.324 166.995 333.721 168.489C334.119 169.983 336.183 170.73 338.33 170.158Z" fill="#E6E6E6"/>
<path d="M346.088 160.856C347.058 160.736 347.704 159.508 347.531 158.114C347.358 156.72 346.432 155.688 345.462 155.808C344.493 155.928 343.847 157.156 344.019 158.55C344.192 159.944 345.118 160.976 346.088 160.856Z" fill="#E6E6E6"/>
<path d="M348.052 144.346C349.022 144.225 349.668 142.998 349.495 141.604C349.322 140.21 348.396 139.178 347.426 139.298C346.457 139.418 345.811 140.646 345.984 142.039C346.156 143.433 347.083 144.466 348.052 144.346Z" fill="#E6E6E6"/>
<path d="M321.538 176.085C322.507 175.964 323.153 174.737 322.981 173.343C322.808 171.949 321.882 170.917 320.912 171.037C319.942 171.157 319.296 172.385 319.469 173.778C319.642 175.172 320.568 176.205 321.538 176.085Z" fill="#E6E6E6"/>
<path d="M334.836 180.898C335.806 180.778 336.452 179.55 336.279 178.156C336.106 176.762 335.18 175.73 334.21 175.85C333.241 175.97 332.595 177.198 332.768 178.592C332.94 179.986 333.866 181.018 334.836 180.898Z" fill="#E6E6E6"/>
<path d="M318.689 194.531C319.659 194.411 320.305 193.183 320.132 191.79C319.959 190.396 319.033 189.363 318.064 189.483C317.094 189.604 316.448 190.831 316.621 192.225C316.794 193.619 317.72 194.651 318.689 194.531Z" fill="#E6E6E6"/>
<path d="M382.802 278.624C375.926 278.624 368.39 278.364 360.194 277.844C317.8 275.152 262.886 265.792 205.569 251.49C148.252 237.187 95.3784 219.649 56.6894 202.109C37.8429 193.564 23.3783 185.475 13.6979 178.068C3.44879 170.226 -1.03429 163.39 0.372618 157.751C3.11393 146.766 27.3869 144.363 47.2667 144.281L47.2735 145.879C19.9732 145.991 3.86744 150.345 1.92282 158.138C-0.55429 168.064 19.6479 183.56 57.3491 200.654C95.953 218.156 148.729 235.66 205.956 249.94C263.182 264.22 317.994 273.564 360.295 276.25C401.606 278.874 426.721 274.686 429.198 264.76C431.254 256.518 417.697 244.378 391.023 230.574L391.758 229.155C411.139 239.186 433.636 253.571 430.748 265.146C429.341 270.785 422.172 274.713 409.44 276.82C402.182 278.022 393.268 278.624 382.802 278.624Z" fill="#8A4DB4"/>
</g>
<defs>
<clipPath id="clip0_392_669">
<rect width="430.88" height="350" fill="white" transform="translate(0.120361)"/>
</clipPath>
</defs>
</svg>
