<svg width="16" height="16" viewBox="0 0 16 16" fill="none" xmlns="http://www.w3.org/2000/svg">
<path fill-rule="evenodd" clip-rule="evenodd" d="M8.2345 2.63438C8.38452 2.4844 8.58797 2.40015 8.8001 2.40015C9.01223 2.40015 9.21568 2.4844 9.3657 2.63438L14.1657 7.43438C14.3157 7.5844 14.3999 7.78784 14.3999 7.99998C14.3999 8.21211 14.3157 8.41555 14.1657 8.56558L9.3657 13.3656C9.21482 13.5113 9.01273 13.5919 8.80298 13.5901C8.59322 13.5883 8.39257 13.5042 8.24424 13.3558C8.09592 13.2075 8.01178 13.0069 8.00996 12.7971C8.00814 12.5873 8.08877 12.3853 8.2345 12.2344L11.6689 8.79998H2.4001C2.18792 8.79998 1.98444 8.71569 1.83441 8.56566C1.68438 8.41563 1.6001 8.21215 1.6001 7.99998C1.6001 7.7878 1.68438 7.58432 1.83441 7.43429C1.98444 7.28426 2.18792 7.19998 2.4001 7.19998H11.6689L8.2345 3.76558C8.08452 3.61555 8.00027 3.41211 8.00027 3.19998C8.00027 2.98784 8.08452 2.7844 8.2345 2.63438Z" fill="#FAFAFA"/>
</svg>
