<svg width="24" height="24" viewBox="0 0 24 24" fill="none" xmlns="http://www.w3.org/2000/svg">
<path fill-rule="evenodd" clip-rule="evenodd" d="M12.0001 3.59998C12.3184 3.59998 12.6236 3.7264 12.8486 3.95145C13.0737 4.17649 13.2001 4.48172 13.2001 4.79998V10.8H19.2001C19.5184 10.8 19.8236 10.9264 20.0486 11.1514C20.2737 11.3765 20.4001 11.6817 20.4001 12C20.4001 12.3182 20.2737 12.6235 20.0486 12.8485C19.8236 13.0735 19.5184 13.2 19.2001 13.2H13.2001V19.2C13.2001 19.5182 13.0737 19.8235 12.8486 20.0485C12.6236 20.2735 12.3184 20.4 12.0001 20.4C11.6818 20.4 11.3766 20.2735 11.1516 20.0485C10.9265 19.8235 10.8001 19.5182 10.8001 19.2V13.2H4.8001C4.48184 13.2 4.17661 13.0735 3.95157 12.8485C3.72653 12.6235 3.6001 12.3182 3.6001 12C3.6001 11.6817 3.72653 11.3765 3.95157 11.1514C4.17661 10.9264 4.48184 10.8 4.8001 10.8H10.8001V4.79998C10.8001 4.48172 10.9265 4.17649 11.1516 3.95145C11.3766 3.7264 11.6818 3.59998 12.0001 3.59998Z" fill="#334155"/>
</svg>
