<svg width="32" height="32" viewBox="0 0 32 32" fill="none" xmlns="http://www.w3.org/2000/svg">
<path fill-rule="evenodd" clip-rule="evenodd" d="M8.10908 4.79018L16 4L23.8909 4.79018L29.9999 12.558L16 27.9999L2 12.558L8.10908 4.79018Z" fill="#FDB300"/>
<path d="M7.67063 12.5581L15.9999 28.0001L2 12.5581H7.67063ZM24.3294 12.5581L16.0001 28.0001L30 12.5581" fill="#EA6C00"/>
<path fill-rule="evenodd" clip-rule="evenodd" d="M7.67065 12.5581H24.3292L15.9999 28.0001" fill="#FDAD00"/>
<path d="M15.9999 4L8.10904 4.79004L7.67065 12.5579L15.9999 4ZM16.0001 4L23.8909 4.79004L24.3293 12.5579" fill="#FDD231"/>
<path d="M30 12.5579L23.891 4.79004L24.3294 12.5579H30ZM2 12.5579L8.10901 4.79004L7.67063 12.5579" fill="#FDAD00"/>
<path fill-rule="evenodd" clip-rule="evenodd" d="M15.9999 4L7.67065 12.5579H24.3292" fill="#FEEEB7"/>
</svg>
