<svg width="25" height="24" viewBox="0 0 25 24" fill="none" xmlns="http://www.w3.org/2000/svg">
<g clip-path="url(#clip0_409_1498)">
<path d="M22.5567 0H2.10513C1.12544 0 0.333252 0.773438 0.333252 1.72969V22.2656C0.333252 23.2219 1.12544 24 2.10513 24H22.5567C23.5364 24 24.3333 23.2219 24.3333 22.2703V1.72969C24.3333 0.773438 23.5364 0 22.5567 0ZM7.45356 20.4516H3.89106V8.99531H7.45356V20.4516ZM5.67231 7.43438C4.52856 7.43438 3.60513 6.51094 3.60513 5.37187C3.60513 4.23281 4.52856 3.30937 5.67231 3.30937C6.81138 3.30937 7.73481 4.23281 7.73481 5.37187C7.73481 6.50625 6.81138 7.43438 5.67231 7.43438ZM20.7848 20.4516H17.227V14.8828C17.227 13.5562 17.2036 11.8453 15.3754 11.8453C13.5239 11.8453 13.2426 13.2937 13.2426 14.7891V20.4516H9.6895V8.99531H13.102V10.5609H13.1489C13.6223 9.66094 14.7848 8.70938 16.5145 8.70938C20.1192 8.70938 20.7848 11.0813 20.7848 14.1656V20.4516Z" fill="#FAFAFA"/>
</g>
<defs>
<clipPath id="clip0_409_1498">
<rect width="24" height="24" fill="white" transform="translate(0.333252)"/>
</clipPath>
</defs>
</svg>
