<?xml version="1.0" encoding="UTF-8"?>
<!-- Created with Inkscape (http://www.inkscape.org/) -->
<svg width="99.207mm" height="14.502mm" version="1.1" viewBox="0 0 99.207 14.502" xmlns="http://www.w3.org/2000/svg">
 <g transform="translate(-54.789 -156.55)">
  <g transform="translate(-6.2487 -60.875)" fill="#1d4ed8" stroke-linecap="round" stroke-width="1.5875" style="paint-order:stroke fill markers" aria-label="&lt;/&gt;">
   <g transform="translate(-.83074 -2.1599)" stroke-width="1.587" style="font-variation-settings:'wght' 700" aria-label="BROADENCY">
    <g fill="#3b82f6">
     <path d="m65.809 220.12q2.0977 0 3.3381 0.85734 1.2404 0.8391 1.2404 2.5173 0 1.2404-0.6202 2.0795-0.60196 0.82086-1.6599 1.2404-1.0397 0.40131-2.3896 0.40131l-0.41955-1.4228q1.6599 0 2.9368 0.45603 1.2951 0.45603 2.043 1.3134 0.74789 0.8391 0.74789 2.0248 0 1.0945-0.40131 1.8606-0.38306 0.74789-1.058 1.2222-0.65668 0.45603-1.4958 0.67492-0.8391 0.20066-1.7329 0.20066h-4.4691v-13.426zm0.3101 5.4906q0.78437 0 1.1492-0.47428 0.38306-0.47427 0.38306-1.0762 0-0.69316-0.47427-1.0397-0.45603-0.34659-1.2404-0.34659h-1.4228v2.9368zm0.09121 5.4724q0.58372 0 1.058-0.14593 0.47427-0.16417 0.74789-0.49252 0.27362-0.34658 0.27362-0.85733 0-0.58372-0.32834-0.87558-0.32834-0.3101-0.85734-0.41955-0.51075-0.12769-1.0762-0.12769h-1.514v2.9186z"/>
     <path d="m71.55 220.12v6.3143l0.0088 0.0103c-0.0017-2e-3 -0.0041-2e-3 -0.0057-4e-3v5.2e-4c0.79107 0.89193 1.172 1.9573 1.172 3.1461 0 0.93429-0.1705 1.8376-0.5917 2.6443-0.1664 0.32341-0.36073 0.62147-0.58343 0.89452v0.41961h2.6448v-4.2685h1.7611l2.836 4.2685h3.0825l-3.1238-4.8746c0.42653-0.24588 0.78086-0.54204 1.0625-0.88936 0.37698-0.44995 0.64444-0.9488 0.80254-1.496 0.17025-0.54723 0.2558-1.0945 0.2558-1.6418 0-0.69316-0.1157-1.3131-0.34675-1.8604-0.23106-0.5594-0.57169-1.0335-1.0216-1.4226-0.43779-0.40131-0.98508-0.70536-1.6418-0.91209-0.65668-0.2189-1.4047-0.32866-2.2438-0.32866zm2.6448 2.5538h1.897c0.46211 0 0.82697 0.0791 1.0945 0.23719 0.2797 0.15809 0.48635 0.35288 0.62012 0.58394 0.13377 0.23106 0.21932 0.46193 0.2558 0.69299 0.04864 0.21889 0.07286 0.40132 0.07286 0.54725 0 0.19457-0.03659 0.40715-0.10955 0.6382-0.0608 0.2189-0.17006 0.43199-0.32815 0.63872-0.14593 0.20674-0.3531 0.37679-0.62063 0.51057-0.26754 0.13376-0.60173 0.2005-1.003 0.2005h-1.879zm-2.6448 3.762v2e-3c8.26e-4 9.1e-4 0.0018 2e-3 0.0026 3e-3 -9.95e-4 -1e-3 -0.0019-3e-3 -0.0026-4e-3z"/>
     <path d="m87.868 219.97c-0.94854 0-1.8365 0.18243-2.6634 0.54725-0.82693 0.36483-1.5567 0.8696-2.189 1.5141-0.24806 0.25293-0.47428 0.52159-0.67954 0.80564 0.15914 0.57668 0.23409 1.1807 0.23409 1.803 1e-6 0.71963-0.11349 1.4303-0.32763 2.126 0.0014-4e-3 0.0045-8e-3 0.0057-0.0114l-0.0098 0.0336c0.0021-7e-3 0.0017-0.014 0.0036-0.0207-0.20506 0.70368-0.52968 1.3329-0.97513 1.9089 0.07773 0.28431 0.17372 0.56232 0.28939 0.83355 0.35266 0.82693 0.83914 1.5566 1.4593 2.189 0.63236 0.6202 1.3621 1.1067 2.189 1.4593 0.82693 0.35267 1.7149 0.52917 2.6634 0.52917 0.93638 0 1.8179-0.1765 2.6448-0.52917 0.82693-0.35266 1.5567-0.83914 2.189-1.4593 0.64452-0.63237 1.1434-1.3621 1.496-2.189 0.36482-0.82694 0.54674-1.7144 0.54674-2.6629 0-0.92422-0.18191-1.8003-0.54674-2.6272-0.35266-0.82693-0.85151-1.5561-1.496-2.1885-0.63236-0.64452-1.3621-1.1493-2.189-1.5141-0.82693-0.36482-1.7084-0.54725-2.6448-0.54725zm0.01809 2.5538c0.58372 0 1.1251 0.10925 1.6237 0.32814 0.49859 0.2189 0.93019 0.52887 1.295 0.93018 0.37698 0.38914 0.66866 0.84547 0.8754 1.3684 0.21889 0.52291 0.32866 1.0885 0.32866 1.6965 0 0.59588-0.10332 1.155-0.31006 1.6779-0.20673 0.51076-0.49249 0.96657-0.85731 1.3679-0.36482 0.38914-0.79694 0.69319-1.2955 0.91209-0.48643 0.21889-1.0154 0.32866-1.587 0.32866-0.59588 0-1.1491-0.10977-1.6598-0.32866-0.49859-0.2189-0.94256-0.52295-1.3317-0.91209-0.37698-0.40131-0.67459-0.85712-0.89349-1.3679-0.20673-0.52291-0.31006-1.082-0.31006-1.6779 0-0.60804 0.10332-1.1736 0.31006-1.6965 0.20673-0.52292 0.49841-0.97925 0.8754-1.3684 0.37698-0.40131 0.8145-0.71128 1.3131-0.93018 0.49859-0.21889 1.04-0.32814 1.6237-0.32814z"/>
     <path d="m98.912 219.59-2.574 5.9304c0.06967 0.43409 0.1049 0.8766 0.1049 1.3291 0 1.1701-0.22649 2.2899-0.68936 3.3419 0.0019-5e-3 0.0059-7e-3 0.0078-0.0114l-0.0098 0.0191c0.0011-3e-3 9.67e-4 -6e-3 0.0021-8e-3 -0.44071 1.0287-1.0629 1.9388-1.8614 2.7223-0.22842 0.22403-0.46738 0.4342-0.71624 0.63045h2.2887l1.0935-2.6267h4.4561l1.0351 2.6267h3.0649l-6.0565-13.954zm-0.06408 5.8291 1.2893 3.2732h-2.6526z"/>
     <path d="m104.67 220.12v8.1302l2.2986 5.2953h2.3714c0.91206 0 1.7752-0.14584 2.59-0.4377 0.81477-0.30402 1.5326-0.73561 2.1528-1.295 0.6202-0.57155 1.1067-1.2528 1.4593-2.0433 0.36482-0.80262 0.54725-1.7024 0.54725-2.6996 0-0.83909-0.13398-1.6721-0.40152-2.4991s-0.69321-1.575-1.2769-2.2438c-0.57156-0.66885-1.3314-1.2038-2.28-1.6051-0.94854-0.40131-2.098-0.60203-3.4478-0.60203zm2.6453 2.5358h2.1523c0.30402 0 0.67481 0.0608 1.1126 0.18242 0.43778 0.10944 0.86346 0.31609 1.2769 0.62011 0.42563 0.30402 0.77864 0.73562 1.0583 1.295 0.29185 0.54723 0.43769 1.2586 0.43769 2.1342 0 0.66885-0.10976 1.2646-0.32866 1.7875-0.20673 0.51075-0.51078 0.93643-0.91209 1.2769-0.38914 0.3405-0.85733 0.60204-1.4046 0.78445-0.54724 0.17026-1.1553 0.25528-1.8242 0.25528h-1.5684z"/>
     <path d="m116.72 220.12v2.56c0.23704 0.43428 0.43412 0.88987 0.5886 1.3674 0.32124 0.99288 0.48214 1.9974 0.48214 3.0215 0 1.2099-0.22166 2.349-0.69918 3.4003v2e-3c-0.1127 0.25168-0.23644 0.49589-0.37156 0.73174v2.3425h8.6465v-2.5538h-6.0012v-2.9001h5.764v-2.5538h-5.764v-2.8639h6.0012v-2.5538z"/>
     <path d="m139.09 234.09-10.179-9.1936 0.78437 0.43779 0.0547 8.2085h-2.6814v-13.955h0.10945l9.9597 9.1571-0.58372-0.25537-0.0547-8.3727h2.6632v13.973z"/>
    </g>
    <path d="m146.15 219.97c-0.97287 0-1.8608 0.17006-2.6634 0.51056-0.80262 0.3405-1.4958 0.82106-2.0795 1.4413-0.19972 0.21671-0.38338 0.44754-0.55191 0.69246v8.3685c0.16279 0.23079 0.34039 0.45157 0.53382 0.66146 0.58371 0.6202 1.2892 1.1126 2.1162 1.4774 0.8391 0.35265 1.7873 0.54152 2.8453 0.56586 0.69317 0.0122 1.3255-0.061 1.897-0.21911 0.57155-0.15809 1.0521-0.34052 1.4412-0.54725 0.40131-0.20674 0.67469-0.37087 0.82062-0.49248l-1.0945-2.3714c-0.26754 0.25537-0.65662 0.49861-1.1674 0.72967-0.51076 0.23105-1.1248 0.34675-1.8423 0.34675-0.62021 0-1.1793-0.10333-1.6779-0.31006-0.48643-0.20673-0.90617-0.49893-1.2588-0.87592-0.35266-0.38914-0.62605-0.85088-0.82062-1.386-0.18242-0.53507-0.27389-1.1249-0.27389-1.7694 0-0.60804 0.10333-1.1677 0.31006-1.6784 0.20673-0.52291 0.48656-0.97873 0.83923-1.3679 0.36482-0.38915 0.77812-0.68727 1.2402-0.89401 0.47427-0.21889 0.96668-0.32814 1.4774-0.32814 0.65669 0 1.2346 0.12754 1.7332 0.38292 0.51075 0.24321 0.91813 0.48053 1.2222 0.71159l1.0397-2.4991c-0.43779-0.2797-1.0034-0.54123-1.6965-0.78445-0.69317-0.24321-1.4896-0.36483-2.3895-0.36483z" fill="#fafafa"/>
    <path d="m157.81 220.12-3.0102 6.197-2.6572-5.3423-1.4149 3.4018 2.668 4.992v4.177h2.6448v-4.177l5.0348-9.2485z" fill="#fafafa"/>
   </g>
  </g>
 </g>
</svg>
