<svg width="514" height="389" viewBox="0 0 514 389" fill="none" xmlns="http://www.w3.org/2000/svg">
<g clip-path="url(#clip0_85_849)">
<path d="M296.203 19.3841C300.612 28.7663 291.27 31.4239 280.568 36.4526C269.866 41.4814 261.858 46.9772 257.449 37.5949C253.04 28.2126 249.463 9.5905 264.602 2.47641C280.263 -4.88275 291.794 10.0018 296.203 19.3841Z" fill="#2F2E41"/>
<path d="M274.369 37.8353C282.325 37.8353 288.776 31.3851 288.776 23.4285C288.776 15.4719 282.325 9.02173 274.369 9.02173C266.412 9.02173 259.962 15.4719 259.962 23.4285C259.962 31.3851 266.412 37.8353 274.369 37.8353Z" fill="#FFB8B8"/>
<path d="M345.743 87.3196C345.245 86.6685 344.746 86.0291 344.242 85.4073C343.591 84.5979 342.936 83.8138 342.277 83.0552C334.809 74.4385 326.867 69.0127 318.122 68.432H318.11L317.981 68.4203L300.553 85.4073L294.629 91.1792L294.758 91.4959L297.955 99.4557H353.967C351.443 95.2672 348.698 91.2161 345.743 87.3196Z" fill="#2F2E41"/>
<path d="M258.702 29.2286L263.859 26.8052L263.141 19.3656L266.59 25.5224L269.054 24.3641L268.635 20.0243L270.647 23.6157L288.963 15.0092C287.242 11.3485 284.138 8.52101 280.333 7.14885C276.529 5.77669 272.334 5.97222 268.674 7.69241L266.019 8.93974C262.358 10.66 259.531 13.7639 258.159 17.5688C256.786 21.3737 256.982 25.5679 258.702 29.2286Z" fill="#2F2E41"/>
<path d="M378.064 290.735H77.2448C74.6788 290.732 72.2187 289.711 70.4043 287.897C68.5898 286.083 67.5692 283.622 67.5663 281.056V100.303C67.5684 98.4228 68.3161 96.6206 69.6453 95.2913C70.9746 93.962 72.7769 93.2142 74.6568 93.212H380.529C382.441 93.2142 384.275 93.9749 385.627 95.3272C386.979 96.6794 387.74 98.5129 387.742 100.425V281.056C387.739 283.622 386.719 286.083 384.904 287.897C383.09 289.711 380.63 290.732 378.064 290.735Z" fill="#F2F2F2"/>
<path d="M86.63 281.056H368.678C371.167 281.056 373.555 280.068 375.315 278.308C377.075 276.548 378.064 274.16 378.064 271.671V118.255C378.064 115.766 377.075 113.379 375.315 111.619C373.555 109.859 371.167 108.87 368.678 108.87H86.63C84.1409 108.87 81.7537 109.859 79.9936 111.619C78.2336 113.379 77.2448 115.766 77.2448 118.255V271.671C77.2448 274.16 78.2336 276.548 79.9936 278.308C81.7537 280.068 84.1409 281.056 86.63 281.056Z" fill="white"/>
<path d="M387.607 99.7491H67.4304V94.8217C67.4341 92.2472 68.4589 89.7793 70.28 87.9594C72.101 86.1395 74.5696 85.1162 77.1442 85.1141H377.894C380.468 85.1162 382.937 86.1394 384.758 87.9593C386.579 89.7792 387.604 92.2472 387.607 94.8217V99.7491Z" fill="#111827"/>
<path d="M85.0837 94.9587C86.4713 94.9587 87.5962 93.8338 87.5962 92.4462C87.5962 91.0585 86.4713 89.9337 85.0837 89.9337C83.696 89.9337 82.5711 91.0585 82.5711 92.4462C82.5711 93.8338 83.696 94.9587 85.0837 94.9587Z" fill="white"/>
<path d="M94.6207 94.9587C96.0083 94.9587 97.1332 93.8338 97.1332 92.4462C97.1332 91.0585 96.0083 89.9337 94.6207 89.9337C93.233 89.9337 92.1081 91.0585 92.1081 92.4462C92.1081 93.8338 93.233 94.9587 94.6207 94.9587Z" fill="white"/>
<path d="M104.158 94.9587C105.545 94.9587 106.67 93.8338 106.67 92.4462C106.67 91.0585 105.545 89.9337 104.158 89.9337C102.77 89.9337 101.645 91.0585 101.645 92.4462C101.645 93.8338 102.77 94.9587 104.158 94.9587Z" fill="white"/>
<path d="M236.455 247.786H211.232C209.755 247.784 208.338 247.196 207.294 246.152C206.249 245.107 205.661 243.691 205.66 242.213V216.991C205.661 215.513 206.249 214.097 207.294 213.052C208.338 212.008 209.755 211.42 211.232 211.418H236.455C237.932 211.42 239.349 212.008 240.393 213.052C241.438 214.097 242.026 215.513 242.027 216.991V242.213C242.026 243.691 241.438 245.107 240.393 246.152C239.349 247.196 237.932 247.784 236.455 247.786ZM211.232 212.591C210.066 212.593 208.947 213.057 208.123 213.881C207.298 214.706 206.834 215.824 206.833 216.991V242.213C206.834 243.38 207.298 244.498 208.123 245.323C208.947 246.147 210.066 246.611 211.232 246.612H236.455C237.621 246.611 238.739 246.147 239.564 245.323C240.389 244.498 240.853 243.38 240.854 242.213V216.991C240.853 215.824 240.389 214.706 239.564 213.881C238.739 213.057 237.621 212.593 236.455 212.591H211.232Z" fill="#CCCCCC"/>
<path d="M231.469 240.747H216.218C215.751 240.746 215.304 240.561 214.974 240.231C214.644 239.901 214.459 239.454 214.458 238.987V220.217C214.459 219.75 214.644 219.303 214.974 218.973C215.304 218.643 215.751 218.458 216.218 218.457H227.269C227.67 218.457 228.058 218.594 228.371 218.845L232.571 222.22C232.777 222.385 232.943 222.593 233.057 222.831C233.171 223.068 233.229 223.328 233.229 223.592V238.987C233.228 239.454 233.043 239.901 232.713 240.231C232.383 240.561 231.936 240.746 231.469 240.747ZM216.218 219.63C216.062 219.63 215.913 219.692 215.803 219.802C215.693 219.912 215.632 220.061 215.631 220.217V238.987C215.632 239.143 215.693 239.292 215.803 239.402C215.913 239.512 216.062 239.573 216.218 239.574H231.469C231.624 239.573 231.774 239.512 231.884 239.402C231.993 239.292 232.055 239.143 232.056 238.987V223.592C232.056 223.504 232.036 223.417 231.998 223.338C231.96 223.259 231.905 223.19 231.836 223.135L227.636 219.759C227.532 219.676 227.402 219.63 227.269 219.63H216.218Z" fill="#CCCCCC"/>
<path d="M228.536 226.669H219.151C218.995 226.669 218.846 226.607 218.736 226.497C218.626 226.387 218.564 226.238 218.564 226.083C218.564 225.927 218.626 225.778 218.736 225.668C218.846 225.558 218.995 225.496 219.151 225.496H228.536C228.692 225.496 228.841 225.558 228.951 225.668C229.061 225.778 229.123 225.927 229.123 226.083C229.123 226.238 229.061 226.387 228.951 226.497C228.841 226.607 228.692 226.669 228.536 226.669Z" fill="#CCCCCC"/>
<path d="M228.536 230.189H219.151C218.995 230.189 218.846 230.127 218.736 230.017C218.626 229.907 218.564 229.758 218.564 229.602C218.564 229.446 218.626 229.297 218.736 229.187C218.846 229.077 218.995 229.015 219.151 229.015H228.536C228.692 229.015 228.841 229.077 228.951 229.187C229.061 229.297 229.123 229.446 229.123 229.602C229.123 229.758 229.061 229.907 228.951 230.017C228.841 230.127 228.692 230.189 228.536 230.189Z" fill="#CCCCCC"/>
<path d="M228.536 233.708H219.151C218.995 233.708 218.846 233.646 218.736 233.536C218.626 233.426 218.564 233.277 218.564 233.121C218.564 232.966 218.626 232.817 218.736 232.707C218.846 232.597 218.995 232.535 219.151 232.535H228.536C228.692 232.535 228.841 232.597 228.951 232.707C229.061 232.817 229.123 232.966 229.123 233.121C229.123 233.277 229.061 233.426 228.951 233.536C228.841 233.646 228.692 233.708 228.536 233.708Z" fill="#CCCCCC"/>
<path d="M296.286 247.786H271.063C269.585 247.784 268.169 247.196 267.124 246.152C266.08 245.107 265.492 243.691 265.49 242.213V216.991C265.492 215.513 266.08 214.097 267.124 213.052C268.169 212.008 269.585 211.42 271.063 211.418H296.286C297.763 211.42 299.179 212.008 300.224 213.052C301.269 214.097 301.856 215.513 301.858 216.991V242.213C301.856 243.691 301.269 245.107 300.224 246.152C299.179 247.196 297.763 247.784 296.286 247.786ZM271.063 212.591C269.896 212.593 268.778 213.057 267.953 213.881C267.129 214.706 266.665 215.824 266.664 216.991V242.213C266.665 243.38 267.129 244.498 267.953 245.323C268.778 246.147 269.896 246.611 271.063 246.612H296.286C297.452 246.611 298.57 246.147 299.395 245.323C300.22 244.498 300.684 243.38 300.685 242.213V216.991C300.684 215.824 300.22 214.706 299.395 213.881C298.57 213.057 297.452 212.593 296.286 212.591H271.063Z" fill="#CCCCCC"/>
<path d="M291.886 236.054H275.462C274.996 236.054 274.548 235.868 274.218 235.538C273.888 235.208 273.703 234.761 273.702 234.294V224.909C273.703 224.443 273.888 223.996 274.218 223.666C274.548 223.336 274.996 223.15 275.462 223.15H291.886C292.353 223.15 292.8 223.336 293.13 223.666C293.46 223.996 293.645 224.443 293.646 224.909V234.294C293.645 234.761 293.46 235.208 293.13 235.538C292.8 235.868 292.353 236.054 291.886 236.054ZM275.462 224.323C275.307 224.323 275.157 224.385 275.048 224.495C274.938 224.605 274.876 224.754 274.876 224.909V234.294C274.876 234.45 274.938 234.599 275.048 234.709C275.157 234.819 275.307 234.881 275.462 234.881H291.886C292.042 234.881 292.191 234.819 292.301 234.709C292.411 234.599 292.473 234.45 292.473 234.294V224.909C292.473 224.754 292.411 224.605 292.301 224.495C292.191 224.385 292.042 224.323 291.886 224.323H275.462Z" fill="#CCCCCC"/>
<path d="M283.674 231.149C283.345 231.15 283.022 231.058 282.742 230.884L273.978 225.407C273.846 225.324 273.753 225.193 273.718 225.041C273.683 224.89 273.71 224.731 273.792 224.599C273.875 224.467 274.006 224.373 274.158 224.338C274.309 224.303 274.468 224.33 274.6 224.412L283.364 229.889C283.457 229.947 283.565 229.977 283.675 229.977C283.784 229.977 283.892 229.947 283.985 229.889L292.748 224.412C292.88 224.33 293.039 224.303 293.191 224.338C293.342 224.373 293.474 224.467 293.556 224.599C293.638 224.731 293.665 224.89 293.63 225.041C293.596 225.193 293.502 225.324 293.37 225.407L284.607 230.884C284.327 231.058 284.004 231.15 283.674 231.149Z" fill="#CCCCCC"/>
<path d="M176.624 247.786H151.401C149.924 247.784 148.507 247.196 147.463 246.152C146.418 245.107 145.83 243.691 145.829 242.213V216.991C145.83 215.513 146.418 214.097 147.463 213.052C148.507 212.008 149.924 211.42 151.401 211.418H176.624C178.101 211.42 179.518 212.008 180.563 213.052C181.607 214.097 182.195 215.513 182.197 216.991V242.213C182.195 243.691 181.607 245.107 180.563 246.152C179.518 247.196 178.101 247.784 176.624 247.786ZM151.401 212.591C150.235 212.593 149.117 213.057 148.292 213.881C147.467 214.706 147.003 215.824 147.002 216.991V242.213C147.003 243.38 147.467 244.498 148.292 245.323C149.117 246.147 150.235 246.611 151.401 246.612H176.624C177.79 246.611 178.909 246.147 179.733 245.323C180.558 244.498 181.022 243.38 181.023 242.213V216.991C181.022 215.824 180.558 214.706 179.733 213.881C178.909 213.057 177.79 212.593 176.624 212.591H151.401Z" fill="#CCCCCC"/>
<path d="M172.225 236.054H155.801C155.334 236.054 154.887 235.868 154.557 235.538C154.227 235.208 154.041 234.761 154.041 234.294V224.909C154.041 224.443 154.227 223.996 154.557 223.666C154.887 223.336 155.334 223.15 155.801 223.15H172.225C172.691 223.15 173.139 223.336 173.469 223.666C173.798 223.996 173.984 224.443 173.984 224.909V234.294C173.984 234.761 173.798 235.208 173.469 235.538C173.139 235.868 172.691 236.054 172.225 236.054ZM155.801 224.323C155.645 224.323 155.496 224.385 155.386 224.495C155.276 224.605 155.214 224.754 155.214 224.909V234.294C155.214 234.45 155.276 234.599 155.386 234.709C155.496 234.819 155.645 234.881 155.801 234.881H172.225C172.38 234.881 172.529 234.819 172.639 234.709C172.749 234.599 172.811 234.45 172.811 234.294V224.909C172.811 224.754 172.749 224.605 172.639 224.495C172.529 224.385 172.38 224.323 172.225 224.323H155.801Z" fill="#CCCCCC"/>
<path d="M169.622 236.054H157.817C157.611 236.054 157.409 236 157.231 235.897C157.052 235.794 156.904 235.646 156.801 235.468C156.698 235.289 156.644 235.087 156.644 234.881C156.644 234.675 156.698 234.473 156.801 234.295L160.357 228.136C160.46 227.957 160.608 227.809 160.786 227.706C160.965 227.603 161.167 227.549 161.373 227.549C161.579 227.549 161.781 227.603 161.96 227.706C162.138 227.809 162.286 227.957 162.389 228.136L164.685 232.113L166.016 229.809C166.119 229.63 166.267 229.482 166.445 229.379C166.624 229.276 166.826 229.222 167.032 229.222C167.238 229.222 167.44 229.276 167.619 229.379C167.797 229.482 167.945 229.63 168.048 229.809L170.638 234.295C170.741 234.473 170.795 234.675 170.795 234.881C170.795 235.087 170.741 235.289 170.638 235.468C170.535 235.646 170.387 235.794 170.208 235.897C170.03 236 169.827 236.054 169.622 236.054H169.622ZM169.622 234.881L167.032 230.395L165.194 233.58C165.142 233.669 165.068 233.743 164.979 233.794C164.89 233.846 164.789 233.873 164.686 233.873C164.583 233.873 164.481 233.846 164.392 233.794C164.303 233.743 164.229 233.669 164.177 233.58L161.373 228.722L157.817 234.881H169.622Z" fill="#CCCCCC"/>
<path d="M170.465 227.842C171.113 227.842 171.638 227.317 171.638 226.669C171.638 226.021 171.113 225.496 170.465 225.496C169.817 225.496 169.292 226.021 169.292 226.669C169.292 227.317 169.817 227.842 170.465 227.842Z" fill="#CCCCCC"/>
<path d="M450.974 380.685L443.783 380.685L440.362 352.947L450.976 352.948L450.974 380.685Z" fill="#FFB8B8"/>
<path d="M452.808 387.656L429.621 387.655V387.362C429.621 386.177 429.854 385.003 430.308 383.908C430.761 382.813 431.426 381.818 432.264 380.98C433.102 380.142 434.097 379.477 435.192 379.024C436.287 378.57 437.461 378.337 438.646 378.337H438.647L452.809 378.337L452.808 387.656Z" fill="#2F2E41"/>
<path d="M480.303 380.685L473.112 380.685L469.691 352.947L480.304 352.948L480.303 380.685Z" fill="#FFB8B8"/>
<path d="M482.137 387.656L458.949 387.655V387.362C458.949 386.177 459.183 385.003 459.636 383.908C460.09 382.813 460.755 381.818 461.593 380.98C462.431 380.142 463.426 379.477 464.521 379.024C465.616 378.57 466.79 378.337 467.975 378.337H467.975L482.138 378.337L482.137 387.656Z" fill="#2F2E41"/>
<path d="M478.147 368.661L471.487 366.635C470.991 366.484 470.55 366.191 470.219 365.791C469.889 365.391 469.684 364.902 469.63 364.386L463.421 305.538C463.416 305.467 463.384 305.4 463.332 305.352C463.28 305.303 463.211 305.276 463.14 305.276C463.069 305.269 462.997 305.29 462.942 305.335C462.886 305.38 462.849 305.445 462.841 305.516L452.44 362.53C452.377 362.876 452.245 363.206 452.053 363.5C451.86 363.794 451.611 364.047 451.32 364.244C451.028 364.441 450.7 364.577 450.355 364.645C450.01 364.714 449.655 364.712 449.311 364.641L440.799 362.888C440.174 362.757 439.618 362.406 439.232 361.898C438.846 361.39 438.656 360.76 438.698 360.124L445.024 266.676L487.925 262.047L481.55 366.296C481.509 366.966 481.214 367.596 480.725 368.056C480.237 368.517 479.591 368.774 478.92 368.776C478.658 368.776 478.398 368.737 478.147 368.661Z" fill="#2F2E41"/>
<path d="M478.107 185.298C486.063 185.298 492.514 178.848 492.514 170.891C492.514 162.934 486.063 156.484 478.107 156.484C470.15 156.484 463.7 162.934 463.7 170.891C463.7 178.848 470.15 185.298 478.107 185.298Z" fill="#FFB8B8"/>
<path d="M444.958 267.225L454.26 208.655C454.755 205.541 455.907 202.568 457.64 199.934C459.373 197.3 461.647 195.065 464.311 193.378C466.975 191.691 469.968 190.591 473.09 190.15C476.212 189.71 479.392 189.94 482.419 190.824C487.711 192.354 492.242 195.803 495.127 200.495C498.013 205.188 499.045 210.787 498.023 216.2L488.291 268.506L444.958 267.225Z" fill="#111827"/>
<path d="M482.084 277.704C482.804 277.229 483.41 276.602 483.861 275.867C484.312 275.132 484.597 274.307 484.694 273.451C484.792 272.594 484.701 271.726 484.427 270.908C484.153 270.091 483.703 269.343 483.109 268.718L492.726 250.094L481.895 251.25L474.423 268.758C473.439 269.826 472.881 271.218 472.855 272.669C472.828 274.121 473.335 275.532 474.28 276.634C475.224 277.737 476.54 278.455 477.979 278.652C479.417 278.85 480.878 278.512 482.084 277.705V277.704Z" fill="#FFB8B8"/>
<path d="M484.143 265.433C483.611 265.358 483.115 265.123 482.72 264.758L479.04 261.358C478.643 260.989 478.368 260.507 478.254 259.976C478.139 259.446 478.19 258.894 478.4 258.393L485.754 240.962L484.711 206.518C484.861 205.411 485.227 204.344 485.79 203.379C486.352 202.413 487.1 201.568 487.989 200.892C488.878 200.215 489.892 199.721 490.973 199.437C492.053 199.152 493.179 199.084 494.286 199.235C495.393 199.386 496.46 199.753 497.425 200.317C498.39 200.88 499.234 201.628 499.91 202.518C500.585 203.408 501.079 204.422 501.362 205.503C501.646 206.584 501.713 207.71 501.561 208.817L503.345 230.468C503.887 237.04 502.024 243.584 498.102 248.885L486.634 264.389C486.413 264.687 486.132 264.935 485.809 265.118C485.486 265.3 485.129 265.412 484.759 265.447C484.554 265.467 484.347 265.462 484.143 265.433Z" fill="#111827"/>
<path d="M395.142 163.042C395.299 163.889 395.64 164.693 396.141 165.394C396.642 166.096 397.29 166.68 398.041 167.104C398.792 167.528 399.627 167.782 400.487 167.849C401.346 167.915 402.21 167.792 403.017 167.489L416.418 183.607L419.577 173.182L406.367 159.475C405.767 158.153 404.703 157.096 403.377 156.506C402.05 155.916 400.554 155.833 399.17 156.272C397.786 156.712 396.612 157.644 395.87 158.891C395.127 160.139 394.868 161.616 395.142 163.042Z" fill="#FFB8B8"/>
<path d="M405.639 169.723C405.916 169.262 406.326 168.896 406.816 168.675L411.381 166.612C411.876 166.39 412.427 166.325 412.96 166.426C413.493 166.528 413.982 166.79 414.361 167.178L427.546 180.747L459.671 193.215C460.632 193.785 461.472 194.539 462.142 195.433C462.812 196.328 463.299 197.345 463.575 198.428C463.851 199.511 463.912 200.637 463.752 201.743C463.593 202.85 463.217 203.913 462.646 204.874C462.076 205.835 461.321 206.674 460.426 207.342C459.531 208.011 458.512 208.497 457.429 208.772C456.346 209.048 455.219 209.106 454.113 208.946C453.008 208.785 451.944 208.408 450.984 207.836L430.35 201.037C424.088 198.974 418.787 194.707 415.435 189.029L405.629 172.423C405.441 172.103 405.322 171.748 405.28 171.379C405.238 171.011 405.274 170.638 405.386 170.284C405.448 170.088 405.533 169.899 405.639 169.723Z" fill="#111827"/>
<path opacity="0.1" d="M489.792 220.846L489.206 239.616L478.4 258.393L487.422 237.468L489.792 220.846Z" fill="black"/>
<path d="M476.456 173.598C475.551 173.716 474.634 173.501 473.876 172.994C473.117 172.487 472.569 171.721 472.332 170.84C472.104 169.826 471.604 168.893 470.885 168.141C470.167 167.39 469.258 166.848 468.255 166.574C465.612 165.97 462.382 167.214 460.446 165.211C460.031 164.754 459.731 164.205 459.57 163.609C459.41 163.014 459.393 162.388 459.521 161.785C459.878 159.839 461.27 158.369 462.785 157.193C465.972 154.731 469.83 153.289 473.851 153.057C475.933 152.997 478.016 153.101 480.081 153.367C482.244 153.504 484.382 153.895 486.453 154.532C488.813 155.422 490.91 156.893 492.55 158.808C494.191 160.723 495.322 163.021 495.84 165.489C496.313 167.965 496.24 170.514 495.627 172.959C495.013 175.403 493.873 177.685 492.287 179.643C490.387 182.008 487.939 183.873 485.154 185.074C484.49 185.387 483.73 185.426 483.038 185.182C481.304 184.492 481.587 182.343 482.378 180.91C483.224 179.376 484.527 177.891 483.846 176.025C483.505 175.159 482.85 174.454 482.012 174.05C480.287 173.171 478.358 173.379 476.505 173.593L476.456 173.598Z" fill="#2F2E41"/>
<path d="M390.327 181.734H212.008C209.442 181.731 206.982 180.711 205.168 178.896C203.353 177.082 202.332 174.622 202.33 172.056V133.929C202.332 131.363 203.353 128.903 205.168 127.088C206.982 125.274 209.442 124.253 212.008 124.25H390.327C392.893 124.253 395.353 125.274 397.168 127.088C398.982 128.903 400.003 131.363 400.006 133.929V172.056C400.003 174.622 398.982 177.082 397.168 178.896C395.353 180.71 392.893 181.731 390.327 181.734Z" fill="white"/>
<path d="M390.327 182.027H212.008C209.364 182.024 206.83 180.973 204.96 179.103C203.091 177.234 202.039 174.699 202.036 172.056V133.929C202.039 131.285 203.091 128.75 204.96 126.881C206.83 125.011 209.364 123.96 212.008 123.957H390.327C392.971 123.96 395.506 125.011 397.375 126.881C399.244 128.75 400.296 131.285 400.299 133.929V172.056C400.296 174.699 399.244 177.234 397.375 179.103C395.506 180.973 392.971 182.024 390.327 182.027ZM212.008 125.13C209.675 125.133 207.439 126.061 205.789 127.71C204.14 129.36 203.212 131.596 203.209 133.929V172.056C203.212 174.388 204.14 176.625 205.789 178.274C207.439 179.924 209.675 180.852 212.008 180.854H390.327C392.66 180.852 394.896 179.924 396.546 178.274C398.195 176.625 399.123 174.388 399.126 172.056V133.929C399.123 131.596 398.195 129.36 396.546 127.71C394.896 126.061 392.66 125.133 390.327 125.13H212.008Z" fill="#3F3D56"/>
<path d="M368.624 172.349H233.711C231.145 172.346 228.685 171.325 226.871 169.511C225.056 167.697 224.036 165.237 224.033 162.671V142.727C224.036 140.161 225.056 137.701 226.871 135.887C228.685 134.072 231.145 133.052 233.711 133.049H368.624C371.19 133.052 373.65 134.072 375.464 135.887C377.279 137.701 378.299 140.161 378.302 142.727V162.671C378.299 165.237 377.279 167.697 375.464 169.511C373.65 171.325 371.19 172.346 368.624 172.349Z" fill="#F2F2F2"/>
<path d="M262.744 161.6C269.136 161.6 274.318 156.418 274.318 150.025C274.318 143.633 269.136 138.451 262.744 138.451C256.351 138.451 251.169 143.633 251.169 150.025C251.169 156.418 256.351 161.6 262.744 161.6Z" fill="#FF6584"/>
<path d="M360.24 171.181L343.902 157.479L327.847 144.013C327.423 143.658 326.887 143.464 326.334 143.465C325.781 143.466 325.247 143.662 324.824 144.019L308.821 157.546L304.912 160.851L299.017 155.908L281.105 140.885C280.681 140.53 280.146 140.335 279.593 140.336C279.04 140.338 278.505 140.534 278.083 140.891L260.229 155.982L242.093 171.311C242.002 171.389 241.936 171.493 241.905 171.609C241.874 171.726 241.88 171.849 241.921 171.962C241.963 172.074 242.038 172.172 242.137 172.241C242.236 172.309 242.353 172.346 242.473 172.346L279.654 172.274L291.423 172.252L291.308 172.349L326.39 172.281L359.864 172.217C359.984 172.217 360.102 172.18 360.2 172.11C360.299 172.041 360.373 171.944 360.414 171.83C360.456 171.717 360.461 171.594 360.43 171.478C360.398 171.362 360.332 171.258 360.24 171.181Z" fill="#3F3D56"/>
<path d="M513.413 388.5H400.791C400.635 388.5 400.486 388.438 400.376 388.328C400.266 388.218 400.204 388.069 400.204 387.913C400.204 387.758 400.266 387.609 400.376 387.499C400.486 387.389 400.635 387.327 400.791 387.327H513.413C513.569 387.327 513.718 387.389 513.828 387.499C513.938 387.609 514 387.758 514 387.913C514 388.069 513.938 388.218 513.828 388.328C513.718 388.438 513.569 388.5 513.413 388.5Z" fill="#CCCCCC"/>
<path d="M354.325 77.8758C353.856 77.1145 353.238 76.4566 352.506 75.9423C351.775 75.428 350.947 75.068 350.072 74.8843C349.752 74.8169 349.426 74.7757 349.099 74.7611L304.407 34.8039C303.529 33.9017 302.358 33.3422 301.105 33.2261C300.858 33.1977 300.608 33.1898 300.36 33.2026C299.329 33.2495 298.334 33.5957 297.496 34.1991C296.659 34.8025 296.015 35.6368 295.644 36.6001C295.273 37.5634 295.191 38.6138 295.408 39.623C295.624 40.6322 296.13 41.5565 296.864 42.2827L313.974 57.1992L342.071 81.6885C342.094 82.1497 342.163 82.6075 342.277 83.0552C342.613 84.352 343.335 85.516 344.348 86.3928C345.361 87.2697 346.617 87.8179 347.949 87.9648C349.163 88.1066 350.393 87.9033 351.498 87.3782C352.373 86.9687 353.15 86.3744 353.773 85.6361C353.838 85.5598 353.897 85.4894 353.955 85.4073C354.776 84.3385 355.25 83.0449 355.316 81.6993C355.382 80.3536 355.036 79.0198 354.325 77.8758H354.325Z" fill="#FFB8B8"/>
<path d="M277.882 116.384L277.466 99.4557L277.114 85.4073L276.873 75.5764L276.398 56.4132C276.304 55.3872 275.914 54.4108 275.274 53.6031C274.634 52.7954 273.773 52.1914 272.796 51.8648C271.819 51.5383 270.768 51.5033 269.771 51.7641C268.774 52.025 267.875 52.5703 267.183 53.3337C267.02 53.5081 266.873 53.6966 266.743 53.8968C266.021 54.9311 265.696 56.1911 265.828 57.4456L266.872 85.4073L267.394 99.4557L268.063 117.375C267.87 117.639 267.696 117.915 267.541 118.202C267.124 118.993 266.872 119.861 266.8 120.752C266.729 121.644 266.839 122.54 267.125 123.388C267.423 124.276 267.905 125.092 268.541 125.78C269.177 126.469 269.952 127.015 270.814 127.382C271.677 127.75 272.607 127.93 273.544 127.912C274.481 127.894 275.404 127.677 276.251 127.277C277.236 126.811 278.09 126.111 278.739 125.237C279.389 124.363 279.813 123.342 279.974 122.266C280.135 121.189 280.028 120.089 279.664 119.063C279.299 118.037 278.687 117.117 277.882 116.384H277.882Z" fill="#FFB8B8"/>
<path d="M318.122 68.432L313.974 57.1992L307.264 39.0038C306.78 37.6799 306.004 36.4821 304.993 35.4991C303.983 34.5162 302.764 33.7734 301.427 33.3258C301.322 33.2906 301.211 33.2554 301.105 33.2261C299.81 32.8331 298.445 32.725 297.105 32.9092C295.764 33.0935 294.479 33.5658 293.339 34.2936L270.738 48.6294C268.668 49.9393 267.188 52.0025 266.612 54.3831C266.035 56.7637 266.406 59.2753 267.646 61.3873C270.473 66.2745 273.553 71.0106 276.873 75.5764C279.507 79.1604 284.411 79.5416 285.262 85.4073H301.926L318.796 70.2621L318.122 68.432Z" fill="#CCCCCC"/>
<path d="M59.3408 205.714C66.8474 205.714 72.9327 199.629 72.9327 192.122C72.9327 184.615 66.8474 178.53 59.3408 178.53C51.8341 178.53 45.7488 184.615 45.7488 192.122C45.7488 199.629 51.8341 205.714 59.3408 205.714Z" fill="#A0616A"/>
<path d="M92.7091 182.766C92.843 182.873 92.9729 182.986 93.0986 183.105C93.723 183.693 94.216 184.407 94.5455 185.199C94.8749 185.991 95.0332 186.843 95.0101 187.701C94.987 188.558 94.783 189.401 94.4114 190.175C94.0398 190.948 93.5091 191.634 92.8539 192.187C92.7012 192.316 92.5419 192.436 92.3766 192.547L93.2964 223.603C93.3226 224.62 93.0203 225.618 92.4344 226.449C91.8485 227.28 91.0102 227.9 90.0439 228.218L89.9878 228.23L64.7717 230.915C64.0862 230.988 63.3929 230.924 62.7321 230.728C62.0713 230.531 61.4559 230.206 60.9216 229.77C60.3872 229.335 59.9445 228.797 59.6189 228.19C59.2933 227.582 59.0913 226.916 59.0246 226.23C58.9578 225.544 59.0277 224.851 59.2302 224.192C59.4326 223.533 59.7636 222.92 60.204 222.39C60.6445 221.86 61.1856 221.422 61.7962 221.102C62.4068 220.782 63.0748 220.586 63.7615 220.525L81.7367 218.942L84.8453 192.047C84.642 191.867 84.4516 191.673 84.2754 191.467C83.3008 190.313 82.7896 188.838 82.8411 187.329C82.8927 185.82 83.5033 184.384 84.5544 183.299C85.6055 182.215 87.0221 181.56 88.529 181.461C90.036 181.363 91.5258 181.828 92.7091 182.766H92.7091Z" fill="#A0616A"/>
<path d="M81.7265 381.286H88.5114L91.7388 355.117H81.7253L81.7265 381.286Z" fill="#A0616A"/>
<path d="M79.9962 379.071L93.3572 379.07H93.3578C94.4759 379.07 95.5832 379.291 96.6162 379.718C97.6493 380.146 98.588 380.773 99.3787 381.564C100.169 382.355 100.797 383.293 101.224 384.327C101.652 385.36 101.873 386.467 101.873 387.585V387.862L79.9966 387.862L79.9962 379.071Z" fill="#2F2E41"/>
<path d="M14.2925 371.906L20.1219 375.376L36.2838 354.543L27.6799 349.421L14.2925 371.906Z" fill="#A0616A"/>
<path d="M13.9388 369.117L25.419 375.952L25.4195 375.953C26.3802 376.525 27.2189 377.28 27.8876 378.176C28.5563 379.073 29.042 380.092 29.3168 381.176C29.5917 382.26 29.6503 383.387 29.4894 384.493C29.3286 385.6 28.9513 386.664 28.3792 387.625L28.2377 387.862L9.44113 376.671L13.9388 369.117Z" fill="#2F2E41"/>
<path d="M90.1121 372.043H82.515C81.8998 372.044 81.3061 371.817 80.8487 371.406C80.3913 370.994 80.1027 370.428 80.0387 369.816L72.3797 297.822C72.3604 297.641 72.282 297.471 72.1566 297.339C72.0311 297.206 71.8657 297.119 71.6857 297.09C71.5058 297.061 71.3213 297.093 71.1608 297.179C71.0003 297.265 70.8727 297.402 70.7976 297.568L56.9806 328.163L32.5183 368.051C32.2017 368.562 31.7114 368.943 31.1374 369.122C30.5634 369.301 29.9439 369.268 29.3925 369.028L19.6199 364.729C19.2968 364.586 19.0076 364.377 18.7715 364.114C18.5355 363.852 18.3579 363.542 18.2505 363.206C18.1432 362.87 18.1086 362.514 18.1491 362.164C18.1895 361.813 18.304 361.475 18.485 361.172L40.9727 323.518L47.8694 291.794C45.7003 278.036 54.9993 257.581 55.0936 257.376L55.1396 257.276L80.7539 247.265L80.8824 247.422C90.9839 280.571 97.1394 316.245 92.5944 369.761C92.5383 370.382 92.253 370.96 91.7941 371.382C91.3351 371.804 90.7355 372.039 90.1121 372.043Z" fill="#2F2E41"/>
<path d="M54.1077 260.628L53.9884 260.377C53.9314 260.257 48.2358 248.245 43.8453 235.406C43.0015 232.924 42.6825 230.293 42.9086 227.68C43.1346 225.068 43.9007 222.531 45.1584 220.23C46.4324 217.905 48.1754 215.87 50.2769 214.254C52.3784 212.638 54.7926 211.476 57.3666 210.842C61.8351 209.771 66.5397 210.341 70.6232 212.448C74.7068 214.555 77.8975 218.059 79.6141 222.321C83.0967 231.03 81.9868 240.326 80.9423 247.636L80.9215 247.782L80.7883 247.846L54.1077 260.628Z" fill="#3F3D56"/>
<path d="M75.8206 184.444H54.2382V175.037C58.9753 173.155 63.6108 171.554 66.4129 175.037C68.9079 175.037 71.3008 176.028 73.0651 177.792C74.8294 179.556 75.8206 181.949 75.8206 184.444V184.444Z" fill="#2F2E41"/>
<path d="M53.0433 173.377C40.1409 173.377 36.5296 189.549 36.5296 198.673C36.5296 203.761 38.8307 205.581 42.4467 206.196L43.7237 199.386L46.7147 206.49C47.7304 206.495 48.7975 206.475 49.9037 206.454L50.9178 204.366L53.1792 206.417C62.2365 206.43 69.5568 207.751 69.5568 198.673C69.5568 189.549 66.3896 173.377 53.0433 173.377Z" fill="#2F2E41"/>
<path d="M113.209 388.5H0.586576C0.431006 388.5 0.281808 388.438 0.171804 388.328C0.0617994 388.218 0 388.069 0 387.913C0 387.758 0.0617994 387.609 0.171804 387.499C0.281808 387.389 0.431006 387.327 0.586576 387.327H113.209C113.365 387.327 113.514 387.389 113.624 387.499C113.734 387.609 113.796 387.758 113.796 387.913C113.796 388.069 113.734 388.218 113.624 388.328C113.514 388.438 113.365 388.5 113.209 388.5Z" fill="#CCCCCC"/>
<path d="M115.327 195.519H90.1041C88.6267 195.517 87.2103 194.929 86.1656 193.885C85.1209 192.84 84.5333 191.423 84.5316 189.946V164.724C84.5333 163.246 85.1209 161.83 86.1656 160.785C87.2103 159.74 88.6267 159.153 90.1041 159.151H115.327C116.804 159.153 118.221 159.74 119.265 160.785C120.31 161.83 120.898 163.246 120.899 164.724V189.946C120.898 191.423 120.31 192.84 119.265 193.885C118.221 194.929 116.804 195.517 115.327 195.519Z" fill="white"/>
<path d="M115.327 195.519H90.1041C88.6267 195.517 87.2103 194.929 86.1656 193.885C85.1209 192.84 84.5333 191.423 84.5316 189.946V164.724C84.5333 163.246 85.1209 161.83 86.1656 160.785C87.2103 159.74 88.6267 159.153 90.1041 159.151H115.327C116.804 159.153 118.221 159.74 119.265 160.785C120.31 161.83 120.898 163.246 120.899 164.724V189.946C120.898 191.423 120.31 192.84 119.265 193.885C118.221 194.929 116.804 195.517 115.327 195.519ZM90.1041 160.324C88.9377 160.326 87.8195 160.79 86.9947 161.614C86.17 162.439 85.7061 163.557 85.7048 164.724V189.946C85.7061 191.112 86.17 192.231 86.9947 193.055C87.8195 193.88 88.9377 194.344 90.1041 194.345H115.327C116.493 194.344 117.611 193.88 118.436 193.055C119.261 192.231 119.725 191.112 119.726 189.946V164.724C119.725 163.557 119.261 162.439 118.436 161.614C117.611 160.79 116.493 160.326 115.327 160.324H90.1041Z" fill="#3F3D56"/>
<path d="M110.928 185.254H94.5034C94.0369 185.253 93.5896 185.067 93.2597 184.738C92.9298 184.408 92.7442 183.96 92.7437 183.494V171.176C92.7442 170.709 92.9298 170.262 93.2597 169.932C93.5896 169.602 94.0369 169.417 94.5034 169.416H99.127C99.4277 169.415 99.7237 169.492 99.9862 169.638C100.249 169.785 100.469 169.997 100.626 170.253L101.915 172.349H110.928C111.394 172.35 111.841 172.535 112.171 172.865C112.501 173.195 112.687 173.642 112.687 174.109V183.494C112.687 183.96 112.501 184.408 112.171 184.738C111.841 185.067 111.394 185.253 110.928 185.254Z" fill="#111827"/>
<path d="M110.393 191.477C110.475 191.627 110.551 191.781 110.621 191.94C110.968 192.724 111.146 193.573 111.142 194.431C111.138 195.289 110.953 196.136 110.599 196.918C110.245 197.699 109.73 198.397 109.087 198.965C108.445 199.533 107.69 199.96 106.871 200.216C106.68 200.275 106.487 200.323 106.291 200.362L95.0881 229.342C94.7177 230.289 94.0518 231.091 93.1892 231.63C92.3267 232.169 91.3134 232.415 90.2997 232.332L90.2434 232.322L65.9611 225.012C65.3009 224.813 64.6866 224.485 64.1538 224.048C63.6209 223.61 63.18 223.072 62.8565 222.463C62.533 221.854 62.3333 221.187 62.269 220.501C62.2047 219.814 62.277 219.122 62.4818 218.463C62.6866 217.805 63.0198 217.194 63.4622 216.665C63.9045 216.136 64.4473 215.7 65.0591 215.382C65.6709 215.064 66.3396 214.871 67.0266 214.813C67.7136 214.755 68.4053 214.833 69.0618 215.044L86.2428 220.56L99.5442 196.979C99.4267 196.734 99.3265 196.482 99.2443 196.223C98.7938 194.781 98.8949 193.224 99.5281 191.853C100.161 190.482 101.281 189.395 102.671 188.804C104.06 188.212 105.62 188.158 107.047 188.652C108.474 189.146 109.667 190.153 110.393 191.477H110.393Z" fill="#A0616A"/>
</g>
<defs>
<clipPath id="clip0_85_849">
<rect width="514" height="388" fill="white" transform="translate(0 0.5)"/>
</clipPath>
</defs>
</svg>
